%TF.GenerationSoftware,KiCad,Pcbnew,10.0.2*%
%TF.CreationDate,2026-06-05T14:15:23+02:00*%
%TF.ProjectId,Prot_Slave,50726f74-5f53-46c6-9176-652e6b696361,1.0*%
%TF.SameCoordinates,Original*%
%TF.FileFunction,Soldermask,Top*%
%TF.FilePolarity,Negative*%
%FSLAX46Y46*%
G04 Gerber Fmt 4.6, Leading zero omitted, Abs format (unit mm)*
G04 Created by KiCad (PCBNEW 10.0.2) date 2026-06-05 14:15:23*
%MOMM*%
%LPD*%
G01*
G04 APERTURE LIST*
G04 Aperture macros list*
%AMRoundRect*
0 Rectangle with rounded corners*
0 $1 Rounding radius*
0 $2 $3 $4 $5 $6 $7 $8 $9 X,Y pos of 4 corners*
0 Add a 4 corners polygon primitive as box body*
4,1,4,$2,$3,$4,$5,$6,$7,$8,$9,$2,$3,0*
0 Add four circle primitives for the rounded corners*
1,1,$1+$1,$2,$3*
1,1,$1+$1,$4,$5*
1,1,$1+$1,$6,$7*
1,1,$1+$1,$8,$9*
0 Add four rect primitives between the rounded corners*
20,1,$1+$1,$2,$3,$4,$5,0*
20,1,$1+$1,$4,$5,$6,$7,0*
20,1,$1+$1,$6,$7,$8,$9,0*
20,1,$1+$1,$8,$9,$2,$3,0*%
G04 Aperture macros list end*
%ADD10C,1.400000*%
%ADD11R,1.700000X1.700000*%
%ADD12C,1.700000*%
%ADD13R,1.371600X1.371600*%
%ADD14C,1.371600*%
%ADD15RoundRect,0.250000X-1.050000X-1.050000X1.050000X-1.050000X1.050000X1.050000X-1.050000X1.050000X0*%
%ADD16C,2.600000*%
G04 APERTURE END LIST*
D10*
%TO.C,R4*%
X144780000Y-84836000D03*
X149860000Y-84836000D03*
%TD*%
%TO.C,R3*%
X131064000Y-118872000D03*
X131064000Y-123952000D03*
%TD*%
D11*
%TO.C,J20*%
X178435000Y-84980000D03*
D12*
X178435000Y-87520000D03*
X178435000Y-90060000D03*
X178435000Y-92600000D03*
X178435000Y-95140000D03*
X178435000Y-97680000D03*
X178435000Y-100220000D03*
X178435000Y-102760000D03*
X178435000Y-105300000D03*
X178435000Y-107840000D03*
X178435000Y-110380000D03*
X178435000Y-112920000D03*
X178435000Y-115460000D03*
X178435000Y-118000000D03*
X178435000Y-120540000D03*
X178435000Y-123080000D03*
X178435000Y-125620000D03*
X178435000Y-128160000D03*
X178435000Y-130700000D03*
X178435000Y-133240000D03*
X178435000Y-135780000D03*
X178435000Y-138320000D03*
%TD*%
D10*
%TO.C,R16*%
X150876000Y-111760000D03*
X150876000Y-106680000D03*
%TD*%
D11*
%TO.C,R_N1*%
X131572000Y-104140000D03*
D12*
X131572000Y-106680000D03*
X131572000Y-109220000D03*
X131572000Y-111760000D03*
X131572000Y-114300000D03*
%TD*%
D10*
%TO.C,R17*%
X146812000Y-100076000D03*
X146812000Y-94996000D03*
%TD*%
D11*
%TO.C,L_N1*%
X123952000Y-104189800D03*
D12*
X123952000Y-106729800D03*
X123952000Y-109269800D03*
X123952000Y-111809800D03*
X123952000Y-114349800D03*
%TD*%
D10*
%TO.C,R15*%
X138176000Y-123952000D03*
X138176000Y-118872000D03*
%TD*%
D13*
%TO.C,U1*%
X123952000Y-89408000D03*
D14*
X123952000Y-91948000D03*
X123952000Y-94488000D03*
X123952000Y-97028000D03*
X131572000Y-97028000D03*
X131572000Y-94488000D03*
X131572000Y-91948000D03*
X131572000Y-89408000D03*
%TD*%
D11*
%TO.C,L_N2*%
X139192000Y-104140000D03*
D12*
X139192000Y-106680000D03*
X139192000Y-109220000D03*
X139192000Y-111760000D03*
X139192000Y-114300000D03*
%TD*%
D15*
%TO.C,J6*%
X110236000Y-132080000D03*
D16*
X115316000Y-132080000D03*
X120396000Y-132080000D03*
X125476000Y-132080000D03*
%TD*%
D10*
%TO.C,R8*%
X141732000Y-89408000D03*
X136652000Y-89408000D03*
%TD*%
D15*
%TO.C,J5*%
X133096000Y-132080000D03*
D16*
X138176000Y-132080000D03*
X143256000Y-132080000D03*
X148336000Y-132080000D03*
%TD*%
D10*
%TO.C,R9*%
X149860000Y-89408000D03*
X144780000Y-89408000D03*
%TD*%
%TO.C,R2*%
X127000000Y-123952000D03*
X127000000Y-118872000D03*
%TD*%
D11*
%TO.C,R_L2*%
X146812000Y-104140000D03*
D12*
X146812000Y-106680000D03*
X146812000Y-109220000D03*
X146812000Y-111760000D03*
X146812000Y-114300000D03*
%TD*%
D10*
%TO.C,R14*%
X120396000Y-123952000D03*
X120396000Y-118872000D03*
%TD*%
D11*
%TO.C,J10*%
X155575000Y-84980000D03*
D12*
X155575000Y-87520000D03*
X155575000Y-90060000D03*
X155575000Y-92600000D03*
X155575000Y-95140000D03*
X155575000Y-97680000D03*
X155575000Y-100220000D03*
X155575000Y-102760000D03*
X155575000Y-105300000D03*
X155575000Y-107840000D03*
X155575000Y-110380000D03*
X155575000Y-112920000D03*
X155575000Y-115460000D03*
X155575000Y-118000000D03*
X155575000Y-120540000D03*
X155575000Y-123080000D03*
X155575000Y-125620000D03*
X155575000Y-128160000D03*
X155575000Y-130700000D03*
X155575000Y-133240000D03*
X155575000Y-135780000D03*
X155575000Y-138320000D03*
%TD*%
M02*
