M48
; DRILL file KiCad 10.0.2 date 2026-06-05T14:15:30
; FORMAT={-:-/ absolute / metric / decimal}
; #@! TF.CreationDate,2026-06-05T14:15:30+02:00
; #@! TF.GenerationSoftware,Kicad,Pcbnew,10.0.2
; #@! TF.FileFunction,Plated,1,2,PTH
FMAT,2
METRIC
; #@! TA.AperFunction,Plated,PTH,ComponentDrill
T1C0.700
; #@! TA.AperFunction,Plated,PTH,ComponentDrill
T2C0.864
; #@! TA.AperFunction,Plated,PTH,ComponentDrill
T3C1.000
; #@! TA.AperFunction,Plated,PTH,ComponentDrill
T4C1.300
%
G90
G05
T1
X120.396Y-118.872
X120.396Y-123.952
X127.0Y-118.872
X127.0Y-123.952
X131.064Y-118.872
X131.064Y-123.952
X136.652Y-89.408
X138.176Y-118.872
X138.176Y-123.952
X141.732Y-89.408
X144.78Y-84.836
X144.78Y-89.408
X146.812Y-94.996
X146.812Y-100.076
X149.86Y-84.836
X149.86Y-89.408
X150.876Y-106.68
X150.876Y-111.76
T2
X123.952Y-89.408
X123.952Y-91.948
X123.952Y-94.488
X123.952Y-97.028
X131.572Y-89.408
X131.572Y-91.948
X131.572Y-94.488
X131.572Y-97.028
T3
X123.952Y-104.19
X123.952Y-106.73
X123.952Y-109.27
X123.952Y-111.81
X123.952Y-114.35
X131.572Y-104.14
X131.572Y-106.68
X131.572Y-109.22
X131.572Y-111.76
X131.572Y-114.3
X139.192Y-104.14
X139.192Y-106.68
X139.192Y-109.22
X139.192Y-111.76
X139.192Y-114.3
X146.812Y-104.14
X146.812Y-106.68
X146.812Y-109.22
X146.812Y-111.76
X146.812Y-114.3
X155.575Y-84.98
X155.575Y-87.52
X155.575Y-90.06
X155.575Y-92.6
X155.575Y-95.14
X155.575Y-97.68
X155.575Y-100.22
X155.575Y-102.76
X155.575Y-105.3
X155.575Y-107.84
X155.575Y-110.38
X155.575Y-112.92
X155.575Y-115.46
X155.575Y-118.0
X155.575Y-120.54
X155.575Y-123.08
X155.575Y-125.62
X155.575Y-128.16
X155.575Y-130.7
X155.575Y-133.24
X155.575Y-135.78
X155.575Y-138.32
X178.435Y-84.98
X178.435Y-87.52
X178.435Y-90.06
X178.435Y-92.6
X178.435Y-95.14
X178.435Y-97.68
X178.435Y-100.22
X178.435Y-102.76
X178.435Y-105.3
X178.435Y-107.84
X178.435Y-110.38
X178.435Y-112.92
X178.435Y-115.46
X178.435Y-118.0
X178.435Y-120.54
X178.435Y-123.08
X178.435Y-125.62
X178.435Y-128.16
X178.435Y-130.7
X178.435Y-133.24
X178.435Y-135.78
X178.435Y-138.32
T4
X110.236Y-132.08
X115.316Y-132.08
X120.396Y-132.08
X125.476Y-132.08
X133.096Y-132.08
X138.176Y-132.08
X143.256Y-132.08
X148.336Y-132.08
M30
