%TF.GenerationSoftware,KiCad,Pcbnew,10.0.2*%
%TF.CreationDate,2026-06-05T14:01:08+02:00*%
%TF.ProjectId,Prot_Slave,50726f74-5f53-46c6-9176-652e6b696361,rev?*%
%TF.SameCoordinates,Original*%
%TF.FileFunction,Copper,L2,Bot*%
%TF.FilePolarity,Positive*%
%FSLAX46Y46*%
G04 Gerber Fmt 4.6, Leading zero omitted, Abs format (unit mm)*
G04 Created by KiCad (PCBNEW 10.0.2) date 2026-06-05 14:01:08*
%MOMM*%
%LPD*%
G01*
G04 APERTURE LIST*
G04 Aperture macros list*
%AMRoundRect*
0 Rectangle with rounded corners*
0 $1 Rounding radius*
0 $2 $3 $4 $5 $6 $7 $8 $9 X,Y pos of 4 corners*
0 Add a 4 corners polygon primitive as box body*
4,1,4,$2,$3,$4,$5,$6,$7,$8,$9,$2,$3,0*
0 Add four circle primitives for the rounded corners*
1,1,$1+$1,$2,$3*
1,1,$1+$1,$4,$5*
1,1,$1+$1,$6,$7*
1,1,$1+$1,$8,$9*
0 Add four rect primitives between the rounded corners*
20,1,$1+$1,$2,$3,$4,$5,0*
20,1,$1+$1,$4,$5,$6,$7,0*
20,1,$1+$1,$6,$7,$8,$9,0*
20,1,$1+$1,$8,$9,$2,$3,0*%
G04 Aperture macros list end*
%TA.AperFunction,ComponentPad*%
%ADD10C,1.400000*%
%TD*%
%TA.AperFunction,ComponentPad*%
%ADD11R,1.700000X1.700000*%
%TD*%
%TA.AperFunction,ComponentPad*%
%ADD12C,1.700000*%
%TD*%
%TA.AperFunction,ComponentPad*%
%ADD13R,1.371600X1.371600*%
%TD*%
%TA.AperFunction,ComponentPad*%
%ADD14C,1.371600*%
%TD*%
%TA.AperFunction,ComponentPad*%
%ADD15RoundRect,0.250000X-1.050000X-1.050000X1.050000X-1.050000X1.050000X1.050000X-1.050000X1.050000X0*%
%TD*%
%TA.AperFunction,ComponentPad*%
%ADD16C,2.600000*%
%TD*%
G04 APERTURE END LIST*
D10*
%TO.P,R4,1*%
%TO.N,LM393_Out*%
X144780000Y-84836000D03*
%TO.P,R4,2*%
%TO.N,3.3V*%
X149860000Y-84836000D03*
%TD*%
%TO.P,R3,1*%
%TO.N,LM393_IN+*%
X131064000Y-118872000D03*
%TO.P,R3,2*%
%TO.N,GND*%
X131064000Y-123952000D03*
%TD*%
D11*
%TO.P,J20,1,Pin_1_1*%
%TO.N,unconnected-(J20-Pin_1-Pad1)*%
X178435000Y-84980000D03*
D12*
%TO.P,J20,2,Pin_2_2*%
%TO.N,unconnected-(J20-Pin_2-Pad2)*%
X178435000Y-87520000D03*
%TO.P,J20,3,Pin_3_3*%
%TO.N,unconnected-(J20-Pin_3-Pad3)*%
X178435000Y-90060000D03*
%TO.P,J20,4,Pin_4_4*%
%TO.N,unconnected-(J20-Pin_4-Pad4)*%
X178435000Y-92600000D03*
%TO.P,J20,5,Pin_5_5*%
%TO.N,unconnected-(J20-Pin_5-Pad5)*%
X178435000Y-95140000D03*
%TO.P,J20,6,Pin_6_6*%
%TO.N,unconnected-(J20-Pin_6-Pad6)*%
X178435000Y-97680000D03*
%TO.P,J20,7,Pin_7_7*%
%TO.N,unconnected-(J20-Pin_7-Pad7)*%
X178435000Y-100220000D03*
%TO.P,J20,8,Pin_8_8*%
%TO.N,unconnected-(J20-Pin_8-Pad8)*%
X178435000Y-102760000D03*
%TO.P,J20,9,Pin_9_9*%
%TO.N,unconnected-(J20-Pin_9-Pad9)*%
X178435000Y-105300000D03*
%TO.P,J20,10,Pin_10_10*%
%TO.N,unconnected-(J20-Pin_10-Pad10)*%
X178435000Y-107840000D03*
%TO.P,J20,11,Pin_11_11*%
%TO.N,unconnected-(J20-Pin_11-Pad11)*%
X178435000Y-110380000D03*
%TO.P,J20,12,Pin_12_12*%
%TO.N,unconnected-(J20-Pin_12-Pad12)*%
X178435000Y-112920000D03*
%TO.P,J20,13,Pin_13_13*%
%TO.N,unconnected-(J20-Pin_13-Pad13)*%
X178435000Y-115460000D03*
%TO.P,J20,14,Pin_14_14*%
%TO.N,unconnected-(J20-Pin_14-Pad14)*%
X178435000Y-118000000D03*
%TO.P,J20,15,Pin_15_15*%
%TO.N,unconnected-(J20-Pin_15-Pad15)*%
X178435000Y-120540000D03*
%TO.P,J20,16,Pin_16_16*%
%TO.N,unconnected-(J20-Pin_16-Pad16)*%
X178435000Y-123080000D03*
%TO.P,J20,17,Pin_17_17*%
%TO.N,unconnected-(J20-Pin_17-Pad17)*%
X178435000Y-125620000D03*
%TO.P,J20,18,Pin_18_18*%
%TO.N,unconnected-(J20-Pin_18-Pad18)*%
X178435000Y-128160000D03*
%TO.P,J20,19,Pin_19_19*%
%TO.N,unconnected-(J20-Pin_19-Pad19)*%
X178435000Y-130700000D03*
%TO.P,J20,20,Pin_20_20*%
%TO.N,unconnected-(J20-Pin_20-Pad20)*%
X178435000Y-133240000D03*
%TO.P,J20,21,Pin_21_21*%
%TO.N,unconnected-(J20-Pin_21-Pad21)*%
X178435000Y-135780000D03*
%TO.P,J20,22,Pin_22_22*%
%TO.N,unconnected-(J20-Pin_22-Pad22)*%
X178435000Y-138320000D03*
%TD*%
D10*
%TO.P,R16,1*%
%TO.N,GND*%
X150876000Y-111760000D03*
%TO.P,R16,2*%
%TO.N,Gate_N2*%
X150876000Y-106680000D03*
%TD*%
D11*
%TO.P,R_N1,1,Pin_1_1*%
%TO.N,GND*%
X131572000Y-104140000D03*
D12*
%TO.P,R_N1,2,Pin_2_2*%
%TO.N,unconnected-(R_N1-Pin_2-Pad2)*%
X131572000Y-106680000D03*
%TO.P,R_N1,3,Pin_3_3*%
%TO.N,Gate_N1*%
X131572000Y-109220000D03*
%TO.P,R_N1,4,Pin_4_4*%
%TO.N,unconnected-(R_N1-Pin_4-Pad4)*%
X131572000Y-111760000D03*
%TO.P,R_N1,5,Pin_5_5*%
%TO.N,unconnected-(R_N1-Pin_5-Pad5)*%
X131572000Y-114300000D03*
%TD*%
D10*
%TO.P,R17,1*%
%TO.N,GND*%
X146812000Y-100076000D03*
%TO.P,R17,2*%
%TO.N,Gate_N1*%
X146812000Y-94996000D03*
%TD*%
D11*
%TO.P,L_N1,1,Pin_1_1*%
%TO.N,unconnected-(L_N1-Pin_1-Pad1)*%
X123952000Y-104189800D03*
D12*
%TO.P,L_N1,2,Pin_2_2*%
%TO.N,Drain_N1*%
X123952000Y-106729800D03*
%TO.P,L_N1,3,Pin_3_3*%
%TO.N,unconnected-(L_N1-Pin_3-Pad3)*%
X123952000Y-109269800D03*
%TO.P,L_N1,4,Pin_4_4*%
%TO.N,unconnected-(L_N1-Pin_4-Pad4)*%
X123952000Y-111809800D03*
%TO.P,L_N1,5,Pin_5_5*%
%TO.N,unconnected-(L_N1-Pin_5-Pad5)*%
X123952000Y-114349800D03*
%TD*%
D10*
%TO.P,R15,1*%
%TO.N,Bus*%
X138176000Y-123952000D03*
%TO.P,R15,2*%
%TO.N,Drain_N2*%
X138176000Y-118872000D03*
%TD*%
D13*
%TO.P,U1,1,1OUT_1*%
%TO.N,LM393_Out*%
X123952000Y-89408000D03*
D14*
%TO.P,U1,2,1IN-_2*%
%TO.N,LM393_IN-*%
X123952000Y-91948000D03*
%TO.P,U1,3,1IN+_3*%
%TO.N,LM393_IN+*%
X123952000Y-94488000D03*
%TO.P,U1,4,GND_4*%
%TO.N,GND*%
X123952000Y-97028000D03*
%TO.P,U1,5,2IN+_5*%
%TO.N,unconnected-(U1-2IN+-Pad5)*%
X131572000Y-97028000D03*
%TO.P,U1,6,2IN-_6*%
%TO.N,unconnected-(U1-2IN--Pad6)*%
X131572000Y-94488000D03*
%TO.P,U1,7,2OUT_7*%
%TO.N,unconnected-(U1-2OUT-Pad7)*%
X131572000Y-91948000D03*
%TO.P,U1,8,VCC_8*%
%TO.N,5V*%
X131572000Y-89408000D03*
%TD*%
D11*
%TO.P,L_N2,1,Pin_1_1*%
%TO.N,unconnected-(L_N2-Pin_1-Pad1)*%
X139192000Y-104140000D03*
D12*
%TO.P,L_N2,2,Pin_2_2*%
%TO.N,Drain_N2*%
X139192000Y-106680000D03*
%TO.P,L_N2,3,Pin_3_3*%
%TO.N,unconnected-(L_N2-Pin_3-Pad3)*%
X139192000Y-109220000D03*
%TO.P,L_N2,4,Pin_4_4*%
%TO.N,unconnected-(L_N2-Pin_4-Pad4)*%
X139192000Y-111760000D03*
%TO.P,L_N2,5,Pin_5_5*%
%TO.N,unconnected-(L_N2-Pin_5-Pad5)*%
X139192000Y-114300000D03*
%TD*%
D15*
%TO.P,J6,1,Pin_1_1*%
%TO.N,unconnected-(J6-Pin_1-Pad1)*%
X110236000Y-132080000D03*
D16*
%TO.P,J6,2,Pin_2_2*%
%TO.N,GND*%
X115316000Y-132080000D03*
%TO.P,J6,3,Pin_3_3*%
%TO.N,Bus*%
X120396000Y-132080000D03*
%TO.P,J6,4,Pin_4_4*%
%TO.N,unconnected-(J6-Pin_4-Pad4)*%
X125476000Y-132080000D03*
%TD*%
D10*
%TO.P,R8,1*%
%TO.N,LM393_IN-*%
X141732000Y-89408000D03*
%TO.P,R8,2*%
%TO.N,GND*%
X136652000Y-89408000D03*
%TD*%
D15*
%TO.P,J5,1,Pin_1_1*%
%TO.N,unconnected-(J5-Pin_1-Pad1)*%
X133096000Y-132080000D03*
D16*
%TO.P,J5,2,Pin_2_2*%
%TO.N,Bus*%
X138176000Y-132080000D03*
%TO.P,J5,3,Pin_3_3*%
%TO.N,GND*%
X143256000Y-132080000D03*
%TO.P,J5,4,Pin_4_4*%
%TO.N,unconnected-(J5-Pin_4-Pad4)*%
X148336000Y-132080000D03*
%TD*%
D10*
%TO.P,R9,1*%
%TO.N,3.3V*%
X149860000Y-89408000D03*
%TO.P,R9,2*%
%TO.N,LM393_IN-*%
X144780000Y-89408000D03*
%TD*%
%TO.P,R2,1*%
%TO.N,Bus*%
X127000000Y-123952000D03*
%TO.P,R2,2*%
%TO.N,LM393_IN+*%
X127000000Y-118872000D03*
%TD*%
D11*
%TO.P,R_L2,1,Pin_1_1*%
%TO.N,GND*%
X146812000Y-104140000D03*
D12*
%TO.P,R_L2,2,Pin_2_2*%
%TO.N,unconnected-(R_L2-Pin_2-Pad2)*%
X146812000Y-106680000D03*
%TO.P,R_L2,3,Pin_3_3*%
%TO.N,Gate_N2*%
X146812000Y-109220000D03*
%TO.P,R_L2,4,Pin_4_4*%
%TO.N,unconnected-(R_L2-Pin_4-Pad4)*%
X146812000Y-111760000D03*
%TO.P,R_L2,5,Pin_5_5*%
%TO.N,unconnected-(R_L2-Pin_5-Pad5)*%
X146812000Y-114300000D03*
%TD*%
D10*
%TO.P,R14,1*%
%TO.N,Bus*%
X120396000Y-123952000D03*
%TO.P,R14,2*%
%TO.N,Drain_N1*%
X120396000Y-118872000D03*
%TD*%
D11*
%TO.P,J10,1,Pin_1_1*%
%TO.N,3.3V*%
X155575000Y-84980000D03*
D12*
%TO.P,J10,2,Pin_2_2*%
%TO.N,unconnected-(J10-Pin_2-Pad2)*%
X155575000Y-87520000D03*
%TO.P,J10,3,Pin_3_3*%
%TO.N,unconnected-(J10-Pin_3-Pad3)*%
X155575000Y-90060000D03*
%TO.P,J10,4,Pin_4_4*%
%TO.N,unconnected-(J10-Pin_4-Pad4)*%
X155575000Y-92600000D03*
%TO.P,J10,5,Pin_5_5*%
%TO.N,Gate_N1*%
X155575000Y-95140000D03*
%TO.P,J10,6,Pin_6_6*%
%TO.N,unconnected-(J10-Pin_6-Pad6)*%
X155575000Y-97680000D03*
%TO.P,J10,7,Pin_7_7*%
%TO.N,Gate_N2*%
X155575000Y-100220000D03*
%TO.P,J10,8,Pin_8_8*%
%TO.N,unconnected-(J10-Pin_8-Pad8)*%
X155575000Y-102760000D03*
%TO.P,J10,9,Pin_9_9*%
%TO.N,unconnected-(J10-Pin_9-Pad9)*%
X155575000Y-105300000D03*
%TO.P,J10,10,Pin_10_10*%
%TO.N,unconnected-(J10-Pin_10-Pad10)*%
X155575000Y-107840000D03*
%TO.P,J10,11,Pin_11_11*%
%TO.N,unconnected-(J10-Pin_11-Pad11)*%
X155575000Y-110380000D03*
%TO.P,J10,12,Pin_12_12*%
%TO.N,unconnected-(J10-Pin_12-Pad12)*%
X155575000Y-112920000D03*
%TO.P,J10,13,Pin_13_13*%
%TO.N,unconnected-(J10-Pin_13-Pad13)*%
X155575000Y-115460000D03*
%TO.P,J10,14,Pin_14_14*%
%TO.N,unconnected-(J10-Pin_14-Pad14)*%
X155575000Y-118000000D03*
%TO.P,J10,15,Pin_15_15*%
%TO.N,unconnected-(J10-Pin_15-Pad15)*%
X155575000Y-120540000D03*
%TO.P,J10,16,Pin_16_16*%
%TO.N,unconnected-(J10-Pin_16-Pad16)*%
X155575000Y-123080000D03*
%TO.P,J10,17,Pin_17_17*%
%TO.N,unconnected-(J10-Pin_17-Pad17)*%
X155575000Y-125620000D03*
%TO.P,J10,18,Pin_18_18*%
%TO.N,unconnected-(J10-Pin_18-Pad18)*%
X155575000Y-128160000D03*
%TO.P,J10,19,Pin_19_19*%
%TO.N,unconnected-(J10-Pin_19-Pad19)*%
X155575000Y-130700000D03*
%TO.P,J10,20,Pin_20_20*%
%TO.N,unconnected-(J10-Pin_20-Pad20)*%
X155575000Y-133240000D03*
%TO.P,J10,21,Pin_21_21*%
%TO.N,5V*%
X155575000Y-135780000D03*
%TO.P,J10,22,Pin_22_22*%
%TO.N,GND*%
X155575000Y-138320000D03*
%TD*%
%TA.AperFunction,Conductor*%
%TO.N,GND*%
G36*
X181298539Y-82316185D02*
G01*
X181344294Y-82368989D01*
X181355500Y-82420500D01*
X181355500Y-141099500D01*
X181335815Y-141166539D01*
X181283011Y-141212294D01*
X181231500Y-141223500D01*
X106296500Y-141223500D01*
X106229461Y-141203815D01*
X106183706Y-141151011D01*
X106172500Y-141099500D01*
X106172500Y-130979983D01*
X108435500Y-130979983D01*
X108435500Y-133180001D01*
X108435501Y-133180018D01*
X108446000Y-133282796D01*
X108446001Y-133282799D01*
X108494885Y-133430319D01*
X108501186Y-133449334D01*
X108593288Y-133598656D01*
X108717344Y-133722712D01*
X108866666Y-133814814D01*
X109033203Y-133869999D01*
X109135991Y-133880500D01*
X111336008Y-133880499D01*
X111438797Y-133869999D01*
X111605334Y-133814814D01*
X111754656Y-133722712D01*
X111878712Y-133598656D01*
X111970814Y-133449334D01*
X112025999Y-133282797D01*
X112036500Y-133180009D01*
X112036499Y-131962014D01*
X113516000Y-131962014D01*
X113516000Y-132197985D01*
X113546799Y-132431914D01*
X113607870Y-132659837D01*
X113698160Y-132877819D01*
X113698165Y-132877828D01*
X113816144Y-133082171D01*
X113816145Y-133082172D01*
X113878721Y-133163723D01*
X114714958Y-132327487D01*
X114739978Y-132387890D01*
X114811112Y-132494351D01*
X114901649Y-132584888D01*
X115008110Y-132656022D01*
X115068511Y-132681041D01*
X114232275Y-133517277D01*
X114313827Y-133579854D01*
X114313828Y-133579855D01*
X114518171Y-133697834D01*
X114518180Y-133697839D01*
X114736163Y-133788129D01*
X114736161Y-133788129D01*
X114964085Y-133849200D01*
X115198014Y-133879999D01*
X115198029Y-133880000D01*
X115433971Y-133880000D01*
X115433985Y-133879999D01*
X115667914Y-133849200D01*
X115895837Y-133788129D01*
X116113819Y-133697839D01*
X116113828Y-133697834D01*
X116318181Y-133579850D01*
X116399723Y-133517279D01*
X116399723Y-133517276D01*
X115563487Y-132681041D01*
X115623890Y-132656022D01*
X115730351Y-132584888D01*
X115820888Y-132494351D01*
X115892022Y-132387890D01*
X115917041Y-132327487D01*
X116753276Y-133163723D01*
X116753279Y-133163723D01*
X116815850Y-133082181D01*
X116933834Y-132877828D01*
X116933839Y-132877819D01*
X117024129Y-132659837D01*
X117085200Y-132431914D01*
X117115999Y-132197985D01*
X117116000Y-132197971D01*
X117116000Y-131962021D01*
X117115997Y-131961995D01*
X118595500Y-131961995D01*
X118595500Y-132198004D01*
X118595501Y-132198020D01*
X118626306Y-132432010D01*
X118687394Y-132659993D01*
X118777714Y-132878045D01*
X118777719Y-132878056D01*
X118804107Y-132923760D01*
X118895727Y-133082450D01*
X118895729Y-133082453D01*
X118895730Y-133082454D01*
X119039406Y-133269697D01*
X119039412Y-133269704D01*
X119206295Y-133436587D01*
X119206302Y-133436593D01*
X119316306Y-133521001D01*
X119393550Y-133580273D01*
X119524918Y-133656118D01*
X119597943Y-133698280D01*
X119597948Y-133698282D01*
X119597951Y-133698284D01*
X119816007Y-133788606D01*
X120043986Y-133849693D01*
X120277989Y-133880500D01*
X120277996Y-133880500D01*
X120514004Y-133880500D01*
X120514011Y-133880500D01*
X120748014Y-133849693D01*
X120975993Y-133788606D01*
X121194049Y-133698284D01*
X121398450Y-133580273D01*
X121585699Y-133436592D01*
X121752592Y-133269699D01*
X121896273Y-133082450D01*
X122014284Y-132878049D01*
X122104606Y-132659993D01*
X122165693Y-132432014D01*
X122196500Y-132198011D01*
X122196500Y-131961995D01*
X123675500Y-131961995D01*
X123675500Y-132198004D01*
X123675501Y-132198020D01*
X123706306Y-132432010D01*
X123767394Y-132659993D01*
X123857714Y-132878045D01*
X123857719Y-132878056D01*
X123884107Y-132923760D01*
X123975727Y-133082450D01*
X123975729Y-133082453D01*
X123975730Y-133082454D01*
X124119406Y-133269697D01*
X124119412Y-133269704D01*
X124286295Y-133436587D01*
X124286302Y-133436593D01*
X124396306Y-133521001D01*
X124473550Y-133580273D01*
X124604918Y-133656118D01*
X124677943Y-133698280D01*
X124677948Y-133698282D01*
X124677951Y-133698284D01*
X124896007Y-133788606D01*
X125123986Y-133849693D01*
X125357989Y-133880500D01*
X125357996Y-133880500D01*
X125594004Y-133880500D01*
X125594011Y-133880500D01*
X125828014Y-133849693D01*
X126055993Y-133788606D01*
X126274049Y-133698284D01*
X126478450Y-133580273D01*
X126665699Y-133436592D01*
X126832592Y-133269699D01*
X126976273Y-133082450D01*
X127094284Y-132878049D01*
X127184606Y-132659993D01*
X127245693Y-132432014D01*
X127276500Y-132198011D01*
X127276500Y-131961989D01*
X127245693Y-131727986D01*
X127184606Y-131500007D01*
X127094284Y-131281951D01*
X127094282Y-131281948D01*
X127094280Y-131281943D01*
X127038510Y-131185348D01*
X126976273Y-131077550D01*
X126929231Y-131016243D01*
X126901408Y-130979983D01*
X131295500Y-130979983D01*
X131295500Y-133180001D01*
X131295501Y-133180018D01*
X131306000Y-133282796D01*
X131306001Y-133282799D01*
X131354885Y-133430319D01*
X131361186Y-133449334D01*
X131453288Y-133598656D01*
X131577344Y-133722712D01*
X131726666Y-133814814D01*
X131893203Y-133869999D01*
X131995991Y-133880500D01*
X134196008Y-133880499D01*
X134298797Y-133869999D01*
X134465334Y-133814814D01*
X134614656Y-133722712D01*
X134738712Y-133598656D01*
X134830814Y-133449334D01*
X134885999Y-133282797D01*
X134896500Y-133180009D01*
X134896499Y-131961995D01*
X136375500Y-131961995D01*
X136375500Y-132198004D01*
X136375501Y-132198020D01*
X136406306Y-132432010D01*
X136467394Y-132659993D01*
X136557714Y-132878045D01*
X136557719Y-132878056D01*
X136584107Y-132923760D01*
X136675727Y-133082450D01*
X136675729Y-133082453D01*
X136675730Y-133082454D01*
X136819406Y-133269697D01*
X136819412Y-133269704D01*
X136986295Y-133436587D01*
X136986302Y-133436593D01*
X137096306Y-133521001D01*
X137173550Y-133580273D01*
X137304918Y-133656118D01*
X137377943Y-133698280D01*
X137377948Y-133698282D01*
X137377951Y-133698284D01*
X137596007Y-133788606D01*
X137823986Y-133849693D01*
X138057989Y-133880500D01*
X138057996Y-133880500D01*
X138294004Y-133880500D01*
X138294011Y-133880500D01*
X138528014Y-133849693D01*
X138755993Y-133788606D01*
X138974049Y-133698284D01*
X139178450Y-133580273D01*
X139365699Y-133436592D01*
X139371972Y-133430319D01*
X139420648Y-133381644D01*
X139532587Y-133269704D01*
X139532592Y-133269699D01*
X139676273Y-133082450D01*
X139794284Y-132878049D01*
X139884606Y-132659993D01*
X139945693Y-132432014D01*
X139976500Y-132198011D01*
X139976500Y-131962014D01*
X141456000Y-131962014D01*
X141456000Y-132197985D01*
X141486799Y-132431914D01*
X141547870Y-132659837D01*
X141638160Y-132877819D01*
X141638165Y-132877828D01*
X141756144Y-133082171D01*
X141756145Y-133082172D01*
X141818721Y-133163723D01*
X142654958Y-132327487D01*
X142679978Y-132387890D01*
X142751112Y-132494351D01*
X142841649Y-132584888D01*
X142948110Y-132656022D01*
X143008511Y-132681041D01*
X142172275Y-133517277D01*
X142253827Y-133579854D01*
X142253828Y-133579855D01*
X142458171Y-133697834D01*
X142458180Y-133697839D01*
X142676163Y-133788129D01*
X142676161Y-133788129D01*
X142904085Y-133849200D01*
X143138014Y-133879999D01*
X143138029Y-133880000D01*
X143373971Y-133880000D01*
X143373985Y-133879999D01*
X143607914Y-133849200D01*
X143835837Y-133788129D01*
X144053819Y-133697839D01*
X144053828Y-133697834D01*
X144258181Y-133579850D01*
X144339723Y-133517279D01*
X144339723Y-133517276D01*
X143503487Y-132681041D01*
X143563890Y-132656022D01*
X143670351Y-132584888D01*
X143760888Y-132494351D01*
X143832022Y-132387890D01*
X143857041Y-132327488D01*
X144693276Y-133163723D01*
X144693279Y-133163723D01*
X144755850Y-133082181D01*
X144873834Y-132877828D01*
X144873839Y-132877819D01*
X144964129Y-132659837D01*
X145025200Y-132431914D01*
X145055999Y-132197985D01*
X145056000Y-132197971D01*
X145056000Y-131962021D01*
X145055997Y-131961995D01*
X146535500Y-131961995D01*
X146535500Y-132198004D01*
X146535501Y-132198020D01*
X146566306Y-132432010D01*
X146627394Y-132659993D01*
X146717714Y-132878045D01*
X146717719Y-132878056D01*
X146744107Y-132923760D01*
X146835727Y-133082450D01*
X146835729Y-133082453D01*
X146835730Y-133082454D01*
X146979406Y-133269697D01*
X146979412Y-133269704D01*
X147146295Y-133436587D01*
X147146302Y-133436593D01*
X147256306Y-133521001D01*
X147333550Y-133580273D01*
X147464918Y-133656118D01*
X147537943Y-133698280D01*
X147537948Y-133698282D01*
X147537951Y-133698284D01*
X147756007Y-133788606D01*
X147983986Y-133849693D01*
X148217989Y-133880500D01*
X148217996Y-133880500D01*
X148454004Y-133880500D01*
X148454011Y-133880500D01*
X148688014Y-133849693D01*
X148915993Y-133788606D01*
X149134049Y-133698284D01*
X149338450Y-133580273D01*
X149525699Y-133436592D01*
X149692592Y-133269699D01*
X149836273Y-133082450D01*
X149954284Y-132878049D01*
X150044606Y-132659993D01*
X150105693Y-132432014D01*
X150136500Y-132198011D01*
X150136500Y-131961989D01*
X150105693Y-131727986D01*
X150044606Y-131500007D01*
X149954284Y-131281951D01*
X149954282Y-131281948D01*
X149954280Y-131281943D01*
X149912118Y-131208918D01*
X149836273Y-131077550D01*
X149692592Y-130890301D01*
X149692587Y-130890295D01*
X149525704Y-130723412D01*
X149525697Y-130723406D01*
X149338454Y-130579730D01*
X149338453Y-130579729D01*
X149338450Y-130579727D01*
X149256957Y-130532677D01*
X149134056Y-130461719D01*
X149134045Y-130461714D01*
X148915993Y-130371394D01*
X148688010Y-130310306D01*
X148454020Y-130279501D01*
X148454017Y-130279500D01*
X148454011Y-130279500D01*
X148217989Y-130279500D01*
X148217983Y-130279500D01*
X148217979Y-130279501D01*
X147983989Y-130310306D01*
X147756006Y-130371394D01*
X147537954Y-130461714D01*
X147537943Y-130461719D01*
X147333545Y-130579730D01*
X147146302Y-130723406D01*
X147146295Y-130723412D01*
X146979412Y-130890295D01*
X146979406Y-130890302D01*
X146835730Y-131077545D01*
X146835727Y-131077549D01*
X146835727Y-131077550D01*
X146828014Y-131090909D01*
X146717719Y-131281943D01*
X146717714Y-131281954D01*
X146627394Y-131500006D01*
X146566306Y-131727989D01*
X146535501Y-131961979D01*
X146535500Y-131961995D01*
X145055997Y-131961995D01*
X145025200Y-131728085D01*
X144964129Y-131500162D01*
X144873839Y-131282180D01*
X144873834Y-131282171D01*
X144755855Y-131077828D01*
X144755854Y-131077827D01*
X144693277Y-130996275D01*
X143857041Y-131832511D01*
X143832022Y-131772110D01*
X143760888Y-131665649D01*
X143670351Y-131575112D01*
X143563890Y-131503978D01*
X143503488Y-131478958D01*
X144339723Y-130642721D01*
X144258172Y-130580145D01*
X144258171Y-130580144D01*
X144053828Y-130462165D01*
X144053819Y-130462160D01*
X143835836Y-130371870D01*
X143835838Y-130371870D01*
X143607914Y-130310799D01*
X143373985Y-130280000D01*
X143138014Y-130280000D01*
X142904085Y-130310799D01*
X142676162Y-130371870D01*
X142458180Y-130462160D01*
X142458171Y-130462165D01*
X142253828Y-130580144D01*
X142253818Y-130580150D01*
X142172275Y-130642720D01*
X142172275Y-130642721D01*
X143008512Y-131478958D01*
X142948110Y-131503978D01*
X142841649Y-131575112D01*
X142751112Y-131665649D01*
X142679978Y-131772110D01*
X142654958Y-131832512D01*
X141818721Y-130996275D01*
X141818720Y-130996275D01*
X141756150Y-131077818D01*
X141756144Y-131077828D01*
X141638165Y-131282171D01*
X141638160Y-131282180D01*
X141547870Y-131500162D01*
X141486799Y-131728085D01*
X141456000Y-131962014D01*
X139976500Y-131962014D01*
X139976500Y-131961989D01*
X139945693Y-131727986D01*
X139884606Y-131500007D01*
X139794284Y-131281951D01*
X139794282Y-131281948D01*
X139794280Y-131281943D01*
X139752118Y-131208918D01*
X139676273Y-131077550D01*
X139532592Y-130890301D01*
X139532587Y-130890295D01*
X139365704Y-130723412D01*
X139365697Y-130723406D01*
X139178454Y-130579730D01*
X139178453Y-130579729D01*
X139178450Y-130579727D01*
X139096957Y-130532677D01*
X138974056Y-130461719D01*
X138974045Y-130461714D01*
X138755993Y-130371394D01*
X138528010Y-130310306D01*
X138294020Y-130279501D01*
X138294017Y-130279500D01*
X138294011Y-130279500D01*
X138057989Y-130279500D01*
X138057983Y-130279500D01*
X138057979Y-130279501D01*
X137823989Y-130310306D01*
X137596006Y-130371394D01*
X137377954Y-130461714D01*
X137377943Y-130461719D01*
X137173545Y-130579730D01*
X136986302Y-130723406D01*
X136986295Y-130723412D01*
X136819412Y-130890295D01*
X136819406Y-130890302D01*
X136675730Y-131077545D01*
X136675727Y-131077549D01*
X136675727Y-131077550D01*
X136668014Y-131090909D01*
X136557719Y-131281943D01*
X136557714Y-131281954D01*
X136467394Y-131500006D01*
X136406306Y-131727989D01*
X136375501Y-131961979D01*
X136375500Y-131961995D01*
X134896499Y-131961995D01*
X134896499Y-130979992D01*
X134885999Y-130877203D01*
X134830814Y-130710666D01*
X134738712Y-130561344D01*
X134614656Y-130437288D01*
X134465334Y-130345186D01*
X134298797Y-130290001D01*
X134298795Y-130290000D01*
X134196010Y-130279500D01*
X131995998Y-130279500D01*
X131995981Y-130279501D01*
X131893203Y-130290000D01*
X131893200Y-130290001D01*
X131726668Y-130345185D01*
X131726663Y-130345187D01*
X131577342Y-130437289D01*
X131453289Y-130561342D01*
X131361187Y-130710663D01*
X131361185Y-130710668D01*
X131354886Y-130729678D01*
X131306001Y-130877203D01*
X131306001Y-130877204D01*
X131306000Y-130877204D01*
X131295500Y-130979983D01*
X126901408Y-130979983D01*
X126832593Y-130890302D01*
X126832587Y-130890295D01*
X126665704Y-130723412D01*
X126665697Y-130723406D01*
X126478454Y-130579730D01*
X126478453Y-130579729D01*
X126478450Y-130579727D01*
X126396957Y-130532677D01*
X126274056Y-130461719D01*
X126274045Y-130461714D01*
X126055993Y-130371394D01*
X125828010Y-130310306D01*
X125594020Y-130279501D01*
X125594017Y-130279500D01*
X125594011Y-130279500D01*
X125357989Y-130279500D01*
X125357983Y-130279500D01*
X125357979Y-130279501D01*
X125123989Y-130310306D01*
X124896006Y-130371394D01*
X124677954Y-130461714D01*
X124677943Y-130461719D01*
X124473545Y-130579730D01*
X124286302Y-130723406D01*
X124286295Y-130723412D01*
X124119412Y-130890295D01*
X124119406Y-130890302D01*
X123975730Y-131077545D01*
X123975727Y-131077549D01*
X123975727Y-131077550D01*
X123968014Y-131090909D01*
X123857719Y-131281943D01*
X123857714Y-131281954D01*
X123767394Y-131500006D01*
X123706306Y-131727989D01*
X123675501Y-131961979D01*
X123675500Y-131961995D01*
X122196500Y-131961995D01*
X122196500Y-131961989D01*
X122165693Y-131727986D01*
X122104606Y-131500007D01*
X122014284Y-131281951D01*
X122014282Y-131281948D01*
X122014280Y-131281943D01*
X121972118Y-131208918D01*
X121896273Y-131077550D01*
X121752592Y-130890301D01*
X121752587Y-130890295D01*
X121585704Y-130723412D01*
X121585697Y-130723406D01*
X121398454Y-130579730D01*
X121398453Y-130579729D01*
X121398450Y-130579727D01*
X121316957Y-130532677D01*
X121194056Y-130461719D01*
X121194045Y-130461714D01*
X120975993Y-130371394D01*
X120748010Y-130310306D01*
X120514020Y-130279501D01*
X120514017Y-130279500D01*
X120514011Y-130279500D01*
X120277989Y-130279500D01*
X120277983Y-130279500D01*
X120277979Y-130279501D01*
X120043989Y-130310306D01*
X119816006Y-130371394D01*
X119597954Y-130461714D01*
X119597943Y-130461719D01*
X119393545Y-130579730D01*
X119206302Y-130723406D01*
X119206295Y-130723412D01*
X119039412Y-130890295D01*
X119039406Y-130890302D01*
X118895730Y-131077545D01*
X118895727Y-131077549D01*
X118895727Y-131077550D01*
X118888014Y-131090909D01*
X118777719Y-131281943D01*
X118777714Y-131281954D01*
X118687394Y-131500006D01*
X118626306Y-131727989D01*
X118595501Y-131961979D01*
X118595500Y-131961995D01*
X117115997Y-131961995D01*
X117085200Y-131728085D01*
X117024129Y-131500162D01*
X116933839Y-131282180D01*
X116933834Y-131282171D01*
X116815855Y-131077828D01*
X116815854Y-131077827D01*
X116753277Y-130996275D01*
X115917041Y-131832511D01*
X115892022Y-131772110D01*
X115820888Y-131665649D01*
X115730351Y-131575112D01*
X115623890Y-131503978D01*
X115563488Y-131478958D01*
X116399723Y-130642721D01*
X116318172Y-130580145D01*
X116318171Y-130580144D01*
X116113828Y-130462165D01*
X116113819Y-130462160D01*
X115895836Y-130371870D01*
X115895838Y-130371870D01*
X115667914Y-130310799D01*
X115433985Y-130280000D01*
X115198014Y-130280000D01*
X114964085Y-130310799D01*
X114736162Y-130371870D01*
X114518180Y-130462160D01*
X114518171Y-130462165D01*
X114313828Y-130580144D01*
X114313818Y-130580150D01*
X114232275Y-130642720D01*
X114232275Y-130642721D01*
X115068512Y-131478958D01*
X115008110Y-131503978D01*
X114901649Y-131575112D01*
X114811112Y-131665649D01*
X114739978Y-131772110D01*
X114714958Y-131832511D01*
X113878721Y-130996275D01*
X113878720Y-130996275D01*
X113816150Y-131077818D01*
X113816144Y-131077828D01*
X113698165Y-131282171D01*
X113698160Y-131282180D01*
X113607870Y-131500162D01*
X113546799Y-131728085D01*
X113516000Y-131962014D01*
X112036499Y-131962014D01*
X112036499Y-130979992D01*
X112025999Y-130877203D01*
X111970814Y-130710666D01*
X111878712Y-130561344D01*
X111754656Y-130437288D01*
X111605334Y-130345186D01*
X111438797Y-130290001D01*
X111438795Y-130290000D01*
X111336010Y-130279500D01*
X109135998Y-130279500D01*
X109135981Y-130279501D01*
X109033203Y-130290000D01*
X109033200Y-130290001D01*
X108866668Y-130345185D01*
X108866663Y-130345187D01*
X108717342Y-130437289D01*
X108593289Y-130561342D01*
X108501187Y-130710663D01*
X108501185Y-130710668D01*
X108494886Y-130729678D01*
X108446001Y-130877203D01*
X108446001Y-130877204D01*
X108446000Y-130877204D01*
X108435500Y-130979983D01*
X106172500Y-130979983D01*
X106172500Y-123857513D01*
X119195500Y-123857513D01*
X119195500Y-124046486D01*
X119225059Y-124233118D01*
X119283454Y-124412836D01*
X119369104Y-124580933D01*
X119369240Y-124581199D01*
X119480310Y-124734073D01*
X119613927Y-124867690D01*
X119766801Y-124978760D01*
X119846347Y-125019290D01*
X119935163Y-125064545D01*
X119935165Y-125064545D01*
X119935168Y-125064547D01*
X120031497Y-125095846D01*
X120114881Y-125122940D01*
X120301514Y-125152500D01*
X120301519Y-125152500D01*
X120490486Y-125152500D01*
X120677118Y-125122940D01*
X120678623Y-125122451D01*
X120856832Y-125064547D01*
X121025199Y-124978760D01*
X121178073Y-124867690D01*
X121311690Y-124734073D01*
X121422760Y-124581199D01*
X121508547Y-124412832D01*
X121566940Y-124233118D01*
X121577427Y-124166905D01*
X121596500Y-124046486D01*
X121596500Y-123857513D01*
X125799500Y-123857513D01*
X125799500Y-124046486D01*
X125829059Y-124233118D01*
X125887454Y-124412836D01*
X125973104Y-124580933D01*
X125973240Y-124581199D01*
X126084310Y-124734073D01*
X126217927Y-124867690D01*
X126370801Y-124978760D01*
X126450347Y-125019290D01*
X126539163Y-125064545D01*
X126539165Y-125064545D01*
X126539168Y-125064547D01*
X126635497Y-125095846D01*
X126718881Y-125122940D01*
X126905514Y-125152500D01*
X126905519Y-125152500D01*
X127094486Y-125152500D01*
X127281118Y-125122940D01*
X127282623Y-125122451D01*
X127460832Y-125064547D01*
X127629199Y-124978760D01*
X127655182Y-124959882D01*
X130409669Y-124959882D01*
X130409670Y-124959883D01*
X130435059Y-124978329D01*
X130603362Y-125064085D01*
X130782997Y-125122451D01*
X130969553Y-125152000D01*
X131158447Y-125152000D01*
X131345002Y-125122451D01*
X131524637Y-125064085D01*
X131692937Y-124978331D01*
X131718328Y-124959883D01*
X131718328Y-124959882D01*
X131064001Y-124305554D01*
X131064000Y-124305554D01*
X130409669Y-124959882D01*
X127655182Y-124959882D01*
X127782073Y-124867690D01*
X127915690Y-124734073D01*
X128026760Y-124581199D01*
X128112547Y-124412832D01*
X128170940Y-124233118D01*
X128181427Y-124166905D01*
X128200500Y-124046486D01*
X128200500Y-123857552D01*
X129864000Y-123857552D01*
X129864000Y-124046447D01*
X129893548Y-124233002D01*
X129951914Y-124412637D01*
X130037666Y-124580933D01*
X130056116Y-124606328D01*
X130710446Y-123952000D01*
X130710446Y-123951999D01*
X130664369Y-123905922D01*
X130714000Y-123905922D01*
X130714000Y-123998078D01*
X130737852Y-124087095D01*
X130783930Y-124166905D01*
X130849095Y-124232070D01*
X130928905Y-124278148D01*
X131017922Y-124302000D01*
X131110078Y-124302000D01*
X131199095Y-124278148D01*
X131278905Y-124232070D01*
X131344070Y-124166905D01*
X131390148Y-124087095D01*
X131414000Y-123998078D01*
X131414000Y-123951999D01*
X131417554Y-123951999D01*
X131417554Y-123952000D01*
X132071882Y-124606328D01*
X132071883Y-124606328D01*
X132090331Y-124580937D01*
X132176085Y-124412637D01*
X132234451Y-124233002D01*
X132264000Y-124046447D01*
X132264000Y-123857552D01*
X132263994Y-123857513D01*
X136975500Y-123857513D01*
X136975500Y-124046486D01*
X137005059Y-124233118D01*
X137063454Y-124412836D01*
X137149104Y-124580933D01*
X137149240Y-124581199D01*
X137260310Y-124734073D01*
X137393927Y-124867690D01*
X137546801Y-124978760D01*
X137626347Y-125019290D01*
X137715163Y-125064545D01*
X137715165Y-125064545D01*
X137715168Y-125064547D01*
X137811497Y-125095846D01*
X137894881Y-125122940D01*
X138081514Y-125152500D01*
X138081519Y-125152500D01*
X138270486Y-125152500D01*
X138457118Y-125122940D01*
X138458623Y-125122451D01*
X138636832Y-125064547D01*
X138805199Y-124978760D01*
X138958073Y-124867690D01*
X139091690Y-124734073D01*
X139202760Y-124581199D01*
X139288547Y-124412832D01*
X139346940Y-124233118D01*
X139357427Y-124166905D01*
X139376500Y-124046486D01*
X139376500Y-123857513D01*
X139346940Y-123670881D01*
X139288545Y-123491163D01*
X139240178Y-123396239D01*
X139202760Y-123322801D01*
X139091690Y-123169927D01*
X138958073Y-123036310D01*
X138805199Y-122925240D01*
X138636836Y-122839454D01*
X138457118Y-122781059D01*
X138270486Y-122751500D01*
X138270481Y-122751500D01*
X138081519Y-122751500D01*
X138081514Y-122751500D01*
X137894881Y-122781059D01*
X137715163Y-122839454D01*
X137546800Y-122925240D01*
X137480084Y-122973713D01*
X137393927Y-123036310D01*
X137393925Y-123036312D01*
X137393924Y-123036312D01*
X137260312Y-123169924D01*
X137260312Y-123169925D01*
X137260310Y-123169927D01*
X137248424Y-123186287D01*
X137149240Y-123322800D01*
X137063454Y-123491163D01*
X137005059Y-123670881D01*
X136975500Y-123857513D01*
X132263994Y-123857513D01*
X132234451Y-123670997D01*
X132176085Y-123491362D01*
X132090329Y-123323059D01*
X132071883Y-123297670D01*
X132071882Y-123297669D01*
X131417554Y-123951999D01*
X131414000Y-123951999D01*
X131414000Y-123905922D01*
X131390148Y-123816905D01*
X131344070Y-123737095D01*
X131278905Y-123671930D01*
X131199095Y-123625852D01*
X131110078Y-123602000D01*
X131017922Y-123602000D01*
X130928905Y-123625852D01*
X130849095Y-123671930D01*
X130783930Y-123737095D01*
X130737852Y-123816905D01*
X130714000Y-123905922D01*
X130664369Y-123905922D01*
X130056116Y-123297669D01*
X130056116Y-123297670D01*
X130037669Y-123323060D01*
X129951914Y-123491362D01*
X129893548Y-123670997D01*
X129864000Y-123857552D01*
X128200500Y-123857552D01*
X128200500Y-123857513D01*
X128170940Y-123670881D01*
X128112545Y-123491163D01*
X128064178Y-123396239D01*
X128026760Y-123322801D01*
X127915690Y-123169927D01*
X127782073Y-123036310D01*
X127655179Y-122944116D01*
X130409669Y-122944116D01*
X131064000Y-123598446D01*
X131064001Y-123598446D01*
X131718328Y-122944116D01*
X131692933Y-122925666D01*
X131524637Y-122839914D01*
X131345002Y-122781548D01*
X131158447Y-122752000D01*
X130969553Y-122752000D01*
X130782997Y-122781548D01*
X130603362Y-122839914D01*
X130435060Y-122925669D01*
X130409670Y-122944116D01*
X130409669Y-122944116D01*
X127655179Y-122944116D01*
X127629199Y-122925240D01*
X127460836Y-122839454D01*
X127281118Y-122781059D01*
X127094486Y-122751500D01*
X127094481Y-122751500D01*
X126905519Y-122751500D01*
X126905514Y-122751500D01*
X126718881Y-122781059D01*
X126539163Y-122839454D01*
X126370800Y-122925240D01*
X126304084Y-122973713D01*
X126217927Y-123036310D01*
X126217925Y-123036312D01*
X126217924Y-123036312D01*
X126084312Y-123169924D01*
X126084312Y-123169925D01*
X126084310Y-123169927D01*
X126072424Y-123186287D01*
X125973240Y-123322800D01*
X125887454Y-123491163D01*
X125829059Y-123670881D01*
X125799500Y-123857513D01*
X121596500Y-123857513D01*
X121566940Y-123670881D01*
X121508545Y-123491163D01*
X121460178Y-123396239D01*
X121422760Y-123322801D01*
X121311690Y-123169927D01*
X121178073Y-123036310D01*
X121025199Y-122925240D01*
X120856836Y-122839454D01*
X120677118Y-122781059D01*
X120490486Y-122751500D01*
X120490481Y-122751500D01*
X120301519Y-122751500D01*
X120301514Y-122751500D01*
X120114881Y-122781059D01*
X119935163Y-122839454D01*
X119766800Y-122925240D01*
X119700084Y-122973713D01*
X119613927Y-123036310D01*
X119613925Y-123036312D01*
X119613924Y-123036312D01*
X119480312Y-123169924D01*
X119480312Y-123169925D01*
X119480310Y-123169927D01*
X119468424Y-123186287D01*
X119369240Y-123322800D01*
X119283454Y-123491163D01*
X119225059Y-123670881D01*
X119195500Y-123857513D01*
X106172500Y-123857513D01*
X106172500Y-118777513D01*
X119195500Y-118777513D01*
X119195500Y-118966486D01*
X119225059Y-119153118D01*
X119283454Y-119332836D01*
X119369240Y-119501199D01*
X119480310Y-119654073D01*
X119613927Y-119787690D01*
X119766801Y-119898760D01*
X119846347Y-119939290D01*
X119935163Y-119984545D01*
X119935165Y-119984545D01*
X119935168Y-119984547D01*
X120031497Y-120015846D01*
X120114881Y-120042940D01*
X120301514Y-120072500D01*
X120301519Y-120072500D01*
X120490486Y-120072500D01*
X120677118Y-120042940D01*
X120856832Y-119984547D01*
X121025199Y-119898760D01*
X121178073Y-119787690D01*
X121311690Y-119654073D01*
X121422760Y-119501199D01*
X121508547Y-119332832D01*
X121566940Y-119153118D01*
X121596500Y-118966486D01*
X121596500Y-118777513D01*
X125799500Y-118777513D01*
X125799500Y-118966486D01*
X125829059Y-119153118D01*
X125887454Y-119332836D01*
X125973240Y-119501199D01*
X126084310Y-119654073D01*
X126217927Y-119787690D01*
X126370801Y-119898760D01*
X126450347Y-119939290D01*
X126539163Y-119984545D01*
X126539165Y-119984545D01*
X126539168Y-119984547D01*
X126635497Y-120015846D01*
X126718881Y-120042940D01*
X126905514Y-120072500D01*
X126905519Y-120072500D01*
X127094486Y-120072500D01*
X127281118Y-120042940D01*
X127460832Y-119984547D01*
X127629199Y-119898760D01*
X127782073Y-119787690D01*
X127915690Y-119654073D01*
X128026760Y-119501199D01*
X128112547Y-119332832D01*
X128170940Y-119153118D01*
X128200500Y-118966486D01*
X128200500Y-118777513D01*
X129863500Y-118777513D01*
X129863500Y-118966486D01*
X129893059Y-119153118D01*
X129951454Y-119332836D01*
X130037240Y-119501199D01*
X130148310Y-119654073D01*
X130281927Y-119787690D01*
X130434801Y-119898760D01*
X130514347Y-119939290D01*
X130603163Y-119984545D01*
X130603165Y-119984545D01*
X130603168Y-119984547D01*
X130699497Y-120015846D01*
X130782881Y-120042940D01*
X130969514Y-120072500D01*
X130969519Y-120072500D01*
X131158486Y-120072500D01*
X131345118Y-120042940D01*
X131524832Y-119984547D01*
X131693199Y-119898760D01*
X131846073Y-119787690D01*
X131979690Y-119654073D01*
X132090760Y-119501199D01*
X132176547Y-119332832D01*
X132234940Y-119153118D01*
X132264500Y-118966486D01*
X132264500Y-118777513D01*
X136975500Y-118777513D01*
X136975500Y-118966486D01*
X137005059Y-119153118D01*
X137063454Y-119332836D01*
X137149240Y-119501199D01*
X137260310Y-119654073D01*
X137393927Y-119787690D01*
X137546801Y-119898760D01*
X137626347Y-119939290D01*
X137715163Y-119984545D01*
X137715165Y-119984545D01*
X137715168Y-119984547D01*
X137811497Y-120015846D01*
X137894881Y-120042940D01*
X138081514Y-120072500D01*
X138081519Y-120072500D01*
X138270486Y-120072500D01*
X138457118Y-120042940D01*
X138636832Y-119984547D01*
X138805199Y-119898760D01*
X138958073Y-119787690D01*
X139091690Y-119654073D01*
X139202760Y-119501199D01*
X139288547Y-119332832D01*
X139346940Y-119153118D01*
X139376500Y-118966486D01*
X139376500Y-118777513D01*
X139346940Y-118590881D01*
X139288545Y-118411163D01*
X139202759Y-118242800D01*
X139091690Y-118089927D01*
X138958073Y-117956310D01*
X138805199Y-117845240D01*
X138636836Y-117759454D01*
X138457118Y-117701059D01*
X138270486Y-117671500D01*
X138270481Y-117671500D01*
X138081519Y-117671500D01*
X138081514Y-117671500D01*
X137894881Y-117701059D01*
X137715163Y-117759454D01*
X137546800Y-117845240D01*
X137480084Y-117893713D01*
X137393927Y-117956310D01*
X137393925Y-117956312D01*
X137393924Y-117956312D01*
X137260312Y-118089924D01*
X137260312Y-118089925D01*
X137260310Y-118089927D01*
X137248424Y-118106287D01*
X137149240Y-118242800D01*
X137063454Y-118411163D01*
X137005059Y-118590881D01*
X136975500Y-118777513D01*
X132264500Y-118777513D01*
X132234940Y-118590881D01*
X132176545Y-118411163D01*
X132090759Y-118242800D01*
X131979690Y-118089927D01*
X131846073Y-117956310D01*
X131693199Y-117845240D01*
X131524836Y-117759454D01*
X131345118Y-117701059D01*
X131158486Y-117671500D01*
X131158481Y-117671500D01*
X130969519Y-117671500D01*
X130969514Y-117671500D01*
X130782881Y-117701059D01*
X130603163Y-117759454D01*
X130434800Y-117845240D01*
X130368084Y-117893713D01*
X130281927Y-117956310D01*
X130281925Y-117956312D01*
X130281924Y-117956312D01*
X130148312Y-118089924D01*
X130148312Y-118089925D01*
X130148310Y-118089927D01*
X130136424Y-118106287D01*
X130037240Y-118242800D01*
X129951454Y-118411163D01*
X129893059Y-118590881D01*
X129863500Y-118777513D01*
X128200500Y-118777513D01*
X128170940Y-118590881D01*
X128112545Y-118411163D01*
X128026759Y-118242800D01*
X127915690Y-118089927D01*
X127782073Y-117956310D01*
X127629199Y-117845240D01*
X127460836Y-117759454D01*
X127281118Y-117701059D01*
X127094486Y-117671500D01*
X127094481Y-117671500D01*
X126905519Y-117671500D01*
X126905514Y-117671500D01*
X126718881Y-117701059D01*
X126539163Y-117759454D01*
X126370800Y-117845240D01*
X126304084Y-117893713D01*
X126217927Y-117956310D01*
X126217925Y-117956312D01*
X126217924Y-117956312D01*
X126084312Y-118089924D01*
X126084312Y-118089925D01*
X126084310Y-118089927D01*
X126072424Y-118106287D01*
X125973240Y-118242800D01*
X125887454Y-118411163D01*
X125829059Y-118590881D01*
X125799500Y-118777513D01*
X121596500Y-118777513D01*
X121566940Y-118590881D01*
X121508545Y-118411163D01*
X121422759Y-118242800D01*
X121311690Y-118089927D01*
X121178073Y-117956310D01*
X121025199Y-117845240D01*
X120856836Y-117759454D01*
X120677118Y-117701059D01*
X120490486Y-117671500D01*
X120490481Y-117671500D01*
X120301519Y-117671500D01*
X120301514Y-117671500D01*
X120114881Y-117701059D01*
X119935163Y-117759454D01*
X119766800Y-117845240D01*
X119700084Y-117893713D01*
X119613927Y-117956310D01*
X119613925Y-117956312D01*
X119613924Y-117956312D01*
X119480312Y-118089924D01*
X119480312Y-118089925D01*
X119480310Y-118089927D01*
X119468424Y-118106287D01*
X119369240Y-118242800D01*
X119283454Y-118411163D01*
X119225059Y-118590881D01*
X119195500Y-118777513D01*
X106172500Y-118777513D01*
X106172500Y-103291935D01*
X122601500Y-103291935D01*
X122601500Y-105087670D01*
X122601501Y-105087676D01*
X122607908Y-105147283D01*
X122658202Y-105282128D01*
X122658206Y-105282135D01*
X122744452Y-105397344D01*
X122744455Y-105397347D01*
X122859664Y-105483593D01*
X122859671Y-105483597D01*
X122991082Y-105532610D01*
X123047016Y-105574481D01*
X123071433Y-105639945D01*
X123056582Y-105708218D01*
X123035431Y-105736473D01*
X122921889Y-105850015D01*
X122796951Y-106021979D01*
X122700444Y-106211385D01*
X122634753Y-106413560D01*
X122601500Y-106623513D01*
X122601500Y-106836087D01*
X122634754Y-107046043D01*
X122665554Y-107140836D01*
X122700444Y-107248214D01*
X122796951Y-107437620D01*
X122921890Y-107609586D01*
X123072213Y-107759909D01*
X123244182Y-107884850D01*
X123252946Y-107889316D01*
X123303742Y-107937291D01*
X123320536Y-108005112D01*
X123297998Y-108071247D01*
X123252946Y-108110284D01*
X123244182Y-108114749D01*
X123072213Y-108239690D01*
X122921890Y-108390013D01*
X122796951Y-108561979D01*
X122700444Y-108751385D01*
X122634753Y-108953560D01*
X122601500Y-109163513D01*
X122601500Y-109376087D01*
X122634754Y-109586043D01*
X122662741Y-109672179D01*
X122700444Y-109788214D01*
X122796951Y-109977620D01*
X122921890Y-110149586D01*
X123072213Y-110299909D01*
X123244182Y-110424850D01*
X123252946Y-110429316D01*
X123303742Y-110477291D01*
X123320536Y-110545112D01*
X123297998Y-110611247D01*
X123252946Y-110650284D01*
X123244182Y-110654749D01*
X123072213Y-110779690D01*
X122921890Y-110930013D01*
X122796951Y-111101979D01*
X122700444Y-111291385D01*
X122634753Y-111493560D01*
X122601500Y-111703513D01*
X122601500Y-111916087D01*
X122634754Y-112126043D01*
X122662741Y-112212179D01*
X122700444Y-112328214D01*
X122796951Y-112517620D01*
X122921890Y-112689586D01*
X123072213Y-112839909D01*
X123244182Y-112964850D01*
X123252946Y-112969316D01*
X123303742Y-113017291D01*
X123320536Y-113085112D01*
X123297998Y-113151247D01*
X123252946Y-113190284D01*
X123244182Y-113194749D01*
X123072213Y-113319690D01*
X122921890Y-113470013D01*
X122796951Y-113641979D01*
X122700444Y-113831385D01*
X122634753Y-114033560D01*
X122601500Y-114243513D01*
X122601500Y-114456087D01*
X122634754Y-114666043D01*
X122662741Y-114752179D01*
X122700444Y-114868214D01*
X122796951Y-115057620D01*
X122921890Y-115229586D01*
X123072213Y-115379909D01*
X123244179Y-115504848D01*
X123244181Y-115504849D01*
X123244184Y-115504851D01*
X123433588Y-115601357D01*
X123635757Y-115667046D01*
X123845713Y-115700300D01*
X123845714Y-115700300D01*
X124058286Y-115700300D01*
X124058287Y-115700300D01*
X124268243Y-115667046D01*
X124470412Y-115601357D01*
X124659816Y-115504851D01*
X124681789Y-115488886D01*
X124831786Y-115379909D01*
X124831788Y-115379906D01*
X124831792Y-115379904D01*
X124982104Y-115229592D01*
X124982106Y-115229588D01*
X124982109Y-115229586D01*
X125107048Y-115057620D01*
X125107047Y-115057620D01*
X125107051Y-115057616D01*
X125203557Y-114868212D01*
X125269246Y-114666043D01*
X125302500Y-114456087D01*
X125302500Y-114243513D01*
X125269246Y-114033557D01*
X125203557Y-113831388D01*
X125107051Y-113641984D01*
X125107049Y-113641981D01*
X125107048Y-113641979D01*
X124982109Y-113470013D01*
X124831786Y-113319690D01*
X124659820Y-113194751D01*
X124659115Y-113194391D01*
X124651054Y-113190285D01*
X124600259Y-113142312D01*
X124583463Y-113074492D01*
X124605999Y-113008356D01*
X124651054Y-112969315D01*
X124659816Y-112964851D01*
X124722215Y-112919516D01*
X124831786Y-112839909D01*
X124831788Y-112839906D01*
X124831792Y-112839904D01*
X124982104Y-112689592D01*
X124982106Y-112689588D01*
X124982109Y-112689586D01*
X125107048Y-112517620D01*
X125107047Y-112517620D01*
X125107051Y-112517616D01*
X125203557Y-112328212D01*
X125269246Y-112126043D01*
X125302500Y-111916087D01*
X125302500Y-111703513D01*
X125269246Y-111493557D01*
X125203557Y-111291388D01*
X125107051Y-111101984D01*
X125107049Y-111101981D01*
X125107048Y-111101979D01*
X124982109Y-110930013D01*
X124831786Y-110779690D01*
X124659820Y-110654751D01*
X124659115Y-110654391D01*
X124651054Y-110650285D01*
X124600259Y-110602312D01*
X124583463Y-110534492D01*
X124605999Y-110468356D01*
X124651054Y-110429315D01*
X124659816Y-110424851D01*
X124722215Y-110379516D01*
X124831786Y-110299909D01*
X124831788Y-110299906D01*
X124831792Y-110299904D01*
X124982104Y-110149592D01*
X124982106Y-110149588D01*
X124982109Y-110149586D01*
X125107048Y-109977620D01*
X125107047Y-109977620D01*
X125107051Y-109977616D01*
X125203557Y-109788212D01*
X125269246Y-109586043D01*
X125302500Y-109376087D01*
X125302500Y-109163513D01*
X125269246Y-108953557D01*
X125203557Y-108751388D01*
X125107051Y-108561984D01*
X125107049Y-108561981D01*
X125107048Y-108561979D01*
X124982109Y-108390013D01*
X124831786Y-108239690D01*
X124659820Y-108114751D01*
X124659115Y-108114391D01*
X124651054Y-108110285D01*
X124600259Y-108062312D01*
X124583463Y-107994492D01*
X124605999Y-107928356D01*
X124651054Y-107889315D01*
X124659816Y-107884851D01*
X124722215Y-107839516D01*
X124831786Y-107759909D01*
X124831788Y-107759906D01*
X124831792Y-107759904D01*
X124982104Y-107609592D01*
X124982106Y-107609588D01*
X124982109Y-107609586D01*
X125107048Y-107437620D01*
X125107047Y-107437620D01*
X125107051Y-107437616D01*
X125203557Y-107248212D01*
X125269246Y-107046043D01*
X125302500Y-106836087D01*
X125302500Y-106623513D01*
X125294612Y-106573713D01*
X130221500Y-106573713D01*
X130221500Y-106786286D01*
X130249190Y-106961118D01*
X130254754Y-106996243D01*
X130301735Y-107140836D01*
X130320444Y-107198414D01*
X130416951Y-107387820D01*
X130541890Y-107559786D01*
X130692213Y-107710109D01*
X130864182Y-107835050D01*
X130872946Y-107839516D01*
X130923742Y-107887491D01*
X130940536Y-107955312D01*
X130917998Y-108021447D01*
X130872946Y-108060484D01*
X130864182Y-108064949D01*
X130692213Y-108189890D01*
X130541890Y-108340213D01*
X130416951Y-108512179D01*
X130320444Y-108701585D01*
X130254753Y-108903760D01*
X130221500Y-109113713D01*
X130221500Y-109326286D01*
X130249046Y-109500208D01*
X130254754Y-109536243D01*
X130298922Y-109672179D01*
X130320444Y-109738414D01*
X130416951Y-109927820D01*
X130541890Y-110099786D01*
X130692213Y-110250109D01*
X130864182Y-110375050D01*
X130872946Y-110379516D01*
X130923742Y-110427491D01*
X130940536Y-110495312D01*
X130917998Y-110561447D01*
X130872946Y-110600484D01*
X130864182Y-110604949D01*
X130692213Y-110729890D01*
X130541890Y-110880213D01*
X130416951Y-111052179D01*
X130320444Y-111241585D01*
X130254753Y-111443760D01*
X130221500Y-111653713D01*
X130221500Y-111866286D01*
X130249046Y-112040208D01*
X130254754Y-112076243D01*
X130298922Y-112212179D01*
X130320444Y-112278414D01*
X130416951Y-112467820D01*
X130541890Y-112639786D01*
X130692213Y-112790109D01*
X130864182Y-112915050D01*
X130872946Y-112919516D01*
X130923742Y-112967491D01*
X130940536Y-113035312D01*
X130917998Y-113101447D01*
X130872946Y-113140484D01*
X130864182Y-113144949D01*
X130692213Y-113269890D01*
X130541890Y-113420213D01*
X130416951Y-113592179D01*
X130320444Y-113781585D01*
X130254753Y-113983760D01*
X130221500Y-114193713D01*
X130221500Y-114406286D01*
X130249046Y-114580208D01*
X130254754Y-114616243D01*
X130298922Y-114752179D01*
X130320444Y-114818414D01*
X130416951Y-115007820D01*
X130541890Y-115179786D01*
X130692213Y-115330109D01*
X130864179Y-115455048D01*
X130864181Y-115455049D01*
X130864184Y-115455051D01*
X131053588Y-115551557D01*
X131255757Y-115617246D01*
X131465713Y-115650500D01*
X131465714Y-115650500D01*
X131678286Y-115650500D01*
X131678287Y-115650500D01*
X131888243Y-115617246D01*
X132090412Y-115551557D01*
X132279816Y-115455051D01*
X132419297Y-115353713D01*
X132451786Y-115330109D01*
X132451788Y-115330106D01*
X132451792Y-115330104D01*
X132602104Y-115179792D01*
X132602106Y-115179788D01*
X132602109Y-115179786D01*
X132727048Y-115007820D01*
X132727047Y-115007820D01*
X132727051Y-115007816D01*
X132823557Y-114818412D01*
X132889246Y-114616243D01*
X132922500Y-114406287D01*
X132922500Y-114193713D01*
X132889246Y-113983757D01*
X132823557Y-113781588D01*
X132727051Y-113592184D01*
X132727049Y-113592181D01*
X132727048Y-113592179D01*
X132602109Y-113420213D01*
X132451786Y-113269890D01*
X132279820Y-113144951D01*
X132279115Y-113144591D01*
X132271054Y-113140485D01*
X132220259Y-113092512D01*
X132203463Y-113024692D01*
X132225999Y-112958556D01*
X132271054Y-112919515D01*
X132279816Y-112915051D01*
X132419297Y-112813713D01*
X132451786Y-112790109D01*
X132451788Y-112790106D01*
X132451792Y-112790104D01*
X132602104Y-112639792D01*
X132602106Y-112639788D01*
X132602109Y-112639786D01*
X132727048Y-112467820D01*
X132727047Y-112467820D01*
X132727051Y-112467816D01*
X132823557Y-112278412D01*
X132889246Y-112076243D01*
X132922500Y-111866287D01*
X132922500Y-111653713D01*
X132889246Y-111443757D01*
X132823557Y-111241588D01*
X132727051Y-111052184D01*
X132727049Y-111052181D01*
X132727048Y-111052179D01*
X132602109Y-110880213D01*
X132451786Y-110729890D01*
X132279820Y-110604951D01*
X132279115Y-110604591D01*
X132271054Y-110600485D01*
X132220259Y-110552512D01*
X132203463Y-110484692D01*
X132225999Y-110418556D01*
X132271054Y-110379515D01*
X132279816Y-110375051D01*
X132419297Y-110273713D01*
X132451786Y-110250109D01*
X132451788Y-110250106D01*
X132451792Y-110250104D01*
X132602104Y-110099792D01*
X132602106Y-110099788D01*
X132602109Y-110099786D01*
X132727048Y-109927820D01*
X132727047Y-109927820D01*
X132727051Y-109927816D01*
X132823557Y-109738412D01*
X132889246Y-109536243D01*
X132922500Y-109326287D01*
X132922500Y-109113713D01*
X132889246Y-108903757D01*
X132823557Y-108701588D01*
X132727051Y-108512184D01*
X132727049Y-108512181D01*
X132727048Y-108512179D01*
X132602109Y-108340213D01*
X132451786Y-108189890D01*
X132279820Y-108064951D01*
X132279115Y-108064591D01*
X132271054Y-108060485D01*
X132220259Y-108012512D01*
X132203463Y-107944692D01*
X132225999Y-107878556D01*
X132271054Y-107839515D01*
X132279816Y-107835051D01*
X132419297Y-107733713D01*
X132451786Y-107710109D01*
X132451788Y-107710106D01*
X132451792Y-107710104D01*
X132602104Y-107559792D01*
X132602106Y-107559788D01*
X132602109Y-107559786D01*
X132727048Y-107387820D01*
X132727047Y-107387820D01*
X132727051Y-107387816D01*
X132823557Y-107198412D01*
X132889246Y-106996243D01*
X132922500Y-106786287D01*
X132922500Y-106573713D01*
X132889246Y-106363757D01*
X132823557Y-106161588D01*
X132727051Y-105972184D01*
X132727049Y-105972181D01*
X132727048Y-105972179D01*
X132602109Y-105800213D01*
X132488181Y-105686285D01*
X132454696Y-105624962D01*
X132459680Y-105555270D01*
X132501552Y-105499337D01*
X132532529Y-105482422D01*
X132664086Y-105433354D01*
X132664093Y-105433350D01*
X132779187Y-105347190D01*
X132779190Y-105347187D01*
X132865350Y-105232093D01*
X132865354Y-105232086D01*
X132915596Y-105097379D01*
X132915598Y-105097372D01*
X132921999Y-105037844D01*
X132922000Y-105037827D01*
X132922000Y-104390000D01*
X132005012Y-104390000D01*
X132037925Y-104332993D01*
X132072000Y-104205826D01*
X132072000Y-104074174D01*
X132037925Y-103947007D01*
X132005012Y-103890000D01*
X132922000Y-103890000D01*
X132922000Y-103242164D01*
X132921997Y-103242135D01*
X137841500Y-103242135D01*
X137841500Y-105037870D01*
X137841501Y-105037876D01*
X137847908Y-105097483D01*
X137898202Y-105232328D01*
X137898206Y-105232335D01*
X137984452Y-105347544D01*
X137984455Y-105347547D01*
X138099664Y-105433793D01*
X138099671Y-105433797D01*
X138231082Y-105482810D01*
X138287016Y-105524681D01*
X138311433Y-105590145D01*
X138296582Y-105658418D01*
X138275431Y-105686673D01*
X138161889Y-105800215D01*
X138036951Y-105972179D01*
X137940444Y-106161585D01*
X137874753Y-106363760D01*
X137841500Y-106573713D01*
X137841500Y-106786286D01*
X137869190Y-106961118D01*
X137874754Y-106996243D01*
X137921735Y-107140836D01*
X137940444Y-107198414D01*
X138036951Y-107387820D01*
X138161890Y-107559786D01*
X138312213Y-107710109D01*
X138484182Y-107835050D01*
X138492946Y-107839516D01*
X138543742Y-107887491D01*
X138560536Y-107955312D01*
X138537998Y-108021447D01*
X138492946Y-108060484D01*
X138484182Y-108064949D01*
X138312213Y-108189890D01*
X138161890Y-108340213D01*
X138036951Y-108512179D01*
X137940444Y-108701585D01*
X137874753Y-108903760D01*
X137841500Y-109113713D01*
X137841500Y-109326286D01*
X137869046Y-109500208D01*
X137874754Y-109536243D01*
X137918922Y-109672179D01*
X137940444Y-109738414D01*
X138036951Y-109927820D01*
X138161890Y-110099786D01*
X138312213Y-110250109D01*
X138484182Y-110375050D01*
X138492946Y-110379516D01*
X138543742Y-110427491D01*
X138560536Y-110495312D01*
X138537998Y-110561447D01*
X138492946Y-110600484D01*
X138484182Y-110604949D01*
X138312213Y-110729890D01*
X138161890Y-110880213D01*
X138036951Y-111052179D01*
X137940444Y-111241585D01*
X137874753Y-111443760D01*
X137841500Y-111653713D01*
X137841500Y-111866286D01*
X137869046Y-112040208D01*
X137874754Y-112076243D01*
X137918922Y-112212179D01*
X137940444Y-112278414D01*
X138036951Y-112467820D01*
X138161890Y-112639786D01*
X138312213Y-112790109D01*
X138484182Y-112915050D01*
X138492946Y-112919516D01*
X138543742Y-112967491D01*
X138560536Y-113035312D01*
X138537998Y-113101447D01*
X138492946Y-113140484D01*
X138484182Y-113144949D01*
X138312213Y-113269890D01*
X138161890Y-113420213D01*
X138036951Y-113592179D01*
X137940444Y-113781585D01*
X137874753Y-113983760D01*
X137841500Y-114193713D01*
X137841500Y-114406286D01*
X137869046Y-114580208D01*
X137874754Y-114616243D01*
X137918922Y-114752179D01*
X137940444Y-114818414D01*
X138036951Y-115007820D01*
X138161890Y-115179786D01*
X138312213Y-115330109D01*
X138484179Y-115455048D01*
X138484181Y-115455049D01*
X138484184Y-115455051D01*
X138673588Y-115551557D01*
X138875757Y-115617246D01*
X139085713Y-115650500D01*
X139085714Y-115650500D01*
X139298286Y-115650500D01*
X139298287Y-115650500D01*
X139508243Y-115617246D01*
X139710412Y-115551557D01*
X139899816Y-115455051D01*
X140039297Y-115353713D01*
X140071786Y-115330109D01*
X140071788Y-115330106D01*
X140071792Y-115330104D01*
X140222104Y-115179792D01*
X140222106Y-115179788D01*
X140222109Y-115179786D01*
X140347048Y-115007820D01*
X140347047Y-115007820D01*
X140347051Y-115007816D01*
X140443557Y-114818412D01*
X140509246Y-114616243D01*
X140542500Y-114406287D01*
X140542500Y-114193713D01*
X140509246Y-113983757D01*
X140443557Y-113781588D01*
X140347051Y-113592184D01*
X140347049Y-113592181D01*
X140347048Y-113592179D01*
X140222109Y-113420213D01*
X140071786Y-113269890D01*
X139899820Y-113144951D01*
X139899115Y-113144591D01*
X139891054Y-113140485D01*
X139840259Y-113092512D01*
X139823463Y-113024692D01*
X139845999Y-112958556D01*
X139891054Y-112919515D01*
X139899816Y-112915051D01*
X140039297Y-112813713D01*
X140071786Y-112790109D01*
X140071788Y-112790106D01*
X140071792Y-112790104D01*
X140222104Y-112639792D01*
X140222106Y-112639788D01*
X140222109Y-112639786D01*
X140347048Y-112467820D01*
X140347047Y-112467820D01*
X140347051Y-112467816D01*
X140443557Y-112278412D01*
X140509246Y-112076243D01*
X140542500Y-111866287D01*
X140542500Y-111653713D01*
X140509246Y-111443757D01*
X140443557Y-111241588D01*
X140347051Y-111052184D01*
X140347049Y-111052181D01*
X140347048Y-111052179D01*
X140222109Y-110880213D01*
X140071786Y-110729890D01*
X139899820Y-110604951D01*
X139899115Y-110604591D01*
X139891054Y-110600485D01*
X139840259Y-110552512D01*
X139823463Y-110484692D01*
X139845999Y-110418556D01*
X139891054Y-110379515D01*
X139899816Y-110375051D01*
X140039297Y-110273713D01*
X140071786Y-110250109D01*
X140071788Y-110250106D01*
X140071792Y-110250104D01*
X140222104Y-110099792D01*
X140222106Y-110099788D01*
X140222109Y-110099786D01*
X140347048Y-109927820D01*
X140347047Y-109927820D01*
X140347051Y-109927816D01*
X140443557Y-109738412D01*
X140509246Y-109536243D01*
X140542500Y-109326287D01*
X140542500Y-109113713D01*
X140509246Y-108903757D01*
X140443557Y-108701588D01*
X140347051Y-108512184D01*
X140347049Y-108512181D01*
X140347048Y-108512179D01*
X140222109Y-108340213D01*
X140071786Y-108189890D01*
X139899820Y-108064951D01*
X139899115Y-108064591D01*
X139891054Y-108060485D01*
X139840259Y-108012512D01*
X139823463Y-107944692D01*
X139845999Y-107878556D01*
X139891054Y-107839515D01*
X139899816Y-107835051D01*
X140039297Y-107733713D01*
X140071786Y-107710109D01*
X140071788Y-107710106D01*
X140071792Y-107710104D01*
X140222104Y-107559792D01*
X140222106Y-107559788D01*
X140222109Y-107559786D01*
X140347048Y-107387820D01*
X140347047Y-107387820D01*
X140347051Y-107387816D01*
X140443557Y-107198412D01*
X140509246Y-106996243D01*
X140542500Y-106786287D01*
X140542500Y-106573713D01*
X145461500Y-106573713D01*
X145461500Y-106786286D01*
X145489190Y-106961118D01*
X145494754Y-106996243D01*
X145541735Y-107140836D01*
X145560444Y-107198414D01*
X145656951Y-107387820D01*
X145781890Y-107559786D01*
X145932213Y-107710109D01*
X146104182Y-107835050D01*
X146112946Y-107839516D01*
X146163742Y-107887491D01*
X146180536Y-107955312D01*
X146157998Y-108021447D01*
X146112946Y-108060484D01*
X146104182Y-108064949D01*
X145932213Y-108189890D01*
X145781890Y-108340213D01*
X145656951Y-108512179D01*
X145560444Y-108701585D01*
X145494753Y-108903760D01*
X145461500Y-109113713D01*
X145461500Y-109326286D01*
X145489046Y-109500208D01*
X145494754Y-109536243D01*
X145538922Y-109672179D01*
X145560444Y-109738414D01*
X145656951Y-109927820D01*
X145781890Y-110099786D01*
X145932213Y-110250109D01*
X146104182Y-110375050D01*
X146112946Y-110379516D01*
X146163742Y-110427491D01*
X146180536Y-110495312D01*
X146157998Y-110561447D01*
X146112946Y-110600484D01*
X146104182Y-110604949D01*
X145932213Y-110729890D01*
X145781890Y-110880213D01*
X145656951Y-111052179D01*
X145560444Y-111241585D01*
X145494753Y-111443760D01*
X145461500Y-111653713D01*
X145461500Y-111866286D01*
X145489046Y-112040208D01*
X145494754Y-112076243D01*
X145538922Y-112212179D01*
X145560444Y-112278414D01*
X145656951Y-112467820D01*
X145781890Y-112639786D01*
X145932213Y-112790109D01*
X146104182Y-112915050D01*
X146112946Y-112919516D01*
X146163742Y-112967491D01*
X146180536Y-113035312D01*
X146157998Y-113101447D01*
X146112946Y-113140484D01*
X146104182Y-113144949D01*
X145932213Y-113269890D01*
X145781890Y-113420213D01*
X145656951Y-113592179D01*
X145560444Y-113781585D01*
X145494753Y-113983760D01*
X145461500Y-114193713D01*
X145461500Y-114406286D01*
X145489046Y-114580208D01*
X145494754Y-114616243D01*
X145538922Y-114752179D01*
X145560444Y-114818414D01*
X145656951Y-115007820D01*
X145781890Y-115179786D01*
X145932213Y-115330109D01*
X146104179Y-115455048D01*
X146104181Y-115455049D01*
X146104184Y-115455051D01*
X146293588Y-115551557D01*
X146495757Y-115617246D01*
X146705713Y-115650500D01*
X146705714Y-115650500D01*
X146918286Y-115650500D01*
X146918287Y-115650500D01*
X147128243Y-115617246D01*
X147330412Y-115551557D01*
X147519816Y-115455051D01*
X147659297Y-115353713D01*
X147691786Y-115330109D01*
X147691788Y-115330106D01*
X147691792Y-115330104D01*
X147842104Y-115179792D01*
X147842106Y-115179788D01*
X147842109Y-115179786D01*
X147967048Y-115007820D01*
X147967047Y-115007820D01*
X147967051Y-115007816D01*
X148063557Y-114818412D01*
X148129246Y-114616243D01*
X148162500Y-114406287D01*
X148162500Y-114193713D01*
X148129246Y-113983757D01*
X148063557Y-113781588D01*
X147967051Y-113592184D01*
X147967049Y-113592181D01*
X147967048Y-113592179D01*
X147842109Y-113420213D01*
X147691786Y-113269890D01*
X147519820Y-113144951D01*
X147519115Y-113144591D01*
X147511054Y-113140485D01*
X147460259Y-113092512D01*
X147443463Y-113024692D01*
X147465999Y-112958556D01*
X147511054Y-112919515D01*
X147519816Y-112915051D01*
X147659297Y-112813713D01*
X147691786Y-112790109D01*
X147691788Y-112790106D01*
X147691792Y-112790104D01*
X147714014Y-112767882D01*
X150221669Y-112767882D01*
X150221670Y-112767883D01*
X150247059Y-112786329D01*
X150415362Y-112872085D01*
X150594997Y-112930451D01*
X150781553Y-112960000D01*
X150970447Y-112960000D01*
X151157002Y-112930451D01*
X151336637Y-112872085D01*
X151504937Y-112786331D01*
X151530328Y-112767883D01*
X151530328Y-112767882D01*
X150876001Y-112113554D01*
X150876000Y-112113554D01*
X150221669Y-112767882D01*
X147714014Y-112767882D01*
X147842104Y-112639792D01*
X147967051Y-112467816D01*
X148063557Y-112278412D01*
X148129246Y-112076243D01*
X148162500Y-111866287D01*
X148162500Y-111665552D01*
X149676000Y-111665552D01*
X149676000Y-111854447D01*
X149705548Y-112041002D01*
X149763914Y-112220637D01*
X149849666Y-112388933D01*
X149868116Y-112414328D01*
X150522446Y-111760000D01*
X150522446Y-111759999D01*
X150476369Y-111713922D01*
X150526000Y-111713922D01*
X150526000Y-111806078D01*
X150549852Y-111895095D01*
X150595930Y-111974905D01*
X150661095Y-112040070D01*
X150740905Y-112086148D01*
X150829922Y-112110000D01*
X150922078Y-112110000D01*
X151011095Y-112086148D01*
X151090905Y-112040070D01*
X151156070Y-111974905D01*
X151202148Y-111895095D01*
X151226000Y-111806078D01*
X151226000Y-111759999D01*
X151229554Y-111759999D01*
X151229554Y-111760000D01*
X151883882Y-112414328D01*
X151883883Y-112414328D01*
X151902331Y-112388937D01*
X151988085Y-112220637D01*
X152046451Y-112041002D01*
X152076000Y-111854447D01*
X152076000Y-111665552D01*
X152046451Y-111478997D01*
X151988085Y-111299362D01*
X151902329Y-111131059D01*
X151883883Y-111105670D01*
X151883882Y-111105669D01*
X151229554Y-111759999D01*
X151226000Y-111759999D01*
X151226000Y-111713922D01*
X151202148Y-111624905D01*
X151156070Y-111545095D01*
X151090905Y-111479930D01*
X151011095Y-111433852D01*
X150922078Y-111410000D01*
X150829922Y-111410000D01*
X150740905Y-111433852D01*
X150661095Y-111479930D01*
X150595930Y-111545095D01*
X150549852Y-111624905D01*
X150526000Y-111713922D01*
X150476369Y-111713922D01*
X149868116Y-111105669D01*
X149868116Y-111105670D01*
X149849669Y-111131060D01*
X149763914Y-111299362D01*
X149705548Y-111478997D01*
X149676000Y-111665552D01*
X148162500Y-111665552D01*
X148162500Y-111653713D01*
X148129246Y-111443757D01*
X148063557Y-111241588D01*
X147967051Y-111052184D01*
X147967049Y-111052181D01*
X147967048Y-111052179D01*
X147842109Y-110880214D01*
X147842104Y-110880208D01*
X147714012Y-110752116D01*
X150221669Y-110752116D01*
X150876000Y-111406446D01*
X150876001Y-111406446D01*
X151530328Y-110752116D01*
X151504933Y-110733666D01*
X151336637Y-110647914D01*
X151157002Y-110589548D01*
X150970447Y-110560000D01*
X150781553Y-110560000D01*
X150594997Y-110589548D01*
X150415362Y-110647914D01*
X150247060Y-110733669D01*
X150221670Y-110752116D01*
X150221669Y-110752116D01*
X147714012Y-110752116D01*
X147691786Y-110729890D01*
X147519820Y-110604951D01*
X147519115Y-110604591D01*
X147511054Y-110600485D01*
X147460259Y-110552512D01*
X147443463Y-110484692D01*
X147465999Y-110418556D01*
X147511054Y-110379515D01*
X147519816Y-110375051D01*
X147659297Y-110273713D01*
X147691786Y-110250109D01*
X147691788Y-110250106D01*
X147691792Y-110250104D01*
X147842104Y-110099792D01*
X147842106Y-110099788D01*
X147842109Y-110099786D01*
X147967048Y-109927820D01*
X147967047Y-109927820D01*
X147967051Y-109927816D01*
X148063557Y-109738412D01*
X148129246Y-109536243D01*
X148162500Y-109326287D01*
X148162500Y-109113713D01*
X148129246Y-108903757D01*
X148063557Y-108701588D01*
X147967051Y-108512184D01*
X147967049Y-108512181D01*
X147967048Y-108512179D01*
X147842109Y-108340213D01*
X147691786Y-108189890D01*
X147519820Y-108064951D01*
X147519115Y-108064591D01*
X147511054Y-108060485D01*
X147460259Y-108012512D01*
X147443463Y-107944692D01*
X147465999Y-107878556D01*
X147511054Y-107839515D01*
X147519816Y-107835051D01*
X147659297Y-107733713D01*
X147691786Y-107710109D01*
X147691788Y-107710106D01*
X147691792Y-107710104D01*
X147842104Y-107559792D01*
X147842106Y-107559788D01*
X147842109Y-107559786D01*
X147967048Y-107387820D01*
X147967047Y-107387820D01*
X147967051Y-107387816D01*
X148063557Y-107198412D01*
X148129246Y-106996243D01*
X148162500Y-106786287D01*
X148162500Y-106585513D01*
X149675500Y-106585513D01*
X149675500Y-106774486D01*
X149705059Y-106961118D01*
X149763454Y-107140836D01*
X149849240Y-107309199D01*
X149960310Y-107462073D01*
X150093927Y-107595690D01*
X150246801Y-107706760D01*
X150326347Y-107747290D01*
X150415163Y-107792545D01*
X150415165Y-107792545D01*
X150415168Y-107792547D01*
X150511497Y-107823846D01*
X150594881Y-107850940D01*
X150781514Y-107880500D01*
X150781519Y-107880500D01*
X150970486Y-107880500D01*
X151157118Y-107850940D01*
X151192283Y-107839514D01*
X151336832Y-107792547D01*
X151505199Y-107706760D01*
X151658073Y-107595690D01*
X151791690Y-107462073D01*
X151902760Y-107309199D01*
X151988547Y-107140832D01*
X152046940Y-106961118D01*
X152066743Y-106836086D01*
X152076500Y-106774486D01*
X152076500Y-106585513D01*
X152046940Y-106398881D01*
X151988545Y-106219163D01*
X151902759Y-106050800D01*
X151871529Y-106007816D01*
X151791690Y-105897927D01*
X151658073Y-105764310D01*
X151505199Y-105653240D01*
X151450462Y-105625350D01*
X151336836Y-105567454D01*
X151157118Y-105509059D01*
X150970486Y-105479500D01*
X150970481Y-105479500D01*
X150781519Y-105479500D01*
X150781514Y-105479500D01*
X150594881Y-105509059D01*
X150415163Y-105567454D01*
X150246800Y-105653240D01*
X150182860Y-105699696D01*
X150093927Y-105764310D01*
X150093925Y-105764312D01*
X150093924Y-105764312D01*
X149960312Y-105897924D01*
X149960312Y-105897925D01*
X149960310Y-105897927D01*
X149912610Y-105963579D01*
X149849240Y-106050800D01*
X149763454Y-106219163D01*
X149705059Y-106398881D01*
X149675500Y-106585513D01*
X148162500Y-106585513D01*
X148162500Y-106573713D01*
X148129246Y-106363757D01*
X148063557Y-106161588D01*
X147967051Y-105972184D01*
X147967049Y-105972181D01*
X147967048Y-105972179D01*
X147842109Y-105800213D01*
X147728181Y-105686285D01*
X147694696Y-105624962D01*
X147699680Y-105555270D01*
X147741552Y-105499337D01*
X147772529Y-105482422D01*
X147904086Y-105433354D01*
X147904093Y-105433350D01*
X148019187Y-105347190D01*
X148019190Y-105347187D01*
X148105350Y-105232093D01*
X148105354Y-105232086D01*
X148155596Y-105097379D01*
X148155598Y-105097372D01*
X148161999Y-105037844D01*
X148162000Y-105037827D01*
X148162000Y-104390000D01*
X147245012Y-104390000D01*
X147277925Y-104332993D01*
X147312000Y-104205826D01*
X147312000Y-104074174D01*
X147277925Y-103947007D01*
X147245012Y-103890000D01*
X148162000Y-103890000D01*
X148162000Y-103242172D01*
X148161999Y-103242155D01*
X148155598Y-103182627D01*
X148155596Y-103182620D01*
X148105354Y-103047913D01*
X148105350Y-103047906D01*
X148019190Y-102932812D01*
X148019187Y-102932809D01*
X147904093Y-102846649D01*
X147904086Y-102846645D01*
X147769379Y-102796403D01*
X147769372Y-102796401D01*
X147709844Y-102790000D01*
X147062000Y-102790000D01*
X147062000Y-103706988D01*
X147004993Y-103674075D01*
X146877826Y-103640000D01*
X146746174Y-103640000D01*
X146619007Y-103674075D01*
X146562000Y-103706988D01*
X146562000Y-102790000D01*
X145914155Y-102790000D01*
X145854627Y-102796401D01*
X145854620Y-102796403D01*
X145719913Y-102846645D01*
X145719906Y-102846649D01*
X145604812Y-102932809D01*
X145604809Y-102932812D01*
X145518649Y-103047906D01*
X145518645Y-103047913D01*
X145468403Y-103182620D01*
X145468401Y-103182627D01*
X145462000Y-103242155D01*
X145462000Y-103890000D01*
X146378988Y-103890000D01*
X146346075Y-103947007D01*
X146312000Y-104074174D01*
X146312000Y-104205826D01*
X146346075Y-104332993D01*
X146378988Y-104390000D01*
X145462000Y-104390000D01*
X145462000Y-105037844D01*
X145468401Y-105097372D01*
X145468403Y-105097379D01*
X145518645Y-105232086D01*
X145518649Y-105232093D01*
X145604809Y-105347187D01*
X145604812Y-105347190D01*
X145719906Y-105433350D01*
X145719913Y-105433354D01*
X145851470Y-105482422D01*
X145907404Y-105524293D01*
X145931821Y-105589758D01*
X145916969Y-105658031D01*
X145895819Y-105686285D01*
X145781889Y-105800215D01*
X145656951Y-105972179D01*
X145560444Y-106161585D01*
X145494753Y-106363760D01*
X145461500Y-106573713D01*
X140542500Y-106573713D01*
X140509246Y-106363757D01*
X140443557Y-106161588D01*
X140347051Y-105972184D01*
X140347049Y-105972181D01*
X140347048Y-105972179D01*
X140222109Y-105800213D01*
X140108569Y-105686673D01*
X140075084Y-105625350D01*
X140080068Y-105555658D01*
X140121940Y-105499725D01*
X140152915Y-105482810D01*
X140284331Y-105433796D01*
X140399546Y-105347546D01*
X140485796Y-105232331D01*
X140536091Y-105097483D01*
X140542500Y-105037873D01*
X140542499Y-103242128D01*
X140536091Y-103182517D01*
X140504368Y-103097464D01*
X140485797Y-103047671D01*
X140485793Y-103047664D01*
X140399547Y-102932455D01*
X140399544Y-102932452D01*
X140284335Y-102846206D01*
X140284328Y-102846202D01*
X140149482Y-102795908D01*
X140149483Y-102795908D01*
X140089883Y-102789501D01*
X140089881Y-102789500D01*
X140089873Y-102789500D01*
X140089864Y-102789500D01*
X138294129Y-102789500D01*
X138294123Y-102789501D01*
X138234516Y-102795908D01*
X138099671Y-102846202D01*
X138099664Y-102846206D01*
X137984455Y-102932452D01*
X137984452Y-102932455D01*
X137898206Y-103047664D01*
X137898202Y-103047671D01*
X137847908Y-103182517D01*
X137841501Y-103242116D01*
X137841501Y-103242123D01*
X137841500Y-103242135D01*
X132921997Y-103242135D01*
X132915598Y-103182627D01*
X132915596Y-103182620D01*
X132865354Y-103047913D01*
X132865350Y-103047906D01*
X132779190Y-102932812D01*
X132779187Y-102932809D01*
X132664093Y-102846649D01*
X132664086Y-102846645D01*
X132529379Y-102796403D01*
X132529372Y-102796401D01*
X132469844Y-102790000D01*
X131822000Y-102790000D01*
X131822000Y-103706988D01*
X131764993Y-103674075D01*
X131637826Y-103640000D01*
X131506174Y-103640000D01*
X131379007Y-103674075D01*
X131322000Y-103706988D01*
X131322000Y-102790000D01*
X130674155Y-102790000D01*
X130614627Y-102796401D01*
X130614620Y-102796403D01*
X130479913Y-102846645D01*
X130479906Y-102846649D01*
X130364812Y-102932809D01*
X130364809Y-102932812D01*
X130278649Y-103047906D01*
X130278645Y-103047913D01*
X130228403Y-103182620D01*
X130228401Y-103182627D01*
X130222000Y-103242155D01*
X130222000Y-103890000D01*
X131138988Y-103890000D01*
X131106075Y-103947007D01*
X131072000Y-104074174D01*
X131072000Y-104205826D01*
X131106075Y-104332993D01*
X131138988Y-104390000D01*
X130222000Y-104390000D01*
X130222000Y-105037844D01*
X130228401Y-105097372D01*
X130228403Y-105097379D01*
X130278645Y-105232086D01*
X130278649Y-105232093D01*
X130364809Y-105347187D01*
X130364812Y-105347190D01*
X130479906Y-105433350D01*
X130479913Y-105433354D01*
X130611470Y-105482422D01*
X130667404Y-105524293D01*
X130691821Y-105589758D01*
X130676969Y-105658031D01*
X130655819Y-105686285D01*
X130541889Y-105800215D01*
X130416951Y-105972179D01*
X130320444Y-106161585D01*
X130254753Y-106363760D01*
X130221500Y-106573713D01*
X125294612Y-106573713D01*
X125269246Y-106413557D01*
X125203557Y-106211388D01*
X125107051Y-106021984D01*
X125107049Y-106021981D01*
X125107048Y-106021979D01*
X124982109Y-105850013D01*
X124868569Y-105736473D01*
X124835084Y-105675150D01*
X124840068Y-105605458D01*
X124881940Y-105549525D01*
X124912915Y-105532610D01*
X125044331Y-105483596D01*
X125159546Y-105397346D01*
X125245796Y-105282131D01*
X125296091Y-105147283D01*
X125302500Y-105087673D01*
X125302499Y-103291928D01*
X125296091Y-103232317D01*
X125277555Y-103182620D01*
X125245797Y-103097471D01*
X125245793Y-103097464D01*
X125159547Y-102982255D01*
X125159544Y-102982252D01*
X125044335Y-102896006D01*
X125044328Y-102896002D01*
X124909482Y-102845708D01*
X124909483Y-102845708D01*
X124849883Y-102839301D01*
X124849881Y-102839300D01*
X124849873Y-102839300D01*
X124849864Y-102839300D01*
X123054129Y-102839300D01*
X123054123Y-102839301D01*
X122994516Y-102845708D01*
X122859671Y-102896002D01*
X122859664Y-102896006D01*
X122744455Y-102982252D01*
X122744452Y-102982255D01*
X122658206Y-103097464D01*
X122658202Y-103097471D01*
X122607908Y-103232317D01*
X122601501Y-103291916D01*
X122601501Y-103291925D01*
X122601500Y-103291935D01*
X106172500Y-103291935D01*
X106172500Y-101083882D01*
X146157669Y-101083882D01*
X146157670Y-101083883D01*
X146183059Y-101102329D01*
X146351362Y-101188085D01*
X146530997Y-101246451D01*
X146717553Y-101276000D01*
X146906447Y-101276000D01*
X147093002Y-101246451D01*
X147272637Y-101188085D01*
X147440937Y-101102331D01*
X147466328Y-101083883D01*
X147466328Y-101083882D01*
X146812001Y-100429554D01*
X146812000Y-100429554D01*
X146157669Y-101083882D01*
X106172500Y-101083882D01*
X106172500Y-99981552D01*
X145612000Y-99981552D01*
X145612000Y-100170447D01*
X145641548Y-100357002D01*
X145699914Y-100536637D01*
X145785666Y-100704933D01*
X145804116Y-100730328D01*
X146458446Y-100076000D01*
X146458446Y-100075999D01*
X146412369Y-100029922D01*
X146462000Y-100029922D01*
X146462000Y-100122078D01*
X146485852Y-100211095D01*
X146531930Y-100290905D01*
X146597095Y-100356070D01*
X146676905Y-100402148D01*
X146765922Y-100426000D01*
X146858078Y-100426000D01*
X146947095Y-100402148D01*
X147026905Y-100356070D01*
X147092070Y-100290905D01*
X147138148Y-100211095D01*
X147162000Y-100122078D01*
X147162000Y-100075999D01*
X147165554Y-100075999D01*
X147165554Y-100076000D01*
X147819882Y-100730328D01*
X147819883Y-100730328D01*
X147838331Y-100704937D01*
X147924085Y-100536637D01*
X147982451Y-100357002D01*
X148012000Y-100170447D01*
X148012000Y-99981552D01*
X147982451Y-99794997D01*
X147924085Y-99615362D01*
X147838329Y-99447059D01*
X147819883Y-99421670D01*
X147819882Y-99421669D01*
X147165554Y-100075999D01*
X147162000Y-100075999D01*
X147162000Y-100029922D01*
X147138148Y-99940905D01*
X147092070Y-99861095D01*
X147026905Y-99795930D01*
X146947095Y-99749852D01*
X146858078Y-99726000D01*
X146765922Y-99726000D01*
X146676905Y-99749852D01*
X146597095Y-99795930D01*
X146531930Y-99861095D01*
X146485852Y-99940905D01*
X146462000Y-100029922D01*
X146412369Y-100029922D01*
X145804116Y-99421669D01*
X145804116Y-99421670D01*
X145785669Y-99447060D01*
X145699914Y-99615362D01*
X145641548Y-99794997D01*
X145612000Y-99981552D01*
X106172500Y-99981552D01*
X106172500Y-99068116D01*
X146157669Y-99068116D01*
X146812000Y-99722446D01*
X146812001Y-99722446D01*
X147466328Y-99068116D01*
X147440933Y-99049666D01*
X147272637Y-98963914D01*
X147093002Y-98905548D01*
X146906447Y-98876000D01*
X146717553Y-98876000D01*
X146530997Y-98905548D01*
X146351362Y-98963914D01*
X146183060Y-99049669D01*
X146157670Y-99068116D01*
X146157669Y-99068116D01*
X106172500Y-99068116D01*
X106172500Y-88674335D01*
X122765700Y-88674335D01*
X122765700Y-90141670D01*
X122765701Y-90141676D01*
X122772108Y-90201283D01*
X122822402Y-90336128D01*
X122822406Y-90336135D01*
X122908652Y-90451344D01*
X122908655Y-90451347D01*
X123023864Y-90537593D01*
X123023871Y-90537597D01*
X123158717Y-90587891D01*
X123158716Y-90587891D01*
X123165644Y-90588635D01*
X123218327Y-90594300D01*
X123496412Y-90594299D01*
X123563449Y-90613983D01*
X123609204Y-90666787D01*
X123619148Y-90735946D01*
X123590123Y-90799501D01*
X123534730Y-90836229D01*
X123496618Y-90848612D01*
X123330242Y-90933385D01*
X123179176Y-91043142D01*
X123047142Y-91175176D01*
X122937385Y-91326242D01*
X122852614Y-91492616D01*
X122794910Y-91670210D01*
X122765700Y-91854636D01*
X122765700Y-92041364D01*
X122794911Y-92225793D01*
X122852613Y-92403381D01*
X122937385Y-92569757D01*
X123047141Y-92720822D01*
X123179178Y-92852859D01*
X123330243Y-92962615D01*
X123496619Y-93047387D01*
X123658758Y-93100069D01*
X123716434Y-93139507D01*
X123743632Y-93203865D01*
X123731717Y-93272712D01*
X123684473Y-93324187D01*
X123658760Y-93335929D01*
X123496619Y-93388613D01*
X123496616Y-93388614D01*
X123330242Y-93473385D01*
X123179176Y-93583142D01*
X123047142Y-93715176D01*
X122937385Y-93866242D01*
X122852614Y-94032616D01*
X122794910Y-94210210D01*
X122765700Y-94394636D01*
X122765700Y-94581363D01*
X122794910Y-94765789D01*
X122794910Y-94765791D01*
X122794911Y-94765793D01*
X122852613Y-94943381D01*
X122937385Y-95109757D01*
X123047141Y-95260822D01*
X123179178Y-95392859D01*
X123330243Y-95502615D01*
X123496619Y-95587387D01*
X123659568Y-95640332D01*
X123717241Y-95679768D01*
X123744440Y-95744127D01*
X123732526Y-95812973D01*
X123685281Y-95864449D01*
X123659567Y-95876193D01*
X123496806Y-95929077D01*
X123330502Y-96013814D01*
X123307836Y-96030282D01*
X123307835Y-96030282D01*
X123878275Y-96600721D01*
X123785331Y-96625626D01*
X123686869Y-96682474D01*
X123606474Y-96762869D01*
X123549626Y-96861331D01*
X123524722Y-96954275D01*
X122954282Y-96383835D01*
X122954282Y-96383836D01*
X122937814Y-96406502D01*
X122853077Y-96572808D01*
X122795397Y-96750327D01*
X122766200Y-96934669D01*
X122766200Y-97121330D01*
X122795397Y-97305672D01*
X122853077Y-97483191D01*
X122937811Y-97649491D01*
X122954282Y-97672162D01*
X123524721Y-97101723D01*
X123549626Y-97194669D01*
X123606474Y-97293131D01*
X123686869Y-97373526D01*
X123785331Y-97430374D01*
X123878275Y-97455278D01*
X123307835Y-98025716D01*
X123330504Y-98042186D01*
X123496808Y-98126922D01*
X123674327Y-98184602D01*
X123858670Y-98213800D01*
X124045330Y-98213800D01*
X124229672Y-98184602D01*
X124407191Y-98126922D01*
X124573496Y-98042186D01*
X124596162Y-98025717D01*
X124596162Y-98025716D01*
X124025724Y-97455277D01*
X124118669Y-97430374D01*
X124217131Y-97373526D01*
X124297526Y-97293131D01*
X124354374Y-97194669D01*
X124379278Y-97101724D01*
X124949716Y-97672162D01*
X124949717Y-97672162D01*
X124966186Y-97649496D01*
X125050922Y-97483191D01*
X125108602Y-97305672D01*
X125137800Y-97121330D01*
X125137800Y-96934669D01*
X125108602Y-96750327D01*
X125050922Y-96572808D01*
X124966186Y-96406504D01*
X124949716Y-96383836D01*
X124949716Y-96383835D01*
X124379277Y-96954274D01*
X124354374Y-96861331D01*
X124297526Y-96762869D01*
X124217131Y-96682474D01*
X124118669Y-96625626D01*
X124025724Y-96600722D01*
X124596162Y-96030282D01*
X124573491Y-96013811D01*
X124407193Y-95929077D01*
X124244432Y-95876193D01*
X124186757Y-95836755D01*
X124159559Y-95772396D01*
X124171474Y-95703550D01*
X124218718Y-95652074D01*
X124244424Y-95640335D01*
X124407381Y-95587387D01*
X124573757Y-95502615D01*
X124724822Y-95392859D01*
X124856859Y-95260822D01*
X124966615Y-95109757D01*
X125051387Y-94943381D01*
X125109089Y-94765793D01*
X125138300Y-94581364D01*
X125138300Y-94394636D01*
X125109089Y-94210207D01*
X125051387Y-94032619D01*
X124966615Y-93866243D01*
X124856859Y-93715178D01*
X124724822Y-93583141D01*
X124573757Y-93473385D01*
X124407381Y-93388613D01*
X124245239Y-93335929D01*
X124187566Y-93296494D01*
X124160367Y-93232135D01*
X124172282Y-93163289D01*
X124219526Y-93111813D01*
X124245236Y-93100071D01*
X124407381Y-93047387D01*
X124573757Y-92962615D01*
X124724822Y-92852859D01*
X124856859Y-92720822D01*
X124966615Y-92569757D01*
X125051387Y-92403381D01*
X125109089Y-92225793D01*
X125138300Y-92041364D01*
X125138300Y-91854636D01*
X125109089Y-91670207D01*
X125051387Y-91492619D01*
X124966615Y-91326243D01*
X124856859Y-91175178D01*
X124724822Y-91043141D01*
X124573757Y-90933385D01*
X124407381Y-90848613D01*
X124369267Y-90836229D01*
X124311593Y-90796793D01*
X124284395Y-90732434D01*
X124296310Y-90663588D01*
X124343554Y-90612112D01*
X124407586Y-90594299D01*
X124685672Y-90594299D01*
X124745283Y-90587891D01*
X124880131Y-90537596D01*
X124995346Y-90451346D01*
X125081596Y-90336131D01*
X125131891Y-90201283D01*
X125138300Y-90141673D01*
X125138299Y-89314636D01*
X130385700Y-89314636D01*
X130385700Y-89501364D01*
X130414911Y-89685793D01*
X130472613Y-89863381D01*
X130557385Y-90029757D01*
X130667141Y-90180822D01*
X130799178Y-90312859D01*
X130950243Y-90422615D01*
X131116619Y-90507387D01*
X131278758Y-90560069D01*
X131336434Y-90599507D01*
X131363632Y-90663865D01*
X131351717Y-90732712D01*
X131304473Y-90784187D01*
X131278760Y-90795929D01*
X131154733Y-90836229D01*
X131116616Y-90848614D01*
X130950242Y-90933385D01*
X130799176Y-91043142D01*
X130667142Y-91175176D01*
X130557385Y-91326242D01*
X130472614Y-91492616D01*
X130414910Y-91670210D01*
X130385700Y-91854636D01*
X130385700Y-92041364D01*
X130414911Y-92225793D01*
X130472613Y-92403381D01*
X130557385Y-92569757D01*
X130667141Y-92720822D01*
X130799178Y-92852859D01*
X130950243Y-92962615D01*
X131116619Y-93047387D01*
X131278758Y-93100069D01*
X131336434Y-93139507D01*
X131363632Y-93203865D01*
X131351717Y-93272712D01*
X131304473Y-93324187D01*
X131278760Y-93335929D01*
X131116619Y-93388613D01*
X131116616Y-93388614D01*
X130950242Y-93473385D01*
X130799176Y-93583142D01*
X130667142Y-93715176D01*
X130557385Y-93866242D01*
X130472614Y-94032616D01*
X130414910Y-94210210D01*
X130385700Y-94394636D01*
X130385700Y-94581363D01*
X130414910Y-94765789D01*
X130414910Y-94765791D01*
X130414911Y-94765793D01*
X130472613Y-94943381D01*
X130557385Y-95109757D01*
X130667141Y-95260822D01*
X130799178Y-95392859D01*
X130950243Y-95502615D01*
X131116619Y-95587387D01*
X131278758Y-95640069D01*
X131336434Y-95679507D01*
X131363632Y-95743865D01*
X131351717Y-95812712D01*
X131304473Y-95864187D01*
X131278760Y-95875929D01*
X131116619Y-95928613D01*
X131116616Y-95928614D01*
X130950242Y-96013385D01*
X130799176Y-96123142D01*
X130667142Y-96255176D01*
X130557385Y-96406242D01*
X130472614Y-96572616D01*
X130414910Y-96750210D01*
X130385700Y-96934636D01*
X130385700Y-97121363D01*
X130414891Y-97305672D01*
X130414911Y-97305793D01*
X130472613Y-97483381D01*
X130557385Y-97649757D01*
X130667141Y-97800822D01*
X130799178Y-97932859D01*
X130950243Y-98042615D01*
X131116619Y-98127387D01*
X131294207Y-98185089D01*
X131478636Y-98214300D01*
X131478637Y-98214300D01*
X131665363Y-98214300D01*
X131665364Y-98214300D01*
X131849793Y-98185089D01*
X132027381Y-98127387D01*
X132193757Y-98042615D01*
X132344822Y-97932859D01*
X132476859Y-97800822D01*
X132586615Y-97649757D01*
X132671387Y-97483381D01*
X132729089Y-97305793D01*
X132758300Y-97121364D01*
X132758300Y-96934636D01*
X132729089Y-96750207D01*
X132671387Y-96572619D01*
X132586615Y-96406243D01*
X132476859Y-96255178D01*
X132344822Y-96123141D01*
X132193757Y-96013385D01*
X132027381Y-95928613D01*
X131865239Y-95875929D01*
X131807566Y-95836494D01*
X131780367Y-95772135D01*
X131792282Y-95703289D01*
X131839526Y-95651813D01*
X131865236Y-95640071D01*
X132027381Y-95587387D01*
X132193757Y-95502615D01*
X132344822Y-95392859D01*
X132476859Y-95260822D01*
X132586615Y-95109757D01*
X132671387Y-94943381D01*
X132684991Y-94901513D01*
X145611500Y-94901513D01*
X145611500Y-95090486D01*
X145641059Y-95277118D01*
X145699454Y-95456836D01*
X145765973Y-95587385D01*
X145785240Y-95625199D01*
X145896310Y-95778073D01*
X146029927Y-95911690D01*
X146182801Y-96022760D01*
X146262347Y-96063290D01*
X146351163Y-96108545D01*
X146351165Y-96108545D01*
X146351168Y-96108547D01*
X146447497Y-96139846D01*
X146530881Y-96166940D01*
X146717514Y-96196500D01*
X146717519Y-96196500D01*
X146906486Y-96196500D01*
X147093118Y-96166940D01*
X147272832Y-96108547D01*
X147441199Y-96022760D01*
X147594073Y-95911690D01*
X147727690Y-95778073D01*
X147838760Y-95625199D01*
X147924547Y-95456832D01*
X147982940Y-95277118D01*
X147987823Y-95246286D01*
X148012500Y-95090486D01*
X148012500Y-94901513D01*
X147982940Y-94714881D01*
X147924545Y-94535163D01*
X147872072Y-94432179D01*
X147838760Y-94366801D01*
X147727690Y-94213927D01*
X147594073Y-94080310D01*
X147441199Y-93969240D01*
X147272836Y-93883454D01*
X147093118Y-93825059D01*
X146906486Y-93795500D01*
X146906481Y-93795500D01*
X146717519Y-93795500D01*
X146717514Y-93795500D01*
X146530881Y-93825059D01*
X146351163Y-93883454D01*
X146182800Y-93969240D01*
X146095579Y-94032610D01*
X146029927Y-94080310D01*
X146029925Y-94080312D01*
X146029924Y-94080312D01*
X145896312Y-94213924D01*
X145896312Y-94213925D01*
X145896310Y-94213927D01*
X145862685Y-94260208D01*
X145785240Y-94366800D01*
X145699454Y-94535163D01*
X145641059Y-94714881D01*
X145611500Y-94901513D01*
X132684991Y-94901513D01*
X132729089Y-94765793D01*
X132758300Y-94581364D01*
X132758300Y-94394636D01*
X132729089Y-94210207D01*
X132671387Y-94032619D01*
X132586615Y-93866243D01*
X132476859Y-93715178D01*
X132344822Y-93583141D01*
X132193757Y-93473385D01*
X132027381Y-93388613D01*
X131865239Y-93335929D01*
X131807566Y-93296494D01*
X131780367Y-93232135D01*
X131792282Y-93163289D01*
X131839526Y-93111813D01*
X131865236Y-93100071D01*
X132027381Y-93047387D01*
X132193757Y-92962615D01*
X132344822Y-92852859D01*
X132476859Y-92720822D01*
X132586615Y-92569757D01*
X132671387Y-92403381D01*
X132729089Y-92225793D01*
X132758300Y-92041364D01*
X132758300Y-91854636D01*
X132729089Y-91670207D01*
X132671387Y-91492619D01*
X132586615Y-91326243D01*
X132476859Y-91175178D01*
X132344822Y-91043141D01*
X132193757Y-90933385D01*
X132027381Y-90848613D01*
X131865239Y-90795929D01*
X131807566Y-90756494D01*
X131780367Y-90692135D01*
X131792282Y-90623289D01*
X131839526Y-90571813D01*
X131865236Y-90560071D01*
X132027381Y-90507387D01*
X132193757Y-90422615D01*
X132203024Y-90415882D01*
X135997669Y-90415882D01*
X135997670Y-90415883D01*
X136023059Y-90434329D01*
X136191362Y-90520085D01*
X136370997Y-90578451D01*
X136557553Y-90608000D01*
X136746447Y-90608000D01*
X136933002Y-90578451D01*
X137112637Y-90520085D01*
X137280937Y-90434331D01*
X137306328Y-90415883D01*
X137306328Y-90415882D01*
X136652001Y-89761554D01*
X136652000Y-89761554D01*
X135997669Y-90415882D01*
X132203024Y-90415882D01*
X132344822Y-90312859D01*
X132476859Y-90180822D01*
X132586615Y-90029757D01*
X132671387Y-89863381D01*
X132729089Y-89685793D01*
X132758300Y-89501364D01*
X132758300Y-89314636D01*
X132758128Y-89313552D01*
X135452000Y-89313552D01*
X135452000Y-89502447D01*
X135481548Y-89689002D01*
X135539914Y-89868637D01*
X135625666Y-90036933D01*
X135644116Y-90062328D01*
X136298446Y-89408000D01*
X136298446Y-89407999D01*
X136252369Y-89361922D01*
X136302000Y-89361922D01*
X136302000Y-89454078D01*
X136325852Y-89543095D01*
X136371930Y-89622905D01*
X136437095Y-89688070D01*
X136516905Y-89734148D01*
X136605922Y-89758000D01*
X136698078Y-89758000D01*
X136787095Y-89734148D01*
X136866905Y-89688070D01*
X136932070Y-89622905D01*
X136978148Y-89543095D01*
X137002000Y-89454078D01*
X137002000Y-89407999D01*
X137005554Y-89407999D01*
X137005554Y-89408000D01*
X137659882Y-90062328D01*
X137659883Y-90062328D01*
X137678331Y-90036937D01*
X137764085Y-89868637D01*
X137822451Y-89689002D01*
X137852000Y-89502447D01*
X137852000Y-89313552D01*
X137851994Y-89313513D01*
X140531500Y-89313513D01*
X140531500Y-89502486D01*
X140561059Y-89689118D01*
X140619454Y-89868836D01*
X140701448Y-90029757D01*
X140705240Y-90037199D01*
X140816310Y-90190073D01*
X140949927Y-90323690D01*
X141102801Y-90434760D01*
X141135355Y-90451347D01*
X141271163Y-90520545D01*
X141271165Y-90520545D01*
X141271168Y-90520547D01*
X141367497Y-90551846D01*
X141450881Y-90578940D01*
X141637514Y-90608500D01*
X141637519Y-90608500D01*
X141826486Y-90608500D01*
X142013118Y-90578940D01*
X142014743Y-90578412D01*
X142192832Y-90520547D01*
X142361199Y-90434760D01*
X142514073Y-90323690D01*
X142647690Y-90190073D01*
X142758760Y-90037199D01*
X142844547Y-89868832D01*
X142902940Y-89689118D01*
X142913427Y-89622905D01*
X142932500Y-89502486D01*
X142932500Y-89313513D01*
X143579500Y-89313513D01*
X143579500Y-89502486D01*
X143609059Y-89689118D01*
X143667454Y-89868836D01*
X143749448Y-90029757D01*
X143753240Y-90037199D01*
X143864310Y-90190073D01*
X143997927Y-90323690D01*
X144150801Y-90434760D01*
X144183355Y-90451347D01*
X144319163Y-90520545D01*
X144319165Y-90520545D01*
X144319168Y-90520547D01*
X144415497Y-90551846D01*
X144498881Y-90578940D01*
X144685514Y-90608500D01*
X144685519Y-90608500D01*
X144874486Y-90608500D01*
X145061118Y-90578940D01*
X145062743Y-90578412D01*
X145240832Y-90520547D01*
X145409199Y-90434760D01*
X145562073Y-90323690D01*
X145695690Y-90190073D01*
X145806760Y-90037199D01*
X145892547Y-89868832D01*
X145950940Y-89689118D01*
X145961427Y-89622905D01*
X145980500Y-89502486D01*
X145980500Y-89313513D01*
X148659500Y-89313513D01*
X148659500Y-89502486D01*
X148689059Y-89689118D01*
X148747454Y-89868836D01*
X148829448Y-90029757D01*
X148833240Y-90037199D01*
X148944310Y-90190073D01*
X149077927Y-90323690D01*
X149230801Y-90434760D01*
X149263355Y-90451347D01*
X149399163Y-90520545D01*
X149399165Y-90520545D01*
X149399168Y-90520547D01*
X149495497Y-90551846D01*
X149578881Y-90578940D01*
X149765514Y-90608500D01*
X149765519Y-90608500D01*
X149954486Y-90608500D01*
X150141118Y-90578940D01*
X150142743Y-90578412D01*
X150320832Y-90520547D01*
X150489199Y-90434760D01*
X150642073Y-90323690D01*
X150775690Y-90190073D01*
X150886760Y-90037199D01*
X150972547Y-89868832D01*
X151030940Y-89689118D01*
X151041427Y-89622905D01*
X151060500Y-89502486D01*
X151060500Y-89313513D01*
X151030940Y-89126881D01*
X150972545Y-88947163D01*
X150927290Y-88858347D01*
X150886760Y-88778801D01*
X150775690Y-88625927D01*
X150642073Y-88492310D01*
X150489199Y-88381240D01*
X150456647Y-88364654D01*
X150320836Y-88295454D01*
X150141118Y-88237059D01*
X149954486Y-88207500D01*
X149954481Y-88207500D01*
X149765519Y-88207500D01*
X149765514Y-88207500D01*
X149578881Y-88237059D01*
X149399163Y-88295454D01*
X149230800Y-88381240D01*
X149143579Y-88444610D01*
X149077927Y-88492310D01*
X149077925Y-88492312D01*
X149077924Y-88492312D01*
X148944312Y-88625924D01*
X148944312Y-88625925D01*
X148944310Y-88625927D01*
X148908621Y-88675048D01*
X148833240Y-88778800D01*
X148747454Y-88947163D01*
X148689059Y-89126881D01*
X148659500Y-89313513D01*
X145980500Y-89313513D01*
X145950940Y-89126881D01*
X145892545Y-88947163D01*
X145847290Y-88858347D01*
X145806760Y-88778801D01*
X145695690Y-88625927D01*
X145562073Y-88492310D01*
X145409199Y-88381240D01*
X145376647Y-88364654D01*
X145240836Y-88295454D01*
X145061118Y-88237059D01*
X144874486Y-88207500D01*
X144874481Y-88207500D01*
X144685519Y-88207500D01*
X144685514Y-88207500D01*
X144498881Y-88237059D01*
X144319163Y-88295454D01*
X144150800Y-88381240D01*
X144063579Y-88444610D01*
X143997927Y-88492310D01*
X143997925Y-88492312D01*
X143997924Y-88492312D01*
X143864312Y-88625924D01*
X143864312Y-88625925D01*
X143864310Y-88625927D01*
X143828621Y-88675048D01*
X143753240Y-88778800D01*
X143667454Y-88947163D01*
X143609059Y-89126881D01*
X143579500Y-89313513D01*
X142932500Y-89313513D01*
X142902940Y-89126881D01*
X142844545Y-88947163D01*
X142799290Y-88858347D01*
X142758760Y-88778801D01*
X142647690Y-88625927D01*
X142514073Y-88492310D01*
X142361199Y-88381240D01*
X142328647Y-88364654D01*
X142192836Y-88295454D01*
X142013118Y-88237059D01*
X141826486Y-88207500D01*
X141826481Y-88207500D01*
X141637519Y-88207500D01*
X141637514Y-88207500D01*
X141450881Y-88237059D01*
X141271163Y-88295454D01*
X141102800Y-88381240D01*
X141015579Y-88444610D01*
X140949927Y-88492310D01*
X140949925Y-88492312D01*
X140949924Y-88492312D01*
X140816312Y-88625924D01*
X140816312Y-88625925D01*
X140816310Y-88625927D01*
X140780621Y-88675048D01*
X140705240Y-88778800D01*
X140619454Y-88947163D01*
X140561059Y-89126881D01*
X140531500Y-89313513D01*
X137851994Y-89313513D01*
X137822451Y-89126997D01*
X137764085Y-88947362D01*
X137678329Y-88779059D01*
X137659883Y-88753670D01*
X137659882Y-88753669D01*
X137005554Y-89407999D01*
X137002000Y-89407999D01*
X137002000Y-89361922D01*
X136978148Y-89272905D01*
X136932070Y-89193095D01*
X136866905Y-89127930D01*
X136787095Y-89081852D01*
X136698078Y-89058000D01*
X136605922Y-89058000D01*
X136516905Y-89081852D01*
X136437095Y-89127930D01*
X136371930Y-89193095D01*
X136325852Y-89272905D01*
X136302000Y-89361922D01*
X136252369Y-89361922D01*
X135644116Y-88753669D01*
X135644116Y-88753670D01*
X135625669Y-88779060D01*
X135539914Y-88947362D01*
X135481548Y-89126997D01*
X135452000Y-89313552D01*
X132758128Y-89313552D01*
X132729089Y-89130207D01*
X132671387Y-88952619D01*
X132586615Y-88786243D01*
X132476859Y-88635178D01*
X132344822Y-88503141D01*
X132203021Y-88400116D01*
X135997669Y-88400116D01*
X136652000Y-89054446D01*
X136652001Y-89054446D01*
X137306328Y-88400116D01*
X137280933Y-88381666D01*
X137112637Y-88295914D01*
X136933002Y-88237548D01*
X136746447Y-88208000D01*
X136557553Y-88208000D01*
X136370997Y-88237548D01*
X136191362Y-88295914D01*
X136023060Y-88381669D01*
X135997670Y-88400116D01*
X135997669Y-88400116D01*
X132203021Y-88400116D01*
X132193757Y-88393385D01*
X132027381Y-88308613D01*
X131849793Y-88250911D01*
X131849791Y-88250910D01*
X131849789Y-88250910D01*
X131705822Y-88228108D01*
X131665364Y-88221700D01*
X131478636Y-88221700D01*
X131440022Y-88227816D01*
X131294210Y-88250910D01*
X131116616Y-88308614D01*
X130950242Y-88393385D01*
X130799176Y-88503142D01*
X130667142Y-88635176D01*
X130557385Y-88786242D01*
X130472614Y-88952616D01*
X130414910Y-89130210D01*
X130385878Y-89313513D01*
X130385700Y-89314636D01*
X125138299Y-89314636D01*
X125138299Y-88674328D01*
X125131891Y-88614717D01*
X125090276Y-88503142D01*
X125081597Y-88479871D01*
X125081593Y-88479864D01*
X124995347Y-88364655D01*
X124995344Y-88364652D01*
X124880135Y-88278406D01*
X124880128Y-88278402D01*
X124745282Y-88228108D01*
X124745283Y-88228108D01*
X124685683Y-88221701D01*
X124685681Y-88221700D01*
X124685673Y-88221700D01*
X124685664Y-88221700D01*
X123218329Y-88221700D01*
X123218323Y-88221701D01*
X123158716Y-88228108D01*
X123023871Y-88278402D01*
X123023864Y-88278406D01*
X122908655Y-88364652D01*
X122908652Y-88364655D01*
X122822406Y-88479864D01*
X122822402Y-88479871D01*
X122772108Y-88614717D01*
X122765701Y-88674316D01*
X122765701Y-88674323D01*
X122765700Y-88674335D01*
X106172500Y-88674335D01*
X106172500Y-84741513D01*
X143579500Y-84741513D01*
X143579500Y-84930486D01*
X143609059Y-85117118D01*
X143667454Y-85296836D01*
X143753240Y-85465199D01*
X143864310Y-85618073D01*
X143997927Y-85751690D01*
X144150801Y-85862760D01*
X144180482Y-85877883D01*
X144319163Y-85948545D01*
X144319165Y-85948545D01*
X144319168Y-85948547D01*
X144415497Y-85979846D01*
X144498881Y-86006940D01*
X144685514Y-86036500D01*
X144685519Y-86036500D01*
X144874486Y-86036500D01*
X145061118Y-86006940D01*
X145240832Y-85948547D01*
X145409199Y-85862760D01*
X145562073Y-85751690D01*
X145695690Y-85618073D01*
X145806760Y-85465199D01*
X145892547Y-85296832D01*
X145950940Y-85117118D01*
X145980500Y-84930486D01*
X145980500Y-84741513D01*
X148659500Y-84741513D01*
X148659500Y-84930486D01*
X148689059Y-85117118D01*
X148747454Y-85296836D01*
X148833240Y-85465199D01*
X148944310Y-85618073D01*
X149077927Y-85751690D01*
X149230801Y-85862760D01*
X149260482Y-85877883D01*
X149399163Y-85948545D01*
X149399165Y-85948545D01*
X149399168Y-85948547D01*
X149495497Y-85979846D01*
X149578881Y-86006940D01*
X149765514Y-86036500D01*
X149765519Y-86036500D01*
X149954486Y-86036500D01*
X150141118Y-86006940D01*
X150320832Y-85948547D01*
X150489199Y-85862760D01*
X150642073Y-85751690D01*
X150775690Y-85618073D01*
X150886760Y-85465199D01*
X150972547Y-85296832D01*
X151030940Y-85117118D01*
X151060500Y-84930486D01*
X151060500Y-84741513D01*
X151030940Y-84554881D01*
X150972545Y-84375163D01*
X150886757Y-84206796D01*
X150846723Y-84151695D01*
X150846722Y-84151694D01*
X150796184Y-84082135D01*
X154224500Y-84082135D01*
X154224500Y-85877870D01*
X154224501Y-85877876D01*
X154230908Y-85937483D01*
X154281202Y-86072328D01*
X154281206Y-86072335D01*
X154367452Y-86187544D01*
X154367455Y-86187547D01*
X154482664Y-86273793D01*
X154482671Y-86273797D01*
X154614082Y-86322810D01*
X154670016Y-86364681D01*
X154694433Y-86430145D01*
X154679582Y-86498418D01*
X154658431Y-86526673D01*
X154544889Y-86640215D01*
X154419951Y-86812179D01*
X154323444Y-87001585D01*
X154257753Y-87203760D01*
X154224500Y-87413713D01*
X154224500Y-87626286D01*
X154257753Y-87836239D01*
X154323444Y-88038414D01*
X154419951Y-88227820D01*
X154544890Y-88399786D01*
X154695213Y-88550109D01*
X154867182Y-88675050D01*
X154875946Y-88679516D01*
X154926742Y-88727491D01*
X154943536Y-88795312D01*
X154920998Y-88861447D01*
X154875946Y-88900484D01*
X154867182Y-88904949D01*
X154695213Y-89029890D01*
X154544890Y-89180213D01*
X154419951Y-89352179D01*
X154323444Y-89541585D01*
X154257753Y-89743760D01*
X154255498Y-89758000D01*
X154224500Y-89953713D01*
X154224500Y-90166287D01*
X154228267Y-90190073D01*
X154247714Y-90312857D01*
X154257754Y-90376243D01*
X154310181Y-90537597D01*
X154323444Y-90578414D01*
X154419951Y-90767820D01*
X154544890Y-90939786D01*
X154695213Y-91090109D01*
X154867182Y-91215050D01*
X154875946Y-91219516D01*
X154926742Y-91267491D01*
X154943536Y-91335312D01*
X154920998Y-91401447D01*
X154875946Y-91440484D01*
X154867182Y-91444949D01*
X154695213Y-91569890D01*
X154544890Y-91720213D01*
X154419951Y-91892179D01*
X154323444Y-92081585D01*
X154257753Y-92283760D01*
X154224500Y-92493713D01*
X154224500Y-92706286D01*
X154247714Y-92852857D01*
X154257754Y-92916243D01*
X154300365Y-93047387D01*
X154323444Y-93118414D01*
X154419951Y-93307820D01*
X154544890Y-93479786D01*
X154695213Y-93630109D01*
X154867182Y-93755050D01*
X154875946Y-93759516D01*
X154926742Y-93807491D01*
X154943536Y-93875312D01*
X154920998Y-93941447D01*
X154875946Y-93980484D01*
X154867182Y-93984949D01*
X154695213Y-94109890D01*
X154544890Y-94260213D01*
X154419951Y-94432179D01*
X154323444Y-94621585D01*
X154257753Y-94823760D01*
X154224500Y-95033713D01*
X154224500Y-95246286D01*
X154247714Y-95392857D01*
X154257754Y-95456243D01*
X154312651Y-95625199D01*
X154323444Y-95658414D01*
X154419951Y-95847820D01*
X154544890Y-96019786D01*
X154695213Y-96170109D01*
X154867182Y-96295050D01*
X154875946Y-96299516D01*
X154926742Y-96347491D01*
X154943536Y-96415312D01*
X154920998Y-96481447D01*
X154875946Y-96520484D01*
X154867182Y-96524949D01*
X154695213Y-96649890D01*
X154544890Y-96800213D01*
X154419951Y-96972179D01*
X154323444Y-97161585D01*
X154257753Y-97363760D01*
X154224500Y-97573713D01*
X154224500Y-97786286D01*
X154247714Y-97932857D01*
X154257754Y-97996243D01*
X154300365Y-98127387D01*
X154323444Y-98198414D01*
X154419951Y-98387820D01*
X154544890Y-98559786D01*
X154695213Y-98710109D01*
X154867182Y-98835050D01*
X154875946Y-98839516D01*
X154926742Y-98887491D01*
X154943536Y-98955312D01*
X154920998Y-99021447D01*
X154875946Y-99060484D01*
X154867182Y-99064949D01*
X154695213Y-99189890D01*
X154544890Y-99340213D01*
X154419951Y-99512179D01*
X154323444Y-99701585D01*
X154257753Y-99903760D01*
X154251870Y-99940905D01*
X154224500Y-100113713D01*
X154224500Y-100326287D01*
X154257754Y-100536243D01*
X154320816Y-100730328D01*
X154323444Y-100738414D01*
X154419951Y-100927820D01*
X154544890Y-101099786D01*
X154695213Y-101250109D01*
X154867182Y-101375050D01*
X154875946Y-101379516D01*
X154926742Y-101427491D01*
X154943536Y-101495312D01*
X154920998Y-101561447D01*
X154875946Y-101600484D01*
X154867182Y-101604949D01*
X154695213Y-101729890D01*
X154544890Y-101880213D01*
X154419951Y-102052179D01*
X154323444Y-102241585D01*
X154257753Y-102443760D01*
X154224500Y-102653713D01*
X154224500Y-102866287D01*
X154229207Y-102896004D01*
X154253228Y-103047671D01*
X154257754Y-103076243D01*
X154314895Y-103252105D01*
X154323444Y-103278414D01*
X154419951Y-103467820D01*
X154544890Y-103639786D01*
X154695213Y-103790109D01*
X154867182Y-103915050D01*
X154875946Y-103919516D01*
X154926742Y-103967491D01*
X154943536Y-104035312D01*
X154920998Y-104101447D01*
X154875946Y-104140484D01*
X154867182Y-104144949D01*
X154695213Y-104269890D01*
X154544890Y-104420213D01*
X154419951Y-104592179D01*
X154323444Y-104781585D01*
X154257753Y-104983760D01*
X154224500Y-105193713D01*
X154224500Y-105406286D01*
X154256045Y-105605458D01*
X154257754Y-105616243D01*
X154317530Y-105800215D01*
X154323444Y-105818414D01*
X154419951Y-106007820D01*
X154544890Y-106179786D01*
X154695213Y-106330109D01*
X154867182Y-106455050D01*
X154875946Y-106459516D01*
X154926742Y-106507491D01*
X154943536Y-106575312D01*
X154920998Y-106641447D01*
X154875946Y-106680484D01*
X154867182Y-106684949D01*
X154695213Y-106809890D01*
X154544890Y-106960213D01*
X154419951Y-107132179D01*
X154323444Y-107321585D01*
X154257753Y-107523760D01*
X154224500Y-107733713D01*
X154224500Y-107946287D01*
X154228009Y-107968443D01*
X154257753Y-108156239D01*
X154323444Y-108358414D01*
X154419951Y-108547820D01*
X154544890Y-108719786D01*
X154695213Y-108870109D01*
X154867182Y-108995050D01*
X154875946Y-108999516D01*
X154926742Y-109047491D01*
X154943536Y-109115312D01*
X154920998Y-109181447D01*
X154875946Y-109220484D01*
X154867182Y-109224949D01*
X154695213Y-109349890D01*
X154544890Y-109500213D01*
X154419951Y-109672179D01*
X154323444Y-109861585D01*
X154257753Y-110063760D01*
X154224500Y-110273713D01*
X154224500Y-110486287D01*
X154257754Y-110696243D01*
X154275908Y-110752116D01*
X154323444Y-110898414D01*
X154419951Y-111087820D01*
X154544890Y-111259786D01*
X154695213Y-111410109D01*
X154867182Y-111535050D01*
X154875946Y-111539516D01*
X154926742Y-111587491D01*
X154943536Y-111655312D01*
X154920998Y-111721447D01*
X154875946Y-111760484D01*
X154867182Y-111764949D01*
X154695213Y-111889890D01*
X154544890Y-112040213D01*
X154419951Y-112212179D01*
X154323444Y-112401585D01*
X154257753Y-112603760D01*
X154224500Y-112813713D01*
X154224500Y-113026287D01*
X154228009Y-113048443D01*
X154257753Y-113236239D01*
X154323444Y-113438414D01*
X154419951Y-113627820D01*
X154544890Y-113799786D01*
X154695213Y-113950109D01*
X154867182Y-114075050D01*
X154875946Y-114079516D01*
X154926742Y-114127491D01*
X154943536Y-114195312D01*
X154920998Y-114261447D01*
X154875946Y-114300484D01*
X154867182Y-114304949D01*
X154695213Y-114429890D01*
X154544890Y-114580213D01*
X154419951Y-114752179D01*
X154323444Y-114941585D01*
X154257753Y-115143760D01*
X154224500Y-115353713D01*
X154224500Y-115566286D01*
X154257753Y-115776239D01*
X154323444Y-115978414D01*
X154419951Y-116167820D01*
X154544890Y-116339786D01*
X154695213Y-116490109D01*
X154867182Y-116615050D01*
X154875946Y-116619516D01*
X154926742Y-116667491D01*
X154943536Y-116735312D01*
X154920998Y-116801447D01*
X154875946Y-116840484D01*
X154867182Y-116844949D01*
X154695213Y-116969890D01*
X154544890Y-117120213D01*
X154419951Y-117292179D01*
X154323444Y-117481585D01*
X154257753Y-117683760D01*
X154224500Y-117893713D01*
X154224500Y-118106286D01*
X154257753Y-118316239D01*
X154323444Y-118518414D01*
X154419951Y-118707820D01*
X154544890Y-118879786D01*
X154695213Y-119030109D01*
X154867182Y-119155050D01*
X154875946Y-119159516D01*
X154926742Y-119207491D01*
X154943536Y-119275312D01*
X154920998Y-119341447D01*
X154875946Y-119380484D01*
X154867182Y-119384949D01*
X154695213Y-119509890D01*
X154544890Y-119660213D01*
X154419951Y-119832179D01*
X154323444Y-120021585D01*
X154257753Y-120223760D01*
X154224500Y-120433713D01*
X154224500Y-120646286D01*
X154257753Y-120856239D01*
X154323444Y-121058414D01*
X154419951Y-121247820D01*
X154544890Y-121419786D01*
X154695213Y-121570109D01*
X154867182Y-121695050D01*
X154875946Y-121699516D01*
X154926742Y-121747491D01*
X154943536Y-121815312D01*
X154920998Y-121881447D01*
X154875946Y-121920484D01*
X154867182Y-121924949D01*
X154695213Y-122049890D01*
X154544890Y-122200213D01*
X154419951Y-122372179D01*
X154323444Y-122561585D01*
X154257753Y-122763760D01*
X154232177Y-122925240D01*
X154224500Y-122973713D01*
X154224500Y-123186287D01*
X154257754Y-123396243D01*
X154288660Y-123491362D01*
X154323444Y-123598414D01*
X154419951Y-123787820D01*
X154544890Y-123959786D01*
X154695213Y-124110109D01*
X154867182Y-124235050D01*
X154875946Y-124239516D01*
X154926742Y-124287491D01*
X154943536Y-124355312D01*
X154920998Y-124421447D01*
X154875946Y-124460484D01*
X154867182Y-124464949D01*
X154695213Y-124589890D01*
X154544890Y-124740213D01*
X154419951Y-124912179D01*
X154323444Y-125101585D01*
X154257753Y-125303760D01*
X154224500Y-125513713D01*
X154224500Y-125726286D01*
X154257753Y-125936239D01*
X154323444Y-126138414D01*
X154419951Y-126327820D01*
X154544890Y-126499786D01*
X154695213Y-126650109D01*
X154867182Y-126775050D01*
X154875946Y-126779516D01*
X154926742Y-126827491D01*
X154943536Y-126895312D01*
X154920998Y-126961447D01*
X154875946Y-127000484D01*
X154867182Y-127004949D01*
X154695213Y-127129890D01*
X154544890Y-127280213D01*
X154419951Y-127452179D01*
X154323444Y-127641585D01*
X154257753Y-127843760D01*
X154224500Y-128053713D01*
X154224500Y-128266286D01*
X154257753Y-128476239D01*
X154323444Y-128678414D01*
X154419951Y-128867820D01*
X154544890Y-129039786D01*
X154695213Y-129190109D01*
X154867182Y-129315050D01*
X154875946Y-129319516D01*
X154926742Y-129367491D01*
X154943536Y-129435312D01*
X154920998Y-129501447D01*
X154875946Y-129540484D01*
X154867182Y-129544949D01*
X154695213Y-129669890D01*
X154544890Y-129820213D01*
X154419951Y-129992179D01*
X154323444Y-130181585D01*
X154257753Y-130383760D01*
X154224500Y-130593713D01*
X154224500Y-130806286D01*
X154252010Y-130979981D01*
X154257754Y-131016243D01*
X154277764Y-131077828D01*
X154323444Y-131218414D01*
X154419951Y-131407820D01*
X154544890Y-131579786D01*
X154695213Y-131730109D01*
X154867182Y-131855050D01*
X154875946Y-131859516D01*
X154926742Y-131907491D01*
X154943536Y-131975312D01*
X154920998Y-132041447D01*
X154875946Y-132080484D01*
X154867182Y-132084949D01*
X154695213Y-132209890D01*
X154544890Y-132360213D01*
X154419951Y-132532179D01*
X154323444Y-132721585D01*
X154257753Y-132923760D01*
X154224500Y-133133713D01*
X154224500Y-133346286D01*
X154251582Y-133517279D01*
X154257754Y-133556243D01*
X154311843Y-133722712D01*
X154323444Y-133758414D01*
X154419951Y-133947820D01*
X154544890Y-134119786D01*
X154695213Y-134270109D01*
X154867182Y-134395050D01*
X154875946Y-134399516D01*
X154926742Y-134447491D01*
X154943536Y-134515312D01*
X154920998Y-134581447D01*
X154875946Y-134620484D01*
X154867182Y-134624949D01*
X154695213Y-134749890D01*
X154544890Y-134900213D01*
X154419951Y-135072179D01*
X154323444Y-135261585D01*
X154257753Y-135463760D01*
X154224500Y-135673713D01*
X154224500Y-135886286D01*
X154257753Y-136096239D01*
X154323444Y-136298414D01*
X154419951Y-136487820D01*
X154544890Y-136659786D01*
X154695213Y-136810109D01*
X154867179Y-136935048D01*
X154867181Y-136935049D01*
X154867184Y-136935051D01*
X154876493Y-136939794D01*
X154927290Y-136987766D01*
X154944087Y-137055587D01*
X154921552Y-137121722D01*
X154876505Y-137160760D01*
X154867446Y-137165376D01*
X154867440Y-137165380D01*
X154813282Y-137204727D01*
X154813282Y-137204728D01*
X155445591Y-137837037D01*
X155382007Y-137854075D01*
X155267993Y-137919901D01*
X155174901Y-138012993D01*
X155109075Y-138127007D01*
X155092037Y-138190591D01*
X154459728Y-137558282D01*
X154459727Y-137558282D01*
X154420380Y-137612439D01*
X154323904Y-137801782D01*
X154258242Y-138003869D01*
X154258242Y-138003872D01*
X154225000Y-138213753D01*
X154225000Y-138426246D01*
X154258242Y-138636127D01*
X154258242Y-138636130D01*
X154323904Y-138838217D01*
X154420375Y-139027550D01*
X154459728Y-139081716D01*
X155092037Y-138449408D01*
X155109075Y-138512993D01*
X155174901Y-138627007D01*
X155267993Y-138720099D01*
X155382007Y-138785925D01*
X155445590Y-138802962D01*
X154813282Y-139435269D01*
X154813282Y-139435270D01*
X154867449Y-139474624D01*
X155056782Y-139571095D01*
X155258870Y-139636757D01*
X155468754Y-139670000D01*
X155681246Y-139670000D01*
X155891127Y-139636757D01*
X155891130Y-139636757D01*
X156093217Y-139571095D01*
X156282554Y-139474622D01*
X156336716Y-139435270D01*
X156336717Y-139435270D01*
X155704408Y-138802962D01*
X155767993Y-138785925D01*
X155882007Y-138720099D01*
X155975099Y-138627007D01*
X156040925Y-138512993D01*
X156057962Y-138449408D01*
X156690270Y-139081717D01*
X156690270Y-139081716D01*
X156729622Y-139027554D01*
X156826095Y-138838217D01*
X156891757Y-138636130D01*
X156891757Y-138636127D01*
X156925000Y-138426246D01*
X156925000Y-138213753D01*
X156891757Y-138003872D01*
X156891757Y-138003869D01*
X156826095Y-137801782D01*
X156729624Y-137612449D01*
X156690270Y-137558282D01*
X156690269Y-137558282D01*
X156057962Y-138190590D01*
X156040925Y-138127007D01*
X155975099Y-138012993D01*
X155882007Y-137919901D01*
X155767993Y-137854075D01*
X155704409Y-137837037D01*
X156336716Y-137204728D01*
X156282547Y-137165373D01*
X156282547Y-137165372D01*
X156273500Y-137160763D01*
X156222706Y-137112788D01*
X156205912Y-137044966D01*
X156228451Y-136978832D01*
X156273508Y-136939793D01*
X156282816Y-136935051D01*
X156362007Y-136877515D01*
X156454786Y-136810109D01*
X156454788Y-136810106D01*
X156454792Y-136810104D01*
X156605104Y-136659792D01*
X156605106Y-136659788D01*
X156605109Y-136659786D01*
X156730048Y-136487820D01*
X156730047Y-136487820D01*
X156730051Y-136487816D01*
X156826557Y-136298412D01*
X156892246Y-136096243D01*
X156925500Y-135886287D01*
X156925500Y-135673713D01*
X156892246Y-135463757D01*
X156826557Y-135261588D01*
X156730051Y-135072184D01*
X156730049Y-135072181D01*
X156730048Y-135072179D01*
X156605109Y-134900213D01*
X156454786Y-134749890D01*
X156282820Y-134624951D01*
X156282115Y-134624591D01*
X156274054Y-134620485D01*
X156223259Y-134572512D01*
X156206463Y-134504692D01*
X156228999Y-134438556D01*
X156274054Y-134399515D01*
X156282816Y-134395051D01*
X156304789Y-134379086D01*
X156454786Y-134270109D01*
X156454788Y-134270106D01*
X156454792Y-134270104D01*
X156605104Y-134119792D01*
X156605106Y-134119788D01*
X156605109Y-134119786D01*
X156730048Y-133947820D01*
X156730047Y-133947820D01*
X156730051Y-133947816D01*
X156826557Y-133758412D01*
X156892246Y-133556243D01*
X156925500Y-133346287D01*
X156925500Y-133133713D01*
X156892246Y-132923757D01*
X156826557Y-132721588D01*
X156730051Y-132532184D01*
X156730049Y-132532181D01*
X156730048Y-132532179D01*
X156605109Y-132360213D01*
X156454786Y-132209890D01*
X156282820Y-132084951D01*
X156282115Y-132084591D01*
X156274054Y-132080485D01*
X156223259Y-132032512D01*
X156206463Y-131964692D01*
X156228999Y-131898556D01*
X156274054Y-131859515D01*
X156282816Y-131855051D01*
X156304789Y-131839086D01*
X156454786Y-131730109D01*
X156454788Y-131730106D01*
X156454792Y-131730104D01*
X156605104Y-131579792D01*
X156605106Y-131579788D01*
X156605109Y-131579786D01*
X156730048Y-131407820D01*
X156730047Y-131407820D01*
X156730051Y-131407816D01*
X156826557Y-131218412D01*
X156892246Y-131016243D01*
X156925500Y-130806287D01*
X156925500Y-130593713D01*
X156892246Y-130383757D01*
X156826557Y-130181588D01*
X156730051Y-129992184D01*
X156730049Y-129992181D01*
X156730048Y-129992179D01*
X156605109Y-129820213D01*
X156454786Y-129669890D01*
X156282820Y-129544951D01*
X156282115Y-129544591D01*
X156274054Y-129540485D01*
X156223259Y-129492512D01*
X156206463Y-129424692D01*
X156228999Y-129358556D01*
X156274054Y-129319515D01*
X156282816Y-129315051D01*
X156304789Y-129299086D01*
X156454786Y-129190109D01*
X156454788Y-129190106D01*
X156454792Y-129190104D01*
X156605104Y-129039792D01*
X156605106Y-129039788D01*
X156605109Y-129039786D01*
X156730048Y-128867820D01*
X156730047Y-128867820D01*
X156730051Y-128867816D01*
X156826557Y-128678412D01*
X156892246Y-128476243D01*
X156925500Y-128266287D01*
X156925500Y-128053713D01*
X156892246Y-127843757D01*
X156826557Y-127641588D01*
X156730051Y-127452184D01*
X156730049Y-127452181D01*
X156730048Y-127452179D01*
X156605109Y-127280213D01*
X156454786Y-127129890D01*
X156282820Y-127004951D01*
X156282115Y-127004591D01*
X156274054Y-127000485D01*
X156223259Y-126952512D01*
X156206463Y-126884692D01*
X156228999Y-126818556D01*
X156274054Y-126779515D01*
X156282816Y-126775051D01*
X156304789Y-126759086D01*
X156454786Y-126650109D01*
X156454788Y-126650106D01*
X156454792Y-126650104D01*
X156605104Y-126499792D01*
X156605106Y-126499788D01*
X156605109Y-126499786D01*
X156730048Y-126327820D01*
X156730047Y-126327820D01*
X156730051Y-126327816D01*
X156826557Y-126138412D01*
X156892246Y-125936243D01*
X156925500Y-125726287D01*
X156925500Y-125513713D01*
X156892246Y-125303757D01*
X156826557Y-125101588D01*
X156730051Y-124912184D01*
X156730049Y-124912181D01*
X156730048Y-124912179D01*
X156605109Y-124740213D01*
X156454786Y-124589890D01*
X156282820Y-124464951D01*
X156282115Y-124464591D01*
X156274054Y-124460485D01*
X156223259Y-124412512D01*
X156206463Y-124344692D01*
X156228999Y-124278556D01*
X156274054Y-124239515D01*
X156282816Y-124235051D01*
X156376612Y-124166905D01*
X156454786Y-124110109D01*
X156454788Y-124110106D01*
X156454792Y-124110104D01*
X156605104Y-123959792D01*
X156605106Y-123959788D01*
X156605109Y-123959786D01*
X156730048Y-123787820D01*
X156730047Y-123787820D01*
X156730051Y-123787816D01*
X156826557Y-123598412D01*
X156892246Y-123396243D01*
X156925500Y-123186287D01*
X156925500Y-122973713D01*
X156892246Y-122763757D01*
X156826557Y-122561588D01*
X156730051Y-122372184D01*
X156730049Y-122372181D01*
X156730048Y-122372179D01*
X156605109Y-122200213D01*
X156454786Y-122049890D01*
X156282820Y-121924951D01*
X156282115Y-121924591D01*
X156274054Y-121920485D01*
X156223259Y-121872512D01*
X156206463Y-121804692D01*
X156228999Y-121738556D01*
X156274054Y-121699515D01*
X156282816Y-121695051D01*
X156304789Y-121679086D01*
X156454786Y-121570109D01*
X156454788Y-121570106D01*
X156454792Y-121570104D01*
X156605104Y-121419792D01*
X156605106Y-121419788D01*
X156605109Y-121419786D01*
X156730048Y-121247820D01*
X156730047Y-121247820D01*
X156730051Y-121247816D01*
X156826557Y-121058412D01*
X156892246Y-120856243D01*
X156925500Y-120646287D01*
X156925500Y-120433713D01*
X156892246Y-120223757D01*
X156826557Y-120021588D01*
X156730051Y-119832184D01*
X156730049Y-119832181D01*
X156730048Y-119832179D01*
X156605109Y-119660213D01*
X156454786Y-119509890D01*
X156282820Y-119384951D01*
X156282115Y-119384591D01*
X156274054Y-119380485D01*
X156223259Y-119332512D01*
X156206463Y-119264692D01*
X156228999Y-119198556D01*
X156274054Y-119159515D01*
X156282816Y-119155051D01*
X156304789Y-119139086D01*
X156454786Y-119030109D01*
X156454788Y-119030106D01*
X156454792Y-119030104D01*
X156605104Y-118879792D01*
X156605106Y-118879788D01*
X156605109Y-118879786D01*
X156730048Y-118707820D01*
X156730047Y-118707820D01*
X156730051Y-118707816D01*
X156826557Y-118518412D01*
X156892246Y-118316243D01*
X156925500Y-118106287D01*
X156925500Y-117893713D01*
X156892246Y-117683757D01*
X156826557Y-117481588D01*
X156730051Y-117292184D01*
X156730049Y-117292181D01*
X156730048Y-117292179D01*
X156605109Y-117120213D01*
X156454786Y-116969890D01*
X156282820Y-116844951D01*
X156282115Y-116844591D01*
X156274054Y-116840485D01*
X156223259Y-116792512D01*
X156206463Y-116724692D01*
X156228999Y-116658556D01*
X156274054Y-116619515D01*
X156282816Y-116615051D01*
X156304789Y-116599086D01*
X156454786Y-116490109D01*
X156454788Y-116490106D01*
X156454792Y-116490104D01*
X156605104Y-116339792D01*
X156605106Y-116339788D01*
X156605109Y-116339786D01*
X156730048Y-116167820D01*
X156730047Y-116167820D01*
X156730051Y-116167816D01*
X156826557Y-115978412D01*
X156892246Y-115776243D01*
X156925500Y-115566287D01*
X156925500Y-115353713D01*
X156892246Y-115143757D01*
X156826557Y-114941588D01*
X156730051Y-114752184D01*
X156730049Y-114752181D01*
X156730048Y-114752179D01*
X156605109Y-114580213D01*
X156454786Y-114429890D01*
X156282820Y-114304951D01*
X156282115Y-114304591D01*
X156274054Y-114300485D01*
X156223259Y-114252512D01*
X156206463Y-114184692D01*
X156228999Y-114118556D01*
X156274054Y-114079515D01*
X156282816Y-114075051D01*
X156339928Y-114033557D01*
X156454786Y-113950109D01*
X156454788Y-113950106D01*
X156454792Y-113950104D01*
X156605104Y-113799792D01*
X156605106Y-113799788D01*
X156605109Y-113799786D01*
X156730048Y-113627820D01*
X156730047Y-113627820D01*
X156730051Y-113627816D01*
X156826557Y-113438412D01*
X156892246Y-113236243D01*
X156925500Y-113026287D01*
X156925500Y-112813713D01*
X156892246Y-112603757D01*
X156826557Y-112401588D01*
X156730051Y-112212184D01*
X156730049Y-112212181D01*
X156730048Y-112212179D01*
X156605109Y-112040213D01*
X156454786Y-111889890D01*
X156282820Y-111764951D01*
X156282115Y-111764591D01*
X156274054Y-111760485D01*
X156223259Y-111712512D01*
X156206463Y-111644692D01*
X156228999Y-111578556D01*
X156274054Y-111539515D01*
X156282816Y-111535051D01*
X156358684Y-111479930D01*
X156454786Y-111410109D01*
X156454788Y-111410106D01*
X156454792Y-111410104D01*
X156605104Y-111259792D01*
X156605106Y-111259788D01*
X156605109Y-111259786D01*
X156730048Y-111087820D01*
X156730047Y-111087820D01*
X156730051Y-111087816D01*
X156826557Y-110898412D01*
X156892246Y-110696243D01*
X156925500Y-110486287D01*
X156925500Y-110273713D01*
X156892246Y-110063757D01*
X156826557Y-109861588D01*
X156730051Y-109672184D01*
X156730049Y-109672181D01*
X156730048Y-109672179D01*
X156605109Y-109500213D01*
X156454786Y-109349890D01*
X156282820Y-109224951D01*
X156282115Y-109224591D01*
X156274054Y-109220485D01*
X156223259Y-109172512D01*
X156206463Y-109104692D01*
X156228999Y-109038556D01*
X156274054Y-108999515D01*
X156282816Y-108995051D01*
X156339928Y-108953557D01*
X156454786Y-108870109D01*
X156454788Y-108870106D01*
X156454792Y-108870104D01*
X156605104Y-108719792D01*
X156605106Y-108719788D01*
X156605109Y-108719786D01*
X156730048Y-108547820D01*
X156730047Y-108547820D01*
X156730051Y-108547816D01*
X156826557Y-108358412D01*
X156892246Y-108156243D01*
X156925500Y-107946287D01*
X156925500Y-107733713D01*
X156892246Y-107523757D01*
X156826557Y-107321588D01*
X156730051Y-107132184D01*
X156730049Y-107132181D01*
X156730048Y-107132179D01*
X156605109Y-106960213D01*
X156454786Y-106809890D01*
X156282820Y-106684951D01*
X156282115Y-106684591D01*
X156274054Y-106680485D01*
X156223259Y-106632512D01*
X156206463Y-106564692D01*
X156228999Y-106498556D01*
X156274054Y-106459515D01*
X156282816Y-106455051D01*
X156360128Y-106398881D01*
X156454786Y-106330109D01*
X156454788Y-106330106D01*
X156454792Y-106330104D01*
X156605104Y-106179792D01*
X156605106Y-106179788D01*
X156605109Y-106179786D01*
X156730048Y-106007820D01*
X156730047Y-106007820D01*
X156730051Y-106007816D01*
X156826557Y-105818412D01*
X156892246Y-105616243D01*
X156925500Y-105406287D01*
X156925500Y-105193713D01*
X156892246Y-104983757D01*
X156826557Y-104781588D01*
X156730051Y-104592184D01*
X156730049Y-104592181D01*
X156730048Y-104592179D01*
X156605109Y-104420213D01*
X156454786Y-104269890D01*
X156282820Y-104144951D01*
X156282115Y-104144591D01*
X156274054Y-104140485D01*
X156223259Y-104092512D01*
X156206463Y-104024692D01*
X156228999Y-103958556D01*
X156274054Y-103919515D01*
X156282816Y-103915051D01*
X156395760Y-103832993D01*
X156454786Y-103790109D01*
X156454788Y-103790106D01*
X156454792Y-103790104D01*
X156605104Y-103639792D01*
X156605106Y-103639788D01*
X156605109Y-103639786D01*
X156730048Y-103467820D01*
X156730047Y-103467820D01*
X156730051Y-103467816D01*
X156826557Y-103278412D01*
X156892246Y-103076243D01*
X156925500Y-102866287D01*
X156925500Y-102653713D01*
X156892246Y-102443757D01*
X156826557Y-102241588D01*
X156730051Y-102052184D01*
X156730049Y-102052181D01*
X156730048Y-102052179D01*
X156605109Y-101880213D01*
X156454786Y-101729890D01*
X156282820Y-101604951D01*
X156282115Y-101604591D01*
X156274054Y-101600485D01*
X156223259Y-101552512D01*
X156206463Y-101484692D01*
X156228999Y-101418556D01*
X156274054Y-101379515D01*
X156282816Y-101375051D01*
X156304789Y-101359086D01*
X156454786Y-101250109D01*
X156454788Y-101250106D01*
X156454792Y-101250104D01*
X156605104Y-101099792D01*
X156605104Y-101099791D01*
X156605109Y-101099787D01*
X156605109Y-101099786D01*
X156730048Y-100927820D01*
X156730047Y-100927820D01*
X156730051Y-100927816D01*
X156826557Y-100738412D01*
X156892246Y-100536243D01*
X156925500Y-100326287D01*
X156925500Y-100113713D01*
X156892246Y-99903757D01*
X156826557Y-99701588D01*
X156730051Y-99512184D01*
X156730049Y-99512181D01*
X156730048Y-99512179D01*
X156605109Y-99340213D01*
X156454786Y-99189890D01*
X156282820Y-99064951D01*
X156282115Y-99064591D01*
X156274054Y-99060485D01*
X156223259Y-99012512D01*
X156206463Y-98944692D01*
X156228999Y-98878556D01*
X156274054Y-98839515D01*
X156282816Y-98835051D01*
X156304789Y-98819086D01*
X156454786Y-98710109D01*
X156454788Y-98710106D01*
X156454792Y-98710104D01*
X156605104Y-98559792D01*
X156605106Y-98559788D01*
X156605109Y-98559786D01*
X156730048Y-98387820D01*
X156730047Y-98387820D01*
X156730051Y-98387816D01*
X156826557Y-98198412D01*
X156892246Y-97996243D01*
X156925500Y-97786287D01*
X156925500Y-97573713D01*
X156892246Y-97363757D01*
X156826557Y-97161588D01*
X156730051Y-96972184D01*
X156730049Y-96972181D01*
X156730048Y-96972179D01*
X156605109Y-96800213D01*
X156454786Y-96649890D01*
X156282820Y-96524951D01*
X156282115Y-96524591D01*
X156274054Y-96520485D01*
X156223259Y-96472512D01*
X156206463Y-96404692D01*
X156228999Y-96338556D01*
X156274054Y-96299515D01*
X156282816Y-96295051D01*
X156418461Y-96196500D01*
X156454786Y-96170109D01*
X156454788Y-96170106D01*
X156454792Y-96170104D01*
X156605104Y-96019792D01*
X156605106Y-96019788D01*
X156605109Y-96019786D01*
X156714086Y-95869789D01*
X156730051Y-95847816D01*
X156826557Y-95658412D01*
X156892246Y-95456243D01*
X156925500Y-95246287D01*
X156925500Y-95033713D01*
X156892246Y-94823757D01*
X156826557Y-94621588D01*
X156730051Y-94432184D01*
X156730049Y-94432181D01*
X156730048Y-94432179D01*
X156605109Y-94260213D01*
X156454786Y-94109890D01*
X156282820Y-93984951D01*
X156282115Y-93984591D01*
X156274054Y-93980485D01*
X156223259Y-93932512D01*
X156206463Y-93864692D01*
X156228999Y-93798556D01*
X156274054Y-93759515D01*
X156282816Y-93755051D01*
X156337700Y-93715176D01*
X156454786Y-93630109D01*
X156454788Y-93630106D01*
X156454792Y-93630104D01*
X156605104Y-93479792D01*
X156605106Y-93479788D01*
X156605109Y-93479786D01*
X156730048Y-93307820D01*
X156730047Y-93307820D01*
X156730051Y-93307816D01*
X156826557Y-93118412D01*
X156892246Y-92916243D01*
X156925500Y-92706287D01*
X156925500Y-92493713D01*
X156892246Y-92283757D01*
X156826557Y-92081588D01*
X156730051Y-91892184D01*
X156730049Y-91892181D01*
X156730048Y-91892179D01*
X156605109Y-91720213D01*
X156454786Y-91569890D01*
X156282820Y-91444951D01*
X156282115Y-91444591D01*
X156274054Y-91440485D01*
X156223259Y-91392512D01*
X156206463Y-91324692D01*
X156228999Y-91258556D01*
X156274054Y-91219515D01*
X156282816Y-91215051D01*
X156337700Y-91175176D01*
X156454786Y-91090109D01*
X156454788Y-91090106D01*
X156454792Y-91090104D01*
X156605104Y-90939792D01*
X156605106Y-90939788D01*
X156605109Y-90939786D01*
X156730048Y-90767820D01*
X156730047Y-90767820D01*
X156730051Y-90767816D01*
X156826557Y-90578412D01*
X156892246Y-90376243D01*
X156925500Y-90166287D01*
X156925500Y-89953713D01*
X156892246Y-89743757D01*
X156826557Y-89541588D01*
X156730051Y-89352184D01*
X156730049Y-89352181D01*
X156730048Y-89352179D01*
X156605109Y-89180213D01*
X156454786Y-89029890D01*
X156282820Y-88904951D01*
X156282115Y-88904591D01*
X156274054Y-88900485D01*
X156223259Y-88852512D01*
X156206463Y-88784692D01*
X156228999Y-88718556D01*
X156274054Y-88679515D01*
X156282816Y-88675051D01*
X156350434Y-88625924D01*
X156454786Y-88550109D01*
X156454788Y-88550106D01*
X156454792Y-88550104D01*
X156605104Y-88399792D01*
X156605106Y-88399788D01*
X156605109Y-88399786D01*
X156730048Y-88227820D01*
X156730047Y-88227820D01*
X156730051Y-88227816D01*
X156826557Y-88038412D01*
X156892246Y-87836243D01*
X156925500Y-87626287D01*
X156925500Y-87413713D01*
X156892246Y-87203757D01*
X156826557Y-87001588D01*
X156730051Y-86812184D01*
X156730049Y-86812181D01*
X156730048Y-86812179D01*
X156605109Y-86640213D01*
X156491569Y-86526673D01*
X156458084Y-86465350D01*
X156463068Y-86395658D01*
X156504940Y-86339725D01*
X156535915Y-86322810D01*
X156667331Y-86273796D01*
X156782546Y-86187546D01*
X156868796Y-86072331D01*
X156919091Y-85937483D01*
X156925500Y-85877873D01*
X156925499Y-84082135D01*
X177084500Y-84082135D01*
X177084500Y-85877870D01*
X177084501Y-85877876D01*
X177090908Y-85937483D01*
X177141202Y-86072328D01*
X177141206Y-86072335D01*
X177227452Y-86187544D01*
X177227455Y-86187547D01*
X177342664Y-86273793D01*
X177342671Y-86273797D01*
X177474082Y-86322810D01*
X177530016Y-86364681D01*
X177554433Y-86430145D01*
X177539582Y-86498418D01*
X177518431Y-86526673D01*
X177404889Y-86640215D01*
X177279951Y-86812179D01*
X177183444Y-87001585D01*
X177117753Y-87203760D01*
X177084500Y-87413713D01*
X177084500Y-87626286D01*
X177117753Y-87836239D01*
X177183444Y-88038414D01*
X177279951Y-88227820D01*
X177404890Y-88399786D01*
X177555213Y-88550109D01*
X177727182Y-88675050D01*
X177735946Y-88679516D01*
X177786742Y-88727491D01*
X177803536Y-88795312D01*
X177780998Y-88861447D01*
X177735946Y-88900484D01*
X177727182Y-88904949D01*
X177555213Y-89029890D01*
X177404890Y-89180213D01*
X177279951Y-89352179D01*
X177183444Y-89541585D01*
X177117753Y-89743760D01*
X177115498Y-89758000D01*
X177084500Y-89953713D01*
X177084500Y-90166287D01*
X177088267Y-90190073D01*
X177107714Y-90312857D01*
X177117754Y-90376243D01*
X177170181Y-90537597D01*
X177183444Y-90578414D01*
X177279951Y-90767820D01*
X177404890Y-90939786D01*
X177555213Y-91090109D01*
X177727182Y-91215050D01*
X177735946Y-91219516D01*
X177786742Y-91267491D01*
X177803536Y-91335312D01*
X177780998Y-91401447D01*
X177735946Y-91440484D01*
X177727182Y-91444949D01*
X177555213Y-91569890D01*
X177404890Y-91720213D01*
X177279951Y-91892179D01*
X177183444Y-92081585D01*
X177117753Y-92283760D01*
X177084500Y-92493713D01*
X177084500Y-92706286D01*
X177107714Y-92852857D01*
X177117754Y-92916243D01*
X177160365Y-93047387D01*
X177183444Y-93118414D01*
X177279951Y-93307820D01*
X177404890Y-93479786D01*
X177555213Y-93630109D01*
X177727182Y-93755050D01*
X177735946Y-93759516D01*
X177786742Y-93807491D01*
X177803536Y-93875312D01*
X177780998Y-93941447D01*
X177735946Y-93980484D01*
X177727182Y-93984949D01*
X177555213Y-94109890D01*
X177404890Y-94260213D01*
X177279951Y-94432179D01*
X177183444Y-94621585D01*
X177117753Y-94823760D01*
X177084500Y-95033713D01*
X177084500Y-95246286D01*
X177107714Y-95392857D01*
X177117754Y-95456243D01*
X177172651Y-95625199D01*
X177183444Y-95658414D01*
X177279951Y-95847820D01*
X177404890Y-96019786D01*
X177555213Y-96170109D01*
X177727182Y-96295050D01*
X177735946Y-96299516D01*
X177786742Y-96347491D01*
X177803536Y-96415312D01*
X177780998Y-96481447D01*
X177735946Y-96520484D01*
X177727182Y-96524949D01*
X177555213Y-96649890D01*
X177404890Y-96800213D01*
X177279951Y-96972179D01*
X177183444Y-97161585D01*
X177117753Y-97363760D01*
X177084500Y-97573713D01*
X177084500Y-97786286D01*
X177107714Y-97932857D01*
X177117754Y-97996243D01*
X177160365Y-98127387D01*
X177183444Y-98198414D01*
X177279951Y-98387820D01*
X177404890Y-98559786D01*
X177555213Y-98710109D01*
X177727182Y-98835050D01*
X177735946Y-98839516D01*
X177786742Y-98887491D01*
X177803536Y-98955312D01*
X177780998Y-99021447D01*
X177735946Y-99060484D01*
X177727182Y-99064949D01*
X177555213Y-99189890D01*
X177404890Y-99340213D01*
X177279951Y-99512179D01*
X177183444Y-99701585D01*
X177117753Y-99903760D01*
X177111870Y-99940905D01*
X177084500Y-100113713D01*
X177084500Y-100326287D01*
X177117754Y-100536243D01*
X177180816Y-100730328D01*
X177183444Y-100738414D01*
X177279951Y-100927820D01*
X177404890Y-101099786D01*
X177555213Y-101250109D01*
X177727182Y-101375050D01*
X177735946Y-101379516D01*
X177786742Y-101427491D01*
X177803536Y-101495312D01*
X177780998Y-101561447D01*
X177735946Y-101600484D01*
X177727182Y-101604949D01*
X177555213Y-101729890D01*
X177404890Y-101880213D01*
X177279951Y-102052179D01*
X177183444Y-102241585D01*
X177117753Y-102443760D01*
X177084500Y-102653713D01*
X177084500Y-102866287D01*
X177089207Y-102896004D01*
X177113228Y-103047671D01*
X177117754Y-103076243D01*
X177174895Y-103252105D01*
X177183444Y-103278414D01*
X177279951Y-103467820D01*
X177404890Y-103639786D01*
X177555213Y-103790109D01*
X177727182Y-103915050D01*
X177735946Y-103919516D01*
X177786742Y-103967491D01*
X177803536Y-104035312D01*
X177780998Y-104101447D01*
X177735946Y-104140484D01*
X177727182Y-104144949D01*
X177555213Y-104269890D01*
X177404890Y-104420213D01*
X177279951Y-104592179D01*
X177183444Y-104781585D01*
X177117753Y-104983760D01*
X177084500Y-105193713D01*
X177084500Y-105406286D01*
X177116045Y-105605458D01*
X177117754Y-105616243D01*
X177177530Y-105800215D01*
X177183444Y-105818414D01*
X177279951Y-106007820D01*
X177404890Y-106179786D01*
X177555213Y-106330109D01*
X177727182Y-106455050D01*
X177735946Y-106459516D01*
X177786742Y-106507491D01*
X177803536Y-106575312D01*
X177780998Y-106641447D01*
X177735946Y-106680484D01*
X177727182Y-106684949D01*
X177555213Y-106809890D01*
X177404890Y-106960213D01*
X177279951Y-107132179D01*
X177183444Y-107321585D01*
X177117753Y-107523760D01*
X177084500Y-107733713D01*
X177084500Y-107946287D01*
X177088009Y-107968443D01*
X177117753Y-108156239D01*
X177183444Y-108358414D01*
X177279951Y-108547820D01*
X177404890Y-108719786D01*
X177555213Y-108870109D01*
X177727182Y-108995050D01*
X177735946Y-108999516D01*
X177786742Y-109047491D01*
X177803536Y-109115312D01*
X177780998Y-109181447D01*
X177735946Y-109220484D01*
X177727182Y-109224949D01*
X177555213Y-109349890D01*
X177404890Y-109500213D01*
X177279951Y-109672179D01*
X177183444Y-109861585D01*
X177117753Y-110063760D01*
X177084500Y-110273713D01*
X177084500Y-110486287D01*
X177117754Y-110696243D01*
X177135908Y-110752116D01*
X177183444Y-110898414D01*
X177279951Y-111087820D01*
X177404890Y-111259786D01*
X177555213Y-111410109D01*
X177727182Y-111535050D01*
X177735946Y-111539516D01*
X177786742Y-111587491D01*
X177803536Y-111655312D01*
X177780998Y-111721447D01*
X177735946Y-111760484D01*
X177727182Y-111764949D01*
X177555213Y-111889890D01*
X177404890Y-112040213D01*
X177279951Y-112212179D01*
X177183444Y-112401585D01*
X177117753Y-112603760D01*
X177084500Y-112813713D01*
X177084500Y-113026287D01*
X177088009Y-113048443D01*
X177117753Y-113236239D01*
X177183444Y-113438414D01*
X177279951Y-113627820D01*
X177404890Y-113799786D01*
X177555213Y-113950109D01*
X177727182Y-114075050D01*
X177735946Y-114079516D01*
X177786742Y-114127491D01*
X177803536Y-114195312D01*
X177780998Y-114261447D01*
X177735946Y-114300484D01*
X177727182Y-114304949D01*
X177555213Y-114429890D01*
X177404890Y-114580213D01*
X177279951Y-114752179D01*
X177183444Y-114941585D01*
X177117753Y-115143760D01*
X177084500Y-115353713D01*
X177084500Y-115566286D01*
X177117753Y-115776239D01*
X177183444Y-115978414D01*
X177279951Y-116167820D01*
X177404890Y-116339786D01*
X177555213Y-116490109D01*
X177727182Y-116615050D01*
X177735946Y-116619516D01*
X177786742Y-116667491D01*
X177803536Y-116735312D01*
X177780998Y-116801447D01*
X177735946Y-116840484D01*
X177727182Y-116844949D01*
X177555213Y-116969890D01*
X177404890Y-117120213D01*
X177279951Y-117292179D01*
X177183444Y-117481585D01*
X177117753Y-117683760D01*
X177084500Y-117893713D01*
X177084500Y-118106286D01*
X177117753Y-118316239D01*
X177183444Y-118518414D01*
X177279951Y-118707820D01*
X177404890Y-118879786D01*
X177555213Y-119030109D01*
X177727182Y-119155050D01*
X177735946Y-119159516D01*
X177786742Y-119207491D01*
X177803536Y-119275312D01*
X177780998Y-119341447D01*
X177735946Y-119380484D01*
X177727182Y-119384949D01*
X177555213Y-119509890D01*
X177404890Y-119660213D01*
X177279951Y-119832179D01*
X177183444Y-120021585D01*
X177117753Y-120223760D01*
X177084500Y-120433713D01*
X177084500Y-120646286D01*
X177117753Y-120856239D01*
X177183444Y-121058414D01*
X177279951Y-121247820D01*
X177404890Y-121419786D01*
X177555213Y-121570109D01*
X177727182Y-121695050D01*
X177735946Y-121699516D01*
X177786742Y-121747491D01*
X177803536Y-121815312D01*
X177780998Y-121881447D01*
X177735946Y-121920484D01*
X177727182Y-121924949D01*
X177555213Y-122049890D01*
X177404890Y-122200213D01*
X177279951Y-122372179D01*
X177183444Y-122561585D01*
X177117753Y-122763760D01*
X177092177Y-122925240D01*
X177084500Y-122973713D01*
X177084500Y-123186287D01*
X177117754Y-123396243D01*
X177148660Y-123491362D01*
X177183444Y-123598414D01*
X177279951Y-123787820D01*
X177404890Y-123959786D01*
X177555213Y-124110109D01*
X177727182Y-124235050D01*
X177735946Y-124239516D01*
X177786742Y-124287491D01*
X177803536Y-124355312D01*
X177780998Y-124421447D01*
X177735946Y-124460484D01*
X177727182Y-124464949D01*
X177555213Y-124589890D01*
X177404890Y-124740213D01*
X177279951Y-124912179D01*
X177183444Y-125101585D01*
X177117753Y-125303760D01*
X177084500Y-125513713D01*
X177084500Y-125726286D01*
X177117753Y-125936239D01*
X177183444Y-126138414D01*
X177279951Y-126327820D01*
X177404890Y-126499786D01*
X177555213Y-126650109D01*
X177727182Y-126775050D01*
X177735946Y-126779516D01*
X177786742Y-126827491D01*
X177803536Y-126895312D01*
X177780998Y-126961447D01*
X177735946Y-127000484D01*
X177727182Y-127004949D01*
X177555213Y-127129890D01*
X177404890Y-127280213D01*
X177279951Y-127452179D01*
X177183444Y-127641585D01*
X177117753Y-127843760D01*
X177084500Y-128053713D01*
X177084500Y-128266286D01*
X177117753Y-128476239D01*
X177183444Y-128678414D01*
X177279951Y-128867820D01*
X177404890Y-129039786D01*
X177555213Y-129190109D01*
X177727182Y-129315050D01*
X177735946Y-129319516D01*
X177786742Y-129367491D01*
X177803536Y-129435312D01*
X177780998Y-129501447D01*
X177735946Y-129540484D01*
X177727182Y-129544949D01*
X177555213Y-129669890D01*
X177404890Y-129820213D01*
X177279951Y-129992179D01*
X177183444Y-130181585D01*
X177117753Y-130383760D01*
X177084500Y-130593713D01*
X177084500Y-130806286D01*
X177112010Y-130979981D01*
X177117754Y-131016243D01*
X177137764Y-131077828D01*
X177183444Y-131218414D01*
X177279951Y-131407820D01*
X177404890Y-131579786D01*
X177555213Y-131730109D01*
X177727182Y-131855050D01*
X177735946Y-131859516D01*
X177786742Y-131907491D01*
X177803536Y-131975312D01*
X177780998Y-132041447D01*
X177735946Y-132080484D01*
X177727182Y-132084949D01*
X177555213Y-132209890D01*
X177404890Y-132360213D01*
X177279951Y-132532179D01*
X177183444Y-132721585D01*
X177117753Y-132923760D01*
X177084500Y-133133713D01*
X177084500Y-133346286D01*
X177111582Y-133517279D01*
X177117754Y-133556243D01*
X177171843Y-133722712D01*
X177183444Y-133758414D01*
X177279951Y-133947820D01*
X177404890Y-134119786D01*
X177555213Y-134270109D01*
X177727182Y-134395050D01*
X177735946Y-134399516D01*
X177786742Y-134447491D01*
X177803536Y-134515312D01*
X177780998Y-134581447D01*
X177735946Y-134620484D01*
X177727182Y-134624949D01*
X177555213Y-134749890D01*
X177404890Y-134900213D01*
X177279951Y-135072179D01*
X177183444Y-135261585D01*
X177117753Y-135463760D01*
X177084500Y-135673713D01*
X177084500Y-135886286D01*
X177117753Y-136096239D01*
X177183444Y-136298414D01*
X177279951Y-136487820D01*
X177404890Y-136659786D01*
X177555213Y-136810109D01*
X177727182Y-136935050D01*
X177735946Y-136939516D01*
X177786742Y-136987491D01*
X177803536Y-137055312D01*
X177780998Y-137121447D01*
X177735946Y-137160484D01*
X177727182Y-137164949D01*
X177555213Y-137289890D01*
X177404890Y-137440213D01*
X177279951Y-137612179D01*
X177183444Y-137801585D01*
X177117753Y-138003760D01*
X177084500Y-138213713D01*
X177084500Y-138426286D01*
X177117753Y-138636239D01*
X177183444Y-138838414D01*
X177279951Y-139027820D01*
X177404890Y-139199786D01*
X177555213Y-139350109D01*
X177727179Y-139475048D01*
X177727181Y-139475049D01*
X177727184Y-139475051D01*
X177916588Y-139571557D01*
X178118757Y-139637246D01*
X178328713Y-139670500D01*
X178328714Y-139670500D01*
X178541286Y-139670500D01*
X178541287Y-139670500D01*
X178751243Y-139637246D01*
X178953412Y-139571557D01*
X179142816Y-139475051D01*
X179197572Y-139435269D01*
X179314786Y-139350109D01*
X179314788Y-139350106D01*
X179314792Y-139350104D01*
X179465104Y-139199792D01*
X179465106Y-139199788D01*
X179465109Y-139199786D01*
X179590048Y-139027820D01*
X179590047Y-139027820D01*
X179590051Y-139027816D01*
X179686557Y-138838412D01*
X179752246Y-138636243D01*
X179785500Y-138426287D01*
X179785500Y-138213713D01*
X179752246Y-138003757D01*
X179686557Y-137801588D01*
X179590051Y-137612184D01*
X179590049Y-137612181D01*
X179590048Y-137612179D01*
X179465109Y-137440213D01*
X179314786Y-137289890D01*
X179142820Y-137164951D01*
X179134600Y-137160763D01*
X179134054Y-137160485D01*
X179083259Y-137112512D01*
X179066463Y-137044692D01*
X179088999Y-136978556D01*
X179134054Y-136939515D01*
X179142816Y-136935051D01*
X179164789Y-136919086D01*
X179314786Y-136810109D01*
X179314788Y-136810106D01*
X179314792Y-136810104D01*
X179465104Y-136659792D01*
X179465106Y-136659788D01*
X179465109Y-136659786D01*
X179590048Y-136487820D01*
X179590047Y-136487820D01*
X179590051Y-136487816D01*
X179686557Y-136298412D01*
X179752246Y-136096243D01*
X179785500Y-135886287D01*
X179785500Y-135673713D01*
X179752246Y-135463757D01*
X179686557Y-135261588D01*
X179590051Y-135072184D01*
X179590049Y-135072181D01*
X179590048Y-135072179D01*
X179465109Y-134900213D01*
X179314786Y-134749890D01*
X179142820Y-134624951D01*
X179142115Y-134624591D01*
X179134054Y-134620485D01*
X179083259Y-134572512D01*
X179066463Y-134504692D01*
X179088999Y-134438556D01*
X179134054Y-134399515D01*
X179142816Y-134395051D01*
X179164789Y-134379086D01*
X179314786Y-134270109D01*
X179314788Y-134270106D01*
X179314792Y-134270104D01*
X179465104Y-134119792D01*
X179465106Y-134119788D01*
X179465109Y-134119786D01*
X179590048Y-133947820D01*
X179590047Y-133947820D01*
X179590051Y-133947816D01*
X179686557Y-133758412D01*
X179752246Y-133556243D01*
X179785500Y-133346287D01*
X179785500Y-133133713D01*
X179752246Y-132923757D01*
X179686557Y-132721588D01*
X179590051Y-132532184D01*
X179590049Y-132532181D01*
X179590048Y-132532179D01*
X179465109Y-132360213D01*
X179314786Y-132209890D01*
X179142820Y-132084951D01*
X179142115Y-132084591D01*
X179134054Y-132080485D01*
X179083259Y-132032512D01*
X179066463Y-131964692D01*
X179088999Y-131898556D01*
X179134054Y-131859515D01*
X179142816Y-131855051D01*
X179164789Y-131839086D01*
X179314786Y-131730109D01*
X179314788Y-131730106D01*
X179314792Y-131730104D01*
X179465104Y-131579792D01*
X179465106Y-131579788D01*
X179465109Y-131579786D01*
X179590048Y-131407820D01*
X179590047Y-131407820D01*
X179590051Y-131407816D01*
X179686557Y-131218412D01*
X179752246Y-131016243D01*
X179785500Y-130806287D01*
X179785500Y-130593713D01*
X179752246Y-130383757D01*
X179686557Y-130181588D01*
X179590051Y-129992184D01*
X179590049Y-129992181D01*
X179590048Y-129992179D01*
X179465109Y-129820213D01*
X179314786Y-129669890D01*
X179142820Y-129544951D01*
X179142115Y-129544591D01*
X179134054Y-129540485D01*
X179083259Y-129492512D01*
X179066463Y-129424692D01*
X179088999Y-129358556D01*
X179134054Y-129319515D01*
X179142816Y-129315051D01*
X179164789Y-129299086D01*
X179314786Y-129190109D01*
X179314788Y-129190106D01*
X179314792Y-129190104D01*
X179465104Y-129039792D01*
X179465106Y-129039788D01*
X179465109Y-129039786D01*
X179590048Y-128867820D01*
X179590047Y-128867820D01*
X179590051Y-128867816D01*
X179686557Y-128678412D01*
X179752246Y-128476243D01*
X179785500Y-128266287D01*
X179785500Y-128053713D01*
X179752246Y-127843757D01*
X179686557Y-127641588D01*
X179590051Y-127452184D01*
X179590049Y-127452181D01*
X179590048Y-127452179D01*
X179465109Y-127280213D01*
X179314786Y-127129890D01*
X179142820Y-127004951D01*
X179142115Y-127004591D01*
X179134054Y-127000485D01*
X179083259Y-126952512D01*
X179066463Y-126884692D01*
X179088999Y-126818556D01*
X179134054Y-126779515D01*
X179142816Y-126775051D01*
X179164789Y-126759086D01*
X179314786Y-126650109D01*
X179314788Y-126650106D01*
X179314792Y-126650104D01*
X179465104Y-126499792D01*
X179465106Y-126499788D01*
X179465109Y-126499786D01*
X179590048Y-126327820D01*
X179590047Y-126327820D01*
X179590051Y-126327816D01*
X179686557Y-126138412D01*
X179752246Y-125936243D01*
X179785500Y-125726287D01*
X179785500Y-125513713D01*
X179752246Y-125303757D01*
X179686557Y-125101588D01*
X179590051Y-124912184D01*
X179590049Y-124912181D01*
X179590048Y-124912179D01*
X179465109Y-124740213D01*
X179314786Y-124589890D01*
X179142820Y-124464951D01*
X179142115Y-124464591D01*
X179134054Y-124460485D01*
X179083259Y-124412512D01*
X179066463Y-124344692D01*
X179088999Y-124278556D01*
X179134054Y-124239515D01*
X179142816Y-124235051D01*
X179236612Y-124166905D01*
X179314786Y-124110109D01*
X179314788Y-124110106D01*
X179314792Y-124110104D01*
X179465104Y-123959792D01*
X179465106Y-123959788D01*
X179465109Y-123959786D01*
X179590048Y-123787820D01*
X179590047Y-123787820D01*
X179590051Y-123787816D01*
X179686557Y-123598412D01*
X179752246Y-123396243D01*
X179785500Y-123186287D01*
X179785500Y-122973713D01*
X179752246Y-122763757D01*
X179686557Y-122561588D01*
X179590051Y-122372184D01*
X179590049Y-122372181D01*
X179590048Y-122372179D01*
X179465109Y-122200213D01*
X179314786Y-122049890D01*
X179142820Y-121924951D01*
X179142115Y-121924591D01*
X179134054Y-121920485D01*
X179083259Y-121872512D01*
X179066463Y-121804692D01*
X179088999Y-121738556D01*
X179134054Y-121699515D01*
X179142816Y-121695051D01*
X179164789Y-121679086D01*
X179314786Y-121570109D01*
X179314788Y-121570106D01*
X179314792Y-121570104D01*
X179465104Y-121419792D01*
X179465106Y-121419788D01*
X179465109Y-121419786D01*
X179590048Y-121247820D01*
X179590047Y-121247820D01*
X179590051Y-121247816D01*
X179686557Y-121058412D01*
X179752246Y-120856243D01*
X179785500Y-120646287D01*
X179785500Y-120433713D01*
X179752246Y-120223757D01*
X179686557Y-120021588D01*
X179590051Y-119832184D01*
X179590049Y-119832181D01*
X179590048Y-119832179D01*
X179465109Y-119660213D01*
X179314786Y-119509890D01*
X179142820Y-119384951D01*
X179142115Y-119384591D01*
X179134054Y-119380485D01*
X179083259Y-119332512D01*
X179066463Y-119264692D01*
X179088999Y-119198556D01*
X179134054Y-119159515D01*
X179142816Y-119155051D01*
X179164789Y-119139086D01*
X179314786Y-119030109D01*
X179314788Y-119030106D01*
X179314792Y-119030104D01*
X179465104Y-118879792D01*
X179465106Y-118879788D01*
X179465109Y-118879786D01*
X179590048Y-118707820D01*
X179590047Y-118707820D01*
X179590051Y-118707816D01*
X179686557Y-118518412D01*
X179752246Y-118316243D01*
X179785500Y-118106287D01*
X179785500Y-117893713D01*
X179752246Y-117683757D01*
X179686557Y-117481588D01*
X179590051Y-117292184D01*
X179590049Y-117292181D01*
X179590048Y-117292179D01*
X179465109Y-117120213D01*
X179314786Y-116969890D01*
X179142820Y-116844951D01*
X179142115Y-116844591D01*
X179134054Y-116840485D01*
X179083259Y-116792512D01*
X179066463Y-116724692D01*
X179088999Y-116658556D01*
X179134054Y-116619515D01*
X179142816Y-116615051D01*
X179164789Y-116599086D01*
X179314786Y-116490109D01*
X179314788Y-116490106D01*
X179314792Y-116490104D01*
X179465104Y-116339792D01*
X179465106Y-116339788D01*
X179465109Y-116339786D01*
X179590048Y-116167820D01*
X179590047Y-116167820D01*
X179590051Y-116167816D01*
X179686557Y-115978412D01*
X179752246Y-115776243D01*
X179785500Y-115566287D01*
X179785500Y-115353713D01*
X179752246Y-115143757D01*
X179686557Y-114941588D01*
X179590051Y-114752184D01*
X179590049Y-114752181D01*
X179590048Y-114752179D01*
X179465109Y-114580213D01*
X179314786Y-114429890D01*
X179142820Y-114304951D01*
X179142115Y-114304591D01*
X179134054Y-114300485D01*
X179083259Y-114252512D01*
X179066463Y-114184692D01*
X179088999Y-114118556D01*
X179134054Y-114079515D01*
X179142816Y-114075051D01*
X179199928Y-114033557D01*
X179314786Y-113950109D01*
X179314788Y-113950106D01*
X179314792Y-113950104D01*
X179465104Y-113799792D01*
X179465106Y-113799788D01*
X179465109Y-113799786D01*
X179590048Y-113627820D01*
X179590047Y-113627820D01*
X179590051Y-113627816D01*
X179686557Y-113438412D01*
X179752246Y-113236243D01*
X179785500Y-113026287D01*
X179785500Y-112813713D01*
X179752246Y-112603757D01*
X179686557Y-112401588D01*
X179590051Y-112212184D01*
X179590049Y-112212181D01*
X179590048Y-112212179D01*
X179465109Y-112040213D01*
X179314786Y-111889890D01*
X179142820Y-111764951D01*
X179142115Y-111764591D01*
X179134054Y-111760485D01*
X179083259Y-111712512D01*
X179066463Y-111644692D01*
X179088999Y-111578556D01*
X179134054Y-111539515D01*
X179142816Y-111535051D01*
X179218684Y-111479930D01*
X179314786Y-111410109D01*
X179314788Y-111410106D01*
X179314792Y-111410104D01*
X179465104Y-111259792D01*
X179465106Y-111259788D01*
X179465109Y-111259786D01*
X179590048Y-111087820D01*
X179590047Y-111087820D01*
X179590051Y-111087816D01*
X179686557Y-110898412D01*
X179752246Y-110696243D01*
X179785500Y-110486287D01*
X179785500Y-110273713D01*
X179752246Y-110063757D01*
X179686557Y-109861588D01*
X179590051Y-109672184D01*
X179590049Y-109672181D01*
X179590048Y-109672179D01*
X179465109Y-109500213D01*
X179314786Y-109349890D01*
X179142820Y-109224951D01*
X179142115Y-109224591D01*
X179134054Y-109220485D01*
X179083259Y-109172512D01*
X179066463Y-109104692D01*
X179088999Y-109038556D01*
X179134054Y-108999515D01*
X179142816Y-108995051D01*
X179199928Y-108953557D01*
X179314786Y-108870109D01*
X179314788Y-108870106D01*
X179314792Y-108870104D01*
X179465104Y-108719792D01*
X179465106Y-108719788D01*
X179465109Y-108719786D01*
X179590048Y-108547820D01*
X179590047Y-108547820D01*
X179590051Y-108547816D01*
X179686557Y-108358412D01*
X179752246Y-108156243D01*
X179785500Y-107946287D01*
X179785500Y-107733713D01*
X179752246Y-107523757D01*
X179686557Y-107321588D01*
X179590051Y-107132184D01*
X179590049Y-107132181D01*
X179590048Y-107132179D01*
X179465109Y-106960213D01*
X179314786Y-106809890D01*
X179142820Y-106684951D01*
X179142115Y-106684591D01*
X179134054Y-106680485D01*
X179083259Y-106632512D01*
X179066463Y-106564692D01*
X179088999Y-106498556D01*
X179134054Y-106459515D01*
X179142816Y-106455051D01*
X179220128Y-106398881D01*
X179314786Y-106330109D01*
X179314788Y-106330106D01*
X179314792Y-106330104D01*
X179465104Y-106179792D01*
X179465106Y-106179788D01*
X179465109Y-106179786D01*
X179590048Y-106007820D01*
X179590047Y-106007820D01*
X179590051Y-106007816D01*
X179686557Y-105818412D01*
X179752246Y-105616243D01*
X179785500Y-105406287D01*
X179785500Y-105193713D01*
X179752246Y-104983757D01*
X179686557Y-104781588D01*
X179590051Y-104592184D01*
X179590049Y-104592181D01*
X179590048Y-104592179D01*
X179465109Y-104420213D01*
X179314786Y-104269890D01*
X179142820Y-104144951D01*
X179142115Y-104144591D01*
X179134054Y-104140485D01*
X179083259Y-104092512D01*
X179066463Y-104024692D01*
X179088999Y-103958556D01*
X179134054Y-103919515D01*
X179142816Y-103915051D01*
X179255760Y-103832993D01*
X179314786Y-103790109D01*
X179314788Y-103790106D01*
X179314792Y-103790104D01*
X179465104Y-103639792D01*
X179465106Y-103639788D01*
X179465109Y-103639786D01*
X179590048Y-103467820D01*
X179590047Y-103467820D01*
X179590051Y-103467816D01*
X179686557Y-103278412D01*
X179752246Y-103076243D01*
X179785500Y-102866287D01*
X179785500Y-102653713D01*
X179752246Y-102443757D01*
X179686557Y-102241588D01*
X179590051Y-102052184D01*
X179590049Y-102052181D01*
X179590048Y-102052179D01*
X179465109Y-101880213D01*
X179314786Y-101729890D01*
X179142820Y-101604951D01*
X179142115Y-101604591D01*
X179134054Y-101600485D01*
X179083259Y-101552512D01*
X179066463Y-101484692D01*
X179088999Y-101418556D01*
X179134054Y-101379515D01*
X179142816Y-101375051D01*
X179164789Y-101359086D01*
X179314786Y-101250109D01*
X179314788Y-101250106D01*
X179314792Y-101250104D01*
X179465104Y-101099792D01*
X179465104Y-101099791D01*
X179465109Y-101099787D01*
X179465109Y-101099786D01*
X179590048Y-100927820D01*
X179590047Y-100927820D01*
X179590051Y-100927816D01*
X179686557Y-100738412D01*
X179752246Y-100536243D01*
X179785500Y-100326287D01*
X179785500Y-100113713D01*
X179752246Y-99903757D01*
X179686557Y-99701588D01*
X179590051Y-99512184D01*
X179590049Y-99512181D01*
X179590048Y-99512179D01*
X179465109Y-99340213D01*
X179314786Y-99189890D01*
X179142820Y-99064951D01*
X179142115Y-99064591D01*
X179134054Y-99060485D01*
X179083259Y-99012512D01*
X179066463Y-98944692D01*
X179088999Y-98878556D01*
X179134054Y-98839515D01*
X179142816Y-98835051D01*
X179164789Y-98819086D01*
X179314786Y-98710109D01*
X179314788Y-98710106D01*
X179314792Y-98710104D01*
X179465104Y-98559792D01*
X179465106Y-98559788D01*
X179465109Y-98559786D01*
X179590048Y-98387820D01*
X179590047Y-98387820D01*
X179590051Y-98387816D01*
X179686557Y-98198412D01*
X179752246Y-97996243D01*
X179785500Y-97786287D01*
X179785500Y-97573713D01*
X179752246Y-97363757D01*
X179686557Y-97161588D01*
X179590051Y-96972184D01*
X179590049Y-96972181D01*
X179590048Y-96972179D01*
X179465109Y-96800213D01*
X179314786Y-96649890D01*
X179142820Y-96524951D01*
X179142115Y-96524591D01*
X179134054Y-96520485D01*
X179083259Y-96472512D01*
X179066463Y-96404692D01*
X179088999Y-96338556D01*
X179134054Y-96299515D01*
X179142816Y-96295051D01*
X179278461Y-96196500D01*
X179314786Y-96170109D01*
X179314788Y-96170106D01*
X179314792Y-96170104D01*
X179465104Y-96019792D01*
X179465106Y-96019788D01*
X179465109Y-96019786D01*
X179574086Y-95869789D01*
X179590051Y-95847816D01*
X179686557Y-95658412D01*
X179752246Y-95456243D01*
X179785500Y-95246287D01*
X179785500Y-95033713D01*
X179752246Y-94823757D01*
X179686557Y-94621588D01*
X179590051Y-94432184D01*
X179590049Y-94432181D01*
X179590048Y-94432179D01*
X179465109Y-94260213D01*
X179314786Y-94109890D01*
X179142820Y-93984951D01*
X179142115Y-93984591D01*
X179134054Y-93980485D01*
X179083259Y-93932512D01*
X179066463Y-93864692D01*
X179088999Y-93798556D01*
X179134054Y-93759515D01*
X179142816Y-93755051D01*
X179197700Y-93715176D01*
X179314786Y-93630109D01*
X179314788Y-93630106D01*
X179314792Y-93630104D01*
X179465104Y-93479792D01*
X179465106Y-93479788D01*
X179465109Y-93479786D01*
X179590048Y-93307820D01*
X179590047Y-93307820D01*
X179590051Y-93307816D01*
X179686557Y-93118412D01*
X179752246Y-92916243D01*
X179785500Y-92706287D01*
X179785500Y-92493713D01*
X179752246Y-92283757D01*
X179686557Y-92081588D01*
X179590051Y-91892184D01*
X179590049Y-91892181D01*
X179590048Y-91892179D01*
X179465109Y-91720213D01*
X179314786Y-91569890D01*
X179142820Y-91444951D01*
X179142115Y-91444591D01*
X179134054Y-91440485D01*
X179083259Y-91392512D01*
X179066463Y-91324692D01*
X179088999Y-91258556D01*
X179134054Y-91219515D01*
X179142816Y-91215051D01*
X179197700Y-91175176D01*
X179314786Y-91090109D01*
X179314788Y-91090106D01*
X179314792Y-91090104D01*
X179465104Y-90939792D01*
X179465106Y-90939788D01*
X179465109Y-90939786D01*
X179590048Y-90767820D01*
X179590047Y-90767820D01*
X179590051Y-90767816D01*
X179686557Y-90578412D01*
X179752246Y-90376243D01*
X179785500Y-90166287D01*
X179785500Y-89953713D01*
X179752246Y-89743757D01*
X179686557Y-89541588D01*
X179590051Y-89352184D01*
X179590049Y-89352181D01*
X179590048Y-89352179D01*
X179465109Y-89180213D01*
X179314786Y-89029890D01*
X179142820Y-88904951D01*
X179142115Y-88904591D01*
X179134054Y-88900485D01*
X179083259Y-88852512D01*
X179066463Y-88784692D01*
X179088999Y-88718556D01*
X179134054Y-88679515D01*
X179142816Y-88675051D01*
X179210434Y-88625924D01*
X179314786Y-88550109D01*
X179314788Y-88550106D01*
X179314792Y-88550104D01*
X179465104Y-88399792D01*
X179465106Y-88399788D01*
X179465109Y-88399786D01*
X179590048Y-88227820D01*
X179590047Y-88227820D01*
X179590051Y-88227816D01*
X179686557Y-88038412D01*
X179752246Y-87836243D01*
X179785500Y-87626287D01*
X179785500Y-87413713D01*
X179752246Y-87203757D01*
X179686557Y-87001588D01*
X179590051Y-86812184D01*
X179590049Y-86812181D01*
X179590048Y-86812179D01*
X179465109Y-86640213D01*
X179351569Y-86526673D01*
X179318084Y-86465350D01*
X179323068Y-86395658D01*
X179364940Y-86339725D01*
X179395915Y-86322810D01*
X179527331Y-86273796D01*
X179642546Y-86187546D01*
X179728796Y-86072331D01*
X179779091Y-85937483D01*
X179785500Y-85877873D01*
X179785499Y-84082128D01*
X179779091Y-84022517D01*
X179740970Y-83920310D01*
X179728797Y-83887671D01*
X179728793Y-83887664D01*
X179642547Y-83772455D01*
X179642544Y-83772452D01*
X179527335Y-83686206D01*
X179527328Y-83686202D01*
X179392482Y-83635908D01*
X179392483Y-83635908D01*
X179332883Y-83629501D01*
X179332881Y-83629500D01*
X179332873Y-83629500D01*
X179332864Y-83629500D01*
X177537129Y-83629500D01*
X177537123Y-83629501D01*
X177477516Y-83635908D01*
X177342671Y-83686202D01*
X177342664Y-83686206D01*
X177227455Y-83772452D01*
X177227452Y-83772455D01*
X177141206Y-83887664D01*
X177141202Y-83887671D01*
X177090908Y-84022517D01*
X177084501Y-84082116D01*
X177084501Y-84082123D01*
X177084500Y-84082135D01*
X156925499Y-84082135D01*
X156925499Y-84082128D01*
X156919091Y-84022517D01*
X156880970Y-83920310D01*
X156868797Y-83887671D01*
X156868793Y-83887664D01*
X156782547Y-83772455D01*
X156782544Y-83772452D01*
X156667335Y-83686206D01*
X156667328Y-83686202D01*
X156532482Y-83635908D01*
X156532483Y-83635908D01*
X156472883Y-83629501D01*
X156472881Y-83629500D01*
X156472873Y-83629500D01*
X156472864Y-83629500D01*
X154677129Y-83629500D01*
X154677123Y-83629501D01*
X154617516Y-83635908D01*
X154482671Y-83686202D01*
X154482664Y-83686206D01*
X154367455Y-83772452D01*
X154367452Y-83772455D01*
X154281206Y-83887664D01*
X154281202Y-83887671D01*
X154230908Y-84022517D01*
X154224501Y-84082116D01*
X154224501Y-84082123D01*
X154224500Y-84082135D01*
X150796184Y-84082135D01*
X150775690Y-84053927D01*
X150642073Y-83920310D01*
X150489199Y-83809240D01*
X150320836Y-83723454D01*
X150141118Y-83665059D01*
X149954486Y-83635500D01*
X149954481Y-83635500D01*
X149765519Y-83635500D01*
X149765514Y-83635500D01*
X149578881Y-83665059D01*
X149399163Y-83723454D01*
X149230800Y-83809240D01*
X149143579Y-83872610D01*
X149077927Y-83920310D01*
X149077925Y-83920312D01*
X149077924Y-83920312D01*
X148944312Y-84053924D01*
X148944312Y-84053925D01*
X148944310Y-84053927D01*
X148923816Y-84082135D01*
X148833240Y-84206800D01*
X148747454Y-84375163D01*
X148689059Y-84554881D01*
X148659500Y-84741513D01*
X145980500Y-84741513D01*
X145950940Y-84554881D01*
X145892545Y-84375163D01*
X145806759Y-84206800D01*
X145806756Y-84206796D01*
X145695690Y-84053927D01*
X145562073Y-83920310D01*
X145409199Y-83809240D01*
X145240836Y-83723454D01*
X145061118Y-83665059D01*
X144874486Y-83635500D01*
X144874481Y-83635500D01*
X144685519Y-83635500D01*
X144685514Y-83635500D01*
X144498881Y-83665059D01*
X144319163Y-83723454D01*
X144150800Y-83809240D01*
X144063579Y-83872610D01*
X143997927Y-83920310D01*
X143997925Y-83920312D01*
X143997924Y-83920312D01*
X143864312Y-84053924D01*
X143864312Y-84053925D01*
X143864310Y-84053927D01*
X143843816Y-84082135D01*
X143753240Y-84206800D01*
X143667454Y-84375163D01*
X143609059Y-84554881D01*
X143579500Y-84741513D01*
X106172500Y-84741513D01*
X106172500Y-82420500D01*
X106192185Y-82353461D01*
X106244989Y-82307706D01*
X106296500Y-82296500D01*
X181231500Y-82296500D01*
X181298539Y-82316185D01*
G37*
%TD.AperFunction*%
%TD*%
M02*
