M48
; DRILL file KiCad 10.0.2 date 2026-06-05T15:41:09
; FORMAT={-:-/ absolute / metric / decimal}
; #@! TF.CreationDate,2026-06-05T15:41:09+02:00
; #@! TF.GenerationSoftware,Kicad,Pcbnew,10.0.2
; #@! TF.FileFunction,Plated,1,2,PTH
FMAT,2
METRIC
; #@! TA.AperFunction,Plated,PTH,ComponentDrill
T1C0.700
; #@! TA.AperFunction,Plated,PTH,ComponentDrill
T2C0.900
; #@! TA.AperFunction,Plated,PTH,ComponentDrill
T3C1.000
; #@! TA.AperFunction,Plated,PTH,ComponentDrill
T4C1.300
%
G90
G05
T1
X117.856Y-108.712
X122.428Y-77.724
X122.428Y-81.28
X122.428Y-87.884
X122.936Y-108.712
X127.508Y-77.724
X127.508Y-81.28
X127.508Y-87.884
T2
X112.776Y-89.916
X112.776Y-97.536
T3
X109.22Y-76.2
X109.22Y-78.74
X109.22Y-81.28
X109.22Y-83.82
X109.22Y-86.36
X116.822Y-92.456
X116.822Y-94.996
X116.822Y-97.536
X116.822Y-100.076
X116.822Y-102.616
X116.84Y-76.2
X116.84Y-78.74
X116.84Y-81.28
X116.84Y-83.82
X116.84Y-86.36
X124.46Y-92.456
X124.46Y-94.996
X124.46Y-97.536
X124.46Y-100.076
X124.46Y-102.616
X130.556Y-67.564
X130.556Y-70.104
X130.556Y-72.644
X130.556Y-75.184
X130.556Y-77.724
X130.556Y-80.264
X130.556Y-82.804
X130.556Y-85.344
X130.556Y-87.884
X130.556Y-90.424
X130.556Y-92.964
X130.556Y-95.504
X130.556Y-98.044
X130.556Y-100.584
X130.556Y-103.124
X130.556Y-105.664
X130.556Y-108.204
X130.556Y-110.744
X130.556Y-113.284
X130.556Y-115.824
X130.556Y-118.364
X130.556Y-120.904
X153.416Y-67.617
X153.416Y-70.157
X153.416Y-72.697
X153.416Y-75.237
X153.416Y-77.777
X153.416Y-80.317
X153.416Y-82.857
X153.416Y-85.397
X153.416Y-87.937
X153.416Y-90.477
X153.416Y-93.017
X153.416Y-95.557
X153.416Y-98.097
X153.416Y-100.637
X153.416Y-103.177
X153.416Y-105.717
X153.416Y-108.257
X153.416Y-110.797
X153.416Y-113.337
X153.416Y-115.877
X153.416Y-118.417
X153.416Y-120.957
T4
X109.22Y-116.84
X114.3Y-116.84
X119.38Y-116.84
X124.46Y-116.84
M30
