%TF.GenerationSoftware,KiCad,Pcbnew,10.0.2*%
%TF.CreationDate,2026-06-05T15:43:03+02:00*%
%TF.ProjectId,Prot_Master,50726f74-5f4d-4617-9374-65722e6b6963,1.0*%
%TF.SameCoordinates,Original*%
%TF.FileFunction,Soldermask,Bot*%
%TF.FilePolarity,Negative*%
%FSLAX46Y46*%
G04 Gerber Fmt 4.6, Leading zero omitted, Abs format (unit mm)*
G04 Created by KiCad (PCBNEW 10.0.2) date 2026-06-05 15:43:03*
%MOMM*%
%LPD*%
G01*
G04 APERTURE LIST*
G04 Aperture macros list*
%AMRoundRect*
0 Rectangle with rounded corners*
0 $1 Rounding radius*
0 $2 $3 $4 $5 $6 $7 $8 $9 X,Y pos of 4 corners*
0 Add a 4 corners polygon primitive as box body*
4,1,4,$2,$3,$4,$5,$6,$7,$8,$9,$2,$3,0*
0 Add four circle primitives for the rounded corners*
1,1,$1+$1,$2,$3*
1,1,$1+$1,$4,$5*
1,1,$1+$1,$6,$7*
1,1,$1+$1,$8,$9*
0 Add four rect primitives between the rounded corners*
20,1,$1+$1,$2,$3,$4,$5,0*
20,1,$1+$1,$4,$5,$6,$7,0*
20,1,$1+$1,$6,$7,$8,$9,0*
20,1,$1+$1,$8,$9,$2,$3,0*%
G04 Aperture macros list end*
%ADD10C,1.700000*%
%ADD11R,1.700000X1.700000*%
%ADD12C,1.400000*%
%ADD13RoundRect,0.250000X-1.050000X-1.050000X1.050000X-1.050000X1.050000X1.050000X-1.050000X1.050000X0*%
%ADD14C,2.600000*%
%ADD15RoundRect,0.250000X0.650000X-0.650000X0.650000X0.650000X-0.650000X0.650000X-0.650000X-0.650000X0*%
%ADD16C,1.800000*%
G04 APERTURE END LIST*
D10*
%TO.C,L_I1*%
X124460000Y-92456000D03*
X124460000Y-94996000D03*
X124460000Y-97536000D03*
X124460000Y-100076000D03*
D11*
X124460000Y-102616000D03*
%TD*%
D12*
%TO.C,RM*%
X117856000Y-108712000D03*
X122936000Y-108712000D03*
%TD*%
%TO.C,R1*%
X122428000Y-81280000D03*
X127508000Y-81280000D03*
%TD*%
D11*
%TO.C,R_I1*%
X116822000Y-102616000D03*
D10*
X116822000Y-100076000D03*
X116822000Y-97536000D03*
X116822000Y-94996000D03*
X116822000Y-92456000D03*
%TD*%
D12*
%TO.C,R11*%
X127508000Y-77724000D03*
X122428000Y-77724000D03*
%TD*%
%TO.C,R6*%
X127508000Y-87884000D03*
X122428000Y-87884000D03*
%TD*%
D10*
%TO.C,L_N1*%
X109220000Y-86360000D03*
X109220000Y-83820000D03*
X109220000Y-81280000D03*
X109220000Y-78740000D03*
D11*
X109220000Y-76200000D03*
%TD*%
%TO.C,J20*%
X153416000Y-67617145D03*
D10*
X153416000Y-70157145D03*
X153416000Y-72697145D03*
X153416000Y-75237145D03*
X153416000Y-77777145D03*
X153416000Y-80317145D03*
X153416000Y-82857145D03*
X153416000Y-85397145D03*
X153416000Y-87937145D03*
X153416000Y-90477145D03*
X153416000Y-93017145D03*
X153416000Y-95557145D03*
X153416000Y-98097145D03*
X153416000Y-100637145D03*
X153416000Y-103177145D03*
X153416000Y-105717145D03*
X153416000Y-108257145D03*
X153416000Y-110797145D03*
X153416000Y-113337145D03*
X153416000Y-115877145D03*
X153416000Y-118417145D03*
X153416000Y-120957145D03*
%TD*%
D11*
%TO.C,J10*%
X130556000Y-67564000D03*
D10*
X130556000Y-70104000D03*
X130556000Y-72644000D03*
X130556000Y-75184000D03*
X130556000Y-77724000D03*
X130556000Y-80264000D03*
X130556000Y-82804000D03*
X130556000Y-85344000D03*
X130556000Y-87884000D03*
X130556000Y-90424000D03*
X130556000Y-92964000D03*
X130556000Y-95504000D03*
X130556000Y-98044000D03*
X130556000Y-100584000D03*
X130556000Y-103124000D03*
X130556000Y-105664000D03*
X130556000Y-108204000D03*
X130556000Y-110744000D03*
X130556000Y-113284000D03*
X130556000Y-115824000D03*
X130556000Y-118364000D03*
X130556000Y-120904000D03*
%TD*%
D13*
%TO.C,J5*%
X109220000Y-116840000D03*
D14*
X114300000Y-116840000D03*
X119380000Y-116840000D03*
X124460000Y-116840000D03*
%TD*%
D15*
%TO.C,D1*%
X112776000Y-97536000D03*
D16*
X112776000Y-89916000D03*
%TD*%
D10*
%TO.C,R_N1*%
X116840000Y-86360000D03*
X116840000Y-83820000D03*
X116840000Y-81280000D03*
X116840000Y-78740000D03*
D11*
X116840000Y-76200000D03*
%TD*%
M02*
