%TF.GenerationSoftware,KiCad,Pcbnew,10.0.2*%
%TF.CreationDate,2026-06-05T15:43:03+02:00*%
%TF.ProjectId,Prot_Master,50726f74-5f4d-4617-9374-65722e6b6963,1.0*%
%TF.SameCoordinates,Original*%
%TF.FileFunction,Copper,L1,Top*%
%TF.FilePolarity,Positive*%
%FSLAX46Y46*%
G04 Gerber Fmt 4.6, Leading zero omitted, Abs format (unit mm)*
G04 Created by KiCad (PCBNEW 10.0.2) date 2026-06-05 15:43:03*
%MOMM*%
%LPD*%
G01*
G04 APERTURE LIST*
G04 Aperture macros list*
%AMRoundRect*
0 Rectangle with rounded corners*
0 $1 Rounding radius*
0 $2 $3 $4 $5 $6 $7 $8 $9 X,Y pos of 4 corners*
0 Add a 4 corners polygon primitive as box body*
4,1,4,$2,$3,$4,$5,$6,$7,$8,$9,$2,$3,0*
0 Add four circle primitives for the rounded corners*
1,1,$1+$1,$2,$3*
1,1,$1+$1,$4,$5*
1,1,$1+$1,$6,$7*
1,1,$1+$1,$8,$9*
0 Add four rect primitives between the rounded corners*
20,1,$1+$1,$2,$3,$4,$5,0*
20,1,$1+$1,$4,$5,$6,$7,0*
20,1,$1+$1,$6,$7,$8,$9,0*
20,1,$1+$1,$8,$9,$2,$3,0*%
G04 Aperture macros list end*
%TA.AperFunction,ComponentPad*%
%ADD10C,1.700000*%
%TD*%
%TA.AperFunction,ComponentPad*%
%ADD11R,1.700000X1.700000*%
%TD*%
%TA.AperFunction,ComponentPad*%
%ADD12C,1.400000*%
%TD*%
%TA.AperFunction,ComponentPad*%
%ADD13RoundRect,0.250000X-1.050000X-1.050000X1.050000X-1.050000X1.050000X1.050000X-1.050000X1.050000X0*%
%TD*%
%TA.AperFunction,ComponentPad*%
%ADD14C,2.600000*%
%TD*%
%TA.AperFunction,ComponentPad*%
%ADD15RoundRect,0.250000X0.650000X-0.650000X0.650000X0.650000X-0.650000X0.650000X-0.650000X-0.650000X0*%
%TD*%
%TA.AperFunction,ComponentPad*%
%ADD16C,1.800000*%
%TD*%
%TA.AperFunction,Conductor*%
%ADD17C,0.508000*%
%TD*%
G04 APERTURE END LIST*
D10*
%TO.P,L_I1,5,Pin_5_5*%
%TO.N,unconnected-(L_I1-Pin_5-Pad5)*%
X124460000Y-92456000D03*
%TO.P,L_I1,4,Pin_4_4*%
%TO.N,unconnected-(L_I1-Pin_4-Pad4)*%
X124460000Y-94996000D03*
%TO.P,L_I1,3,Pin_3_3*%
%TO.N,5V*%
X124460000Y-97536000D03*
%TO.P,L_I1,2,Pin_2_2*%
%TO.N,GND*%
X124460000Y-100076000D03*
D11*
%TO.P,L_I1,1,Pin_1_1*%
%TO.N,GPIO*%
X124460000Y-102616000D03*
%TD*%
D12*
%TO.P,RM,1*%
%TO.N,Bus*%
X117856000Y-108712000D03*
%TO.P,RM,2*%
%TO.N,5V*%
X122936000Y-108712000D03*
%TD*%
%TO.P,R1,1*%
%TO.N,Gate_N1*%
X122428000Y-81280000D03*
%TO.P,R1,2*%
%TO.N,GND*%
X127508000Y-81280000D03*
%TD*%
D11*
%TO.P,R_I1,1,Pin_1_1*%
%TO.N,3.3V*%
X116822000Y-102616000D03*
D10*
%TO.P,R_I1,2,Pin_2_2*%
%TO.N,unconnected-(R_I1-Pin_2-Pad2)*%
X116822000Y-100076000D03*
%TO.P,R_I1,3,Pin_3_3*%
%TO.N,Bus*%
X116822000Y-97536000D03*
%TO.P,R_I1,4,Pin_4_4*%
%TO.N,unconnected-(R_I1-Pin_4-Pad4)*%
X116822000Y-94996000D03*
%TO.P,R_I1,5,Pin_5_5*%
%TO.N,unconnected-(R_I1-Pin_5-Pad5)*%
X116822000Y-92456000D03*
%TD*%
D12*
%TO.P,R11,2*%
%TO.N,Net-(J10-Pin_5)*%
X127508000Y-77724000D03*
%TO.P,R11,1*%
%TO.N,Gate_N1*%
X122428000Y-77724000D03*
%TD*%
%TO.P,R6,1*%
%TO.N,GPIO*%
X127508000Y-87884000D03*
%TO.P,R6,2*%
%TO.N,GND*%
X122428000Y-87884000D03*
%TD*%
D10*
%TO.P,L_N1,5,Pin_5_5*%
%TO.N,unconnected-(L_N1-Pin_5-Pad5)*%
X109220000Y-86360000D03*
%TO.P,L_N1,4,Pin_4_4*%
%TO.N,unconnected-(L_N1-Pin_4-Pad4)*%
X109220000Y-83820000D03*
%TO.P,L_N1,3,Pin_3_3*%
%TO.N,unconnected-(L_N1-Pin_3-Pad3)*%
X109220000Y-81280000D03*
%TO.P,L_N1,2,Pin_2_2*%
%TO.N,Drain_N1*%
X109220000Y-78740000D03*
D11*
%TO.P,L_N1,1,Pin_1_1*%
%TO.N,unconnected-(L_N1-Pin_1-Pad1)*%
X109220000Y-76200000D03*
%TD*%
%TO.P,J20,1,Pin_1_1*%
%TO.N,unconnected-(J20-Pin_1-Pad1)*%
X153416000Y-67617145D03*
D10*
%TO.P,J20,2,Pin_2_2*%
%TO.N,unconnected-(J20-Pin_2-Pad2)*%
X153416000Y-70157145D03*
%TO.P,J20,3,Pin_3_3*%
%TO.N,unconnected-(J20-Pin_3-Pad3)*%
X153416000Y-72697145D03*
%TO.P,J20,4,Pin_4_4*%
%TO.N,unconnected-(J20-Pin_4-Pad4)*%
X153416000Y-75237145D03*
%TO.P,J20,5,Pin_5_5*%
%TO.N,unconnected-(J20-Pin_5-Pad5)*%
X153416000Y-77777145D03*
%TO.P,J20,6,Pin_6_6*%
%TO.N,unconnected-(J20-Pin_6-Pad6)*%
X153416000Y-80317145D03*
%TO.P,J20,7,Pin_7_7*%
%TO.N,unconnected-(J20-Pin_7-Pad7)*%
X153416000Y-82857145D03*
%TO.P,J20,8,Pin_8_8*%
%TO.N,unconnected-(J20-Pin_8-Pad8)*%
X153416000Y-85397145D03*
%TO.P,J20,9,Pin_9_9*%
%TO.N,unconnected-(J20-Pin_9-Pad9)*%
X153416000Y-87937145D03*
%TO.P,J20,10,Pin_10_10*%
%TO.N,unconnected-(J20-Pin_10-Pad10)*%
X153416000Y-90477145D03*
%TO.P,J20,11,Pin_11_11*%
%TO.N,unconnected-(J20-Pin_11-Pad11)*%
X153416000Y-93017145D03*
%TO.P,J20,12,Pin_12_12*%
%TO.N,unconnected-(J20-Pin_12-Pad12)*%
X153416000Y-95557145D03*
%TO.P,J20,13,Pin_13_13*%
%TO.N,unconnected-(J20-Pin_13-Pad13)*%
X153416000Y-98097145D03*
%TO.P,J20,14,Pin_14_14*%
%TO.N,unconnected-(J20-Pin_14-Pad14)*%
X153416000Y-100637145D03*
%TO.P,J20,15,Pin_15_15*%
%TO.N,unconnected-(J20-Pin_15-Pad15)*%
X153416000Y-103177145D03*
%TO.P,J20,16,Pin_16_16*%
%TO.N,unconnected-(J20-Pin_16-Pad16)*%
X153416000Y-105717145D03*
%TO.P,J20,17,Pin_17_17*%
%TO.N,unconnected-(J20-Pin_17-Pad17)*%
X153416000Y-108257145D03*
%TO.P,J20,18,Pin_18_18*%
%TO.N,unconnected-(J20-Pin_18-Pad18)*%
X153416000Y-110797145D03*
%TO.P,J20,19,Pin_19_19*%
%TO.N,unconnected-(J20-Pin_19-Pad19)*%
X153416000Y-113337145D03*
%TO.P,J20,20,Pin_20_20*%
%TO.N,unconnected-(J20-Pin_20-Pad20)*%
X153416000Y-115877145D03*
%TO.P,J20,21,Pin_21_21*%
%TO.N,unconnected-(J20-Pin_21-Pad21)*%
X153416000Y-118417145D03*
%TO.P,J20,22,Pin_22_22*%
%TO.N,unconnected-(J20-Pin_22-Pad22)*%
X153416000Y-120957145D03*
%TD*%
D11*
%TO.P,J10,1,Pin_1_1*%
%TO.N,3.3V*%
X130556000Y-67564000D03*
D10*
%TO.P,J10,2,Pin_2_2*%
%TO.N,unconnected-(J10-Pin_2-Pad2)*%
X130556000Y-70104000D03*
%TO.P,J10,3,Pin_3_3*%
%TO.N,unconnected-(J10-Pin_3-Pad3)*%
X130556000Y-72644000D03*
%TO.P,J10,4,Pin_4_4*%
%TO.N,unconnected-(J10-Pin_4-Pad4)*%
X130556000Y-75184000D03*
%TO.P,J10,5,Pin_5_5*%
%TO.N,Net-(J10-Pin_5)*%
X130556000Y-77724000D03*
%TO.P,J10,6,Pin_6_6*%
%TO.N,unconnected-(J10-Pin_6-Pad6)*%
X130556000Y-80264000D03*
%TO.P,J10,7,Pin_7_7*%
%TO.N,GPIO*%
X130556000Y-82804000D03*
%TO.P,J10,8,Pin_8_8*%
%TO.N,unconnected-(J10-Pin_8-Pad8)*%
X130556000Y-85344000D03*
%TO.P,J10,9,Pin_9_9*%
%TO.N,unconnected-(J10-Pin_9-Pad9)*%
X130556000Y-87884000D03*
%TO.P,J10,10,Pin_10_10*%
%TO.N,unconnected-(J10-Pin_10-Pad10)*%
X130556000Y-90424000D03*
%TO.P,J10,11,Pin_11_11*%
%TO.N,unconnected-(J10-Pin_11-Pad11)*%
X130556000Y-92964000D03*
%TO.P,J10,12,Pin_12_12*%
%TO.N,unconnected-(J10-Pin_12-Pad12)*%
X130556000Y-95504000D03*
%TO.P,J10,13,Pin_13_13*%
%TO.N,unconnected-(J10-Pin_13-Pad13)*%
X130556000Y-98044000D03*
%TO.P,J10,14,Pin_14_14*%
%TO.N,unconnected-(J10-Pin_14-Pad14)*%
X130556000Y-100584000D03*
%TO.P,J10,15,Pin_15_15*%
%TO.N,unconnected-(J10-Pin_15-Pad15)*%
X130556000Y-103124000D03*
%TO.P,J10,16,Pin_16_16*%
%TO.N,unconnected-(J10-Pin_16-Pad16)*%
X130556000Y-105664000D03*
%TO.P,J10,17,Pin_17_17*%
%TO.N,unconnected-(J10-Pin_17-Pad17)*%
X130556000Y-108204000D03*
%TO.P,J10,18,Pin_18_18*%
%TO.N,unconnected-(J10-Pin_18-Pad18)*%
X130556000Y-110744000D03*
%TO.P,J10,19,Pin_19_19*%
%TO.N,unconnected-(J10-Pin_19-Pad19)*%
X130556000Y-113284000D03*
%TO.P,J10,20,Pin_20_20*%
%TO.N,unconnected-(J10-Pin_20-Pad20)*%
X130556000Y-115824000D03*
%TO.P,J10,21,Pin_21_21*%
%TO.N,5V*%
X130556000Y-118364000D03*
%TO.P,J10,22,Pin_22_22*%
%TO.N,GND*%
X130556000Y-120904000D03*
%TD*%
D13*
%TO.P,J5,1,Pin_1_1*%
%TO.N,unconnected-(J5-Pin_1-Pad1)*%
X109220000Y-116840000D03*
D14*
%TO.P,J5,2,Pin_2_2*%
%TO.N,Bus*%
X114300000Y-116840000D03*
%TO.P,J5,3,Pin_3_3*%
%TO.N,GND*%
X119380000Y-116840000D03*
%TO.P,J5,4,Pin_4_4*%
%TO.N,unconnected-(J5-Pin_4-Pad4)*%
X124460000Y-116840000D03*
%TD*%
D15*
%TO.P,D1,1,K_1*%
%TO.N,Bus*%
X112776000Y-97536000D03*
D16*
%TO.P,D1,2,A_2*%
%TO.N,Drain_N1*%
X112776000Y-89916000D03*
%TD*%
D10*
%TO.P,R_N1,5,Pin_5_5*%
%TO.N,unconnected-(R_N1-Pin_5-Pad5)*%
X116840000Y-86360000D03*
%TO.P,R_N1,4,Pin_4_4*%
%TO.N,unconnected-(R_N1-Pin_4-Pad4)*%
X116840000Y-83820000D03*
%TO.P,R_N1,3,Pin_3_3*%
%TO.N,Gate_N1*%
X116840000Y-81280000D03*
%TO.P,R_N1,2,Pin_2_2*%
%TO.N,unconnected-(R_N1-Pin_2-Pad2)*%
X116840000Y-78740000D03*
D11*
%TO.P,R_N1,1,Pin_1_1*%
%TO.N,GND*%
X116840000Y-76200000D03*
%TD*%
%TO.N,Bus*%
D17*
X115316000Y-108712000D02*
X117856000Y-108712000D01*
X114300000Y-109728000D02*
X115316000Y-108712000D01*
X114300000Y-109728000D02*
X113284000Y-108712000D01*
X114300000Y-116840000D02*
X114300000Y-109728000D01*
X112776000Y-97536000D02*
X116822000Y-97536000D01*
X113284000Y-108712000D02*
X112776000Y-108204000D01*
X112776000Y-108204000D02*
X112776000Y-97536000D01*
%TO.N,Drain_N1*%
X112268000Y-78740000D02*
X109220000Y-78740000D01*
X112776000Y-79248000D02*
X112268000Y-78740000D01*
X112776000Y-89916000D02*
X112776000Y-79248000D01*
%TO.N,Net-(J10-Pin_5)*%
X127508000Y-77724000D02*
X130556000Y-77724000D01*
%TO.N,Gate_N1*%
X122428000Y-81280000D02*
X122428000Y-77724000D01*
X116840000Y-81280000D02*
X122428000Y-81280000D01*
%TO.N,3.3V*%
X124968000Y-68072000D02*
X125476000Y-67564000D01*
X124968000Y-88900000D02*
X124968000Y-68072000D01*
X119888000Y-90932000D02*
X120904000Y-89916000D01*
X119888000Y-101600000D02*
X119888000Y-90932000D01*
X118872000Y-102616000D02*
X119888000Y-101600000D01*
X123952000Y-89916000D02*
X124968000Y-88900000D01*
X116822000Y-102616000D02*
X118872000Y-102616000D01*
X120904000Y-89916000D02*
X123952000Y-89916000D01*
%TO.N,GPIO*%
X127508000Y-87884000D02*
X127508000Y-101600000D01*
X127508000Y-83820000D02*
X127508000Y-87884000D01*
X128524000Y-82804000D02*
X130556000Y-82804000D01*
X127508000Y-83820000D02*
X128524000Y-82804000D01*
X126492000Y-102616000D02*
X127508000Y-101600000D01*
X124460000Y-102616000D02*
X126492000Y-102616000D01*
%TO.N,5V*%
X122936000Y-97536000D02*
X124460000Y-97536000D01*
X121920000Y-98552000D02*
X122936000Y-97536000D01*
X121920000Y-105664000D02*
X121920000Y-98552000D01*
X122936000Y-106680000D02*
X121920000Y-105664000D01*
X122936000Y-108712000D02*
X122936000Y-106680000D01*
X127508000Y-108712000D02*
X122936000Y-108712000D01*
X128016000Y-109220000D02*
X127508000Y-108712000D01*
X128016000Y-117856000D02*
X128016000Y-109220000D01*
X128524000Y-118364000D02*
X128016000Y-117856000D01*
X130556000Y-118364000D02*
X128524000Y-118364000D01*
%TO.N,3.3V*%
X130556000Y-67564000D02*
X125476000Y-67564000D01*
%TD*%
M02*
